<mxfile host="app.diagrams.net" modified="2024-06-26T16:28:37.357Z" agent="Mozilla/5.0 (Windows NT 10.0; Win64; x64) AppleWebKit/537.36 (KHTML, like Gecko) Chrome/126.0.0.0 Safari/537.36" etag="E6O-0ikX5KCpF1Y9wpb5" version="24.6.3" type="google">
  <diagram name="Page-1" id="2XFJw35yiC1mTTw0qMik">
    <mxGraphModel grid="0" page="1" gridSize="10" guides="1" tooltips="1" connect="1" arrows="1" fold="1" pageScale="1" pageWidth="850" pageHeight="1100" math="0" shadow="0">
      <root>
        <mxCell id="0" />
        <mxCell id="1" parent="0" />
        <mxCell id="lu6KjBgIaQ4wTNZxXIFp-11" style="edgeStyle=none;shape=link;rounded=0;orthogonalLoop=1;jettySize=auto;html=1;entryX=0;entryY=0.5;entryDx=0;entryDy=0;" edge="1" parent="1" source="RIK8JHLe3Fis-H1FspuT-1" target="RIK8JHLe3Fis-H1FspuT-4">
          <mxGeometry relative="1" as="geometry" />
        </mxCell>
        <mxCell id="RIK8JHLe3Fis-H1FspuT-1" value="1" style="rounded=0;whiteSpace=wrap;html=1;fontStyle=1;fontSize=27;" vertex="1" parent="1">
          <mxGeometry x="14" y="240" width="40" height="40" as="geometry" />
        </mxCell>
        <mxCell id="lu6KjBgIaQ4wTNZxXIFp-8" style="edgeStyle=none;shape=link;rounded=0;orthogonalLoop=1;jettySize=auto;html=1;entryX=0.5;entryY=0;entryDx=0;entryDy=0;" edge="1" parent="1" source="RIK8JHLe3Fis-H1FspuT-2" target="RIK8JHLe3Fis-H1FspuT-1">
          <mxGeometry relative="1" as="geometry" />
        </mxCell>
        <mxCell id="lu6KjBgIaQ4wTNZxXIFp-9" style="edgeStyle=none;shape=link;rounded=0;orthogonalLoop=1;jettySize=auto;html=1;entryX=0.5;entryY=0;entryDx=0;entryDy=0;" edge="1" parent="1" source="RIK8JHLe3Fis-H1FspuT-2" target="RIK8JHLe3Fis-H1FspuT-4">
          <mxGeometry relative="1" as="geometry" />
        </mxCell>
        <mxCell id="RIK8JHLe3Fis-H1FspuT-2" value="0" style="rounded=0;whiteSpace=wrap;html=1;fontStyle=1;fontSize=27;" vertex="1" parent="1">
          <mxGeometry x="157" y="115" width="40" height="40" as="geometry" />
        </mxCell>
        <mxCell id="lu6KjBgIaQ4wTNZxXIFp-19" style="edgeStyle=none;shape=link;rounded=0;orthogonalLoop=1;jettySize=auto;html=1;entryX=-0.04;entryY=0.389;entryDx=0;entryDy=0;entryPerimeter=0;" edge="1" parent="1" source="RIK8JHLe3Fis-H1FspuT-3" target="lu6KjBgIaQ4wTNZxXIFp-16">
          <mxGeometry relative="1" as="geometry" />
        </mxCell>
        <mxCell id="RIK8JHLe3Fis-H1FspuT-3" value="3" style="rounded=0;whiteSpace=wrap;html=1;fontStyle=1;fontSize=27;" vertex="1" parent="1">
          <mxGeometry x="230" y="273" width="40" height="40" as="geometry" />
        </mxCell>
        <mxCell id="lu6KjBgIaQ4wTNZxXIFp-13" style="edgeStyle=none;shape=link;rounded=0;orthogonalLoop=1;jettySize=auto;html=1;entryX=0.5;entryY=0;entryDx=0;entryDy=0;" edge="1" parent="1" source="RIK8JHLe3Fis-H1FspuT-4" target="RIK8JHLe3Fis-H1FspuT-5">
          <mxGeometry relative="1" as="geometry" />
        </mxCell>
        <mxCell id="lu6KjBgIaQ4wTNZxXIFp-15" style="edgeStyle=none;shape=link;rounded=0;orthogonalLoop=1;jettySize=auto;html=1;entryX=0;entryY=0.25;entryDx=0;entryDy=0;" edge="1" parent="1" source="RIK8JHLe3Fis-H1FspuT-4" target="RIK8JHLe3Fis-H1FspuT-3">
          <mxGeometry relative="1" as="geometry" />
        </mxCell>
        <mxCell id="RIK8JHLe3Fis-H1FspuT-4" value="2" style="rounded=0;whiteSpace=wrap;html=1;fontStyle=1;fontSize=27;" vertex="1" parent="1">
          <mxGeometry x="117" y="255" width="40" height="40" as="geometry" />
        </mxCell>
        <mxCell id="lu6KjBgIaQ4wTNZxXIFp-18" value="" style="edgeStyle=none;shape=link;rounded=0;orthogonalLoop=1;jettySize=auto;html=1;" edge="1" parent="1" source="RIK8JHLe3Fis-H1FspuT-5" target="lu6KjBgIaQ4wTNZxXIFp-16">
          <mxGeometry relative="1" as="geometry" />
        </mxCell>
        <mxCell id="RIK8JHLe3Fis-H1FspuT-5" value="4" style="rounded=0;whiteSpace=wrap;html=1;fontStyle=1;fontSize=27;" vertex="1" parent="1">
          <mxGeometry x="123" y="385" width="40" height="40" as="geometry" />
        </mxCell>
        <mxCell id="RIK8JHLe3Fis-H1FspuT-19" value="" style="shape=image;verticalLabelPosition=bottom;labelBackgroundColor=default;verticalAlign=top;aspect=fixed;imageAspect=0;image=data:image/png,iVBORw0KGgoAAAANSUhEUgAAAOMAAACyCAYAAACwXHgeAAAAAXNSR0IArs4c6QAAAARnQU1BAACxjwv8YQUAAAAJcEhZcwAADsMAAA7DAcdvqGQAABBQSURBVHhe7d17aFRXHgfwb8VCWkqLGJMuQaP4CIQ1afFBxGr/aFN8THR30a6G0A2rpYJVaYsFx2F32caUVnZLfIDdGgklVFtbujYRpakL9YFBu5RJihBNqTFk18QUEbpGtuLuOXfOTG4mr5m559ycmfl+4O7m3mYdy+abc+655/5+D92999//YRQ/3R3AY48+os7G8eA+fsZkPDxJnRNRUvRFZxKDSOQF40NkCYaRyBIMI5ElGEYiSzCMRJZgGIkswTASWYJhJLIEw0hkCYaRyBIMI5ElGEYiS+gL4wP130SUEk1hHED42DsIHb0iviKiVOh7n3GgA8f2HcV3M17E7o3FSPB/NXHC9ch9pU2dAIFQEA2BfHVmobi/L6o2of/VEnVCmUBfGCUVyKuzN2LnuiIPgbyGvRs6UIMpaDm2FIvVVa2cH27gVOsmLFKXhmrDX8vqUavOgJIxvteruM9ashpX3nsBeeo03uUDO7ASDGOm0buA80gRNmzfiHnfH8XeTztSmrJeqm/GExv6MLM6R12ZCL349LV6tInRsr+1zjlOVbVh5Wtfok99hz4qiHKkcz4riEM4iWIjn0U207+a6grkgaYbyQWy/QLKUYQ7YjRcri5NjHyse69uyLR10TIxCl38Bmc1J6SvuVmMiGLUjY1y4rN3rUbg4kk0htUlygr6wyg5gfw95nYewYF/3FIXEzB/Ke5smqtOxnHrW1RtEKNo6FsxjqWvruvib1+1yDX9FaPy2yfRLL5q607nfzNKlpkwutz5T2asr14+1ybu5RZi+Wg3cinpRdf3QGCmGoH7vkR1WS2an9uEQ0uAZhlUyhpmwjhwA38/9De0TnsRuytmqIuaTXsajccCuFPztJjYmdXXXIuVjUCwevRFFa/kokzumm5sFfeNVq/qkjH6wxgLYiX+WJUGjzjGIYNYXNOL4Pt1eL1UXdQmH4WzxQhYU4uDM+Vi0dDV2tiISVlBbxgZxKQVOoErwVb3aNgXRvPFfAQWM4zZRF8Y/Q6i4QWcxIMoH4OIKaa41/s0hZXWvEAAQbRh5YHoA321gFMVwDpTc2KykqYw3kf4syPOPWKw0kMQowETx7yGe+LCbZSr873tkW/xRxsaRRCl2ldk0FzHsOd/kammDNGWT1w7ZBJWgtfF9DTYWK8+oxZbZvOBfjbK3vL+4+7ASYJcBV1zEvBpSx134GQmfdHJ4vL+lz+RzwV5j0fe6N2bmk50bBSP/Rkm960q3Cie8bI3jESWydKJJZF9GEYiSzCMRJZgGIkswTASWYJhJLIEw0hkCYaRyBIMI5ElGEYiSzCMRJbQF0b22iDyRNNG8QGEP9qH4w9VpEdpf0nHWxt+4lsbGU/fWxu6em20X8ATe26rE6G8KPFaqslwfrjHf7nYeZFXVoYzWAeH5f1J0jdNVZXEf3njk5RL+ztlN/YM4PD+AO7IMozHihBq6UDV6X71DT6SYS3bgXMzVyOgLpnB8v4UoXcBx2uvDacW6vNYP02dYy6eLQeazncbKTo1OhEQZ9QUo6GRrjuDWN6fovSGUfLSayMZRqvDRYpEGX1zX2F5f4rSH0Yp1V4bw1zD1y1AxTPTjVcNnxgs70+DzITRJfVeG/04Hor0aNy+Ilddc/GxvL8fWN6fzITRc68NGcRWbO402CzVCizvT4P0h9FzZfFsCWIEy/tTlN4w+hlEa/ozsrw/6aEvjDp6bbR3iCDKLwbL+kcPf581RgMm7+MiK5uxMv+x0ESxvD/poWkHzn2EG2twFL9BsLIEjxtfFtIgwR04CWF5f9JAU2wmo7QyhLfSJYiasbw/6cDy/grL+9NEY3l/Iktk4aSSyE4MI5ElGEYiSzCMRJZgGIkswTASWYJhJLIEw0hkCYaRyBIMI5ElGEYiS+gLI8v7E3miKYwDCB97B6GjV8yVZiTKcJrC+AhKf/0rp5r4nnQJpKoYHj2qm1kWcSL0Ndfy/wdF7ytUqt/G1dkbsXNdUYr9Nq5h7wZZolGZU4CrJsoxjvumf1z/C2PvLMZ/juDLu4rRz83HoS+C5urtqCoIzeP0D4mUOpE1Yy1vQGSQ3gUcr+X9o0GUzW6cXhtlOIwezPO96JT8wahHW0iWT5T9L+pwqqoNK430v5A1cCKfETki9XBMjxCXD4ggLsk32EdE1RF6GwhUqUs0Jr1hlDyU9+893eUULW6JdZ3KxfodBajo7MGH7eqSL/Kx7r2hxYQXLRMj1cVvcNZ4N5oSLBM/vEariYtZwcpGMdLvWqgu6NfXXO+Mcv1iNCxU12hs+sMopVjev6vnHlCe5yrR2I/jdT1oEl+Fe+Kqw1lTqlEzMa07KFvQyfAbIZv6tCEQChgtE5IXyN7pZqrMhNElmfL+XT8AFQVTIidO2Fpx4pkiHJ4DNPW4ejZOgMvn2oAlC7HcyL2VvH9TixiqypypXpBO1ytx//Yug2IdM2H0WN7/Ur0Y8bbdxXZx39i4QoUzno+9NuSKn9MwtXqsBQgv3PeNQQTO1CLXxP2pGHXfrAEO7TL170Fe6A+jh2LGhbPECNjQin0FZbgTV1E8NmL6TAaxuKbXcOdit2h/Rt33p5FK5QhtYqVyS+kNo8eq4oUFOeI/47pO3erGic4crF0wQicqw/wPovLvbqcOa6HO0Dj9OyJNdmLP9Zxq6b3Yskae1+Oy+laaGPrCqKG8f/6KQoRkaf/6a+qKWsApL3R1M1YML+AkHsRoK4DUem0MF1lgGdpAVXH6N4rPSmUKm/cCGoY8QhHHF7JFunzOKM/jnqFGN0UMa2dApmgK432EPzvi3CMGK1Pss+GYi52qj3+kx0YrNs8qwp3Yow6/tKFRBFGK9diIHsOC4LHXRjRgsaMeEL8ARnzon/ekuLsU/Ggx/ovpkWeQjc2p/ZJx7XCS99vy71zsnOv6pZV59O3AeXAfP2MyHjazJKTfuDtwkqB2mfjRayMyYsPsrhnF6ekhn0ca2XkUjztw9EVnUhoFUTP/em2oEdvYIxYX9bxzxOkyGZGl8Ylqw0o1lUpp+5maikVGD7MjldNmXO4llftWx9zj6ZW6B1Yjvek9snKkj0xna7HlorqYpdhrg8gSWT4yEtmDYSSyBMNIZAmGkcgSDCORJRhGIkswjESWYBiJLMEwElmCYSSyBMNIZAl9YWSvDSJPNG0UH0D4o304/lAFdm/08nKxj5z3GQdfBg748C6iJ3F/X3+qjpOf9L21oUr7fzfjRQ+BjCvtL8nq4ibe9E/g5eLIy7XqxClPYfqF3sRK7jt/LzCMmUbfNFVVEpfNb1Ir7S/JshuyrH/0iJTgqDodV8DYB4NvuUfqxVwJAVvWmC0ZYb7kPtlM7wKO514b8ebi2fIJKGCs3nIPvj84auYFNuHQkhTr3CRCjNSmS+6T3fSGUfLQa2OYW99iXwsQWjzCNNVkdTinVGIJlrmqwsneEc6b6N/fNND8xp+S+2Q3/WGUUuy1ESHvG2VlOFlVvAeoLsPO+eof+aSvW9aZma4atkTKUBSfWYhToXzgYje6nOv6sOQ+SWbC6JJMr40I931jGdaebx159POjvL9T46YWN6rFfaOpbkpiSsyS+ySZCaPHXhuDoi3hfsTZZAdYD/KmyxHwJIobpuNKa1wR49iIqQNL7tMg/WHUUFl8iJt30ST+lML4iuImqQK+Qxvd9OLsmV4EnivVN4Kx5D656A2j7iDK+8c9t+N6NiomF3DyXsDWKllNfDAMkQWcEmwddl/nobx/siX3KaPpC6OOIEYDFjs6gN3ivtD38v7AoldV63A1YhXX5I+yQcBjeX8iRdMOnPsIN9bgKH6DYGUJHje+LKRBAjtwEuZjeX+JO3Ayk6bYTEZpZQhvpUsQNfOvvD9lsuytKB638TqljeKxP8OH5jBxf19uFM88LO9PZIksnFQS2YlhJLIEw0hkCYaRyBIMI5ElGEYiSzCMRJZgGIkswTASWYJhJLIEw0hkCX1hZHl/Ik80hXEA4WPvIHT0ioZaqUTZybLy/j7S8QqVn/gKVcbT+wqVCuTV2Ruxc12Rx0BG+27k4PD+57Fed0Eq54fbhl4b0f4aLuMEjW/6Zya9Czgay/tfqhdBnJODCnXuN/96bZTgdXdBKvHLIdhYj+pm7WW2yHL6V1N1lPdvv4Dylilo2TFVXfDZRPTaiCnBsiqg+TrDmG30h1HyWt5/z21UVBcNL8/ollG9NlyivwiWcQqabcyE0SXZ8v69p7vE9LQAf1mRq674z+9eG5H7xsEixrLK3JAq5pQVzIQx1fL+YrR7owE4vCOB/hmZ0mvD4b5vDCJwpha5r31pdgQm6+gPo4dixsfrZNepp/SvnCbJv14bI8nHul2rEbj4Dc4yjVlFbxg9VhU/0Qk0NbQOVhTf1oMm3MPmbfL8Ai6p7zPOr14bo3HuWfNRaPyDyCb6wqihvL8z7XQf+wtQ4TxnlOdLhy7oZEKvjRFFGqeiapHZOqxkHU1hvI/wZ0ece8RgZRrsvkmAb702ZGuA6OKNc9QD74t7Rz7Qzzr6duA8uI+fMRkPm1kS0i+BHTgJY68N0kBfdCalURA1Y68N0oG9NhT22qCJxl4bRJbI0oklkX0YRiJLMIxElmAYiSzBMBJZgmEksgTDSGQJhpHIEgwjkSUYRiJLMIxElmAYo5yXlYdXE+g9/RWeqL+mzojMsSyM/TgeUiU3TL3FP6Jr2LtN1t8ZXh4yf0UhQi0dqDrdr64QmWHtWxtyRJp3fiqumqz+5pC/AFqxeVYR7myaq67FkaOmCGvp7gB2zlfXtAmjbutLeFedRa1afQYfrJq4cpXkP05T2zuwuTMHh9eMEkRp2tPYXg7UfGxupH7z5TB6Dg4eDGL2yfIwilHx49tAeeG45SEXrylARWcPPmxXF4g0S9Mwyg5VrnvLuIUXZ9FF3m+2X3B9z1c4PqzTwG1c7wRCi8cYFaOmTcfaOWJS2TPKvWP0s7jYQylKwzBGWsWFq8tiJR2vVg+gPH4lVIxi8z5+FFfV97SU38Pmurhp5q2fxB1bDmY+qc7HlIvCWUBTjxhJDXj3g1IUbFXHnz9Hsh1KKP2lXRhH6sXhrHiKUe7rIVPIKWhxLf4UFuSor1xu3kWT+jJhP/w08n3j/KWRXw6jLQKNqhQ7XPeKPQc/xJu9f8JTDGTWSc9pqhz1YtNPecimqil48tHk+z/Oeszw6q4I58svid86Z3Den+c6ZIn0DKMYGaPTT/eR9GOHaY+JH/17uH5TnY+pH10/ABUFU9S5Obf+JT4IszCDlR+zStqFMX/BVGdV8w0tD+GnYOYcoOZSAosut7pxojMHaxeM8shB1wJO7+cInjyHVat/hwXqEmUHu8IY7Z8hjnkN91zTUddKqGwFt78AcDfIcY5UGuPkYv1vxUjX0jXCSutQvf/8EU1zpmK57g5ZInwvRxdunMWbM1j1Bz5nzEasmzrhO3CIItLznlErMTrWFI2x/zS6b7WMQSSjGEbHXOx0pr4dI7y10YWa8iI0TmBbc8oOnKYSWYIjI5ElGEYiSzCMRJZgGIkswTASWWLM1VQi8g9HRiJLMIxElmAYiSzBMBJZAfg/skumrKXCAUEAAAAASUVORK5CYII=;clipPath=inset(1.12% 18.72% 1.12% 1.1%);fontStyle=1;fontSize=27;" vertex="1" parent="1">
          <mxGeometry x="460" y="210" width="188.28" height="180" as="geometry" />
        </mxCell>
        <mxCell id="RIK8JHLe3Fis-H1FspuT-21" value="1" style="text;html=1;align=center;verticalAlign=middle;whiteSpace=wrap;rounded=0;fontColor=#FFFFFF;fontSize=27;fontStyle=1" vertex="1" parent="1">
          <mxGeometry x="1070" y="220" width="60" height="30" as="geometry" />
        </mxCell>
        <mxCell id="RIK8JHLe3Fis-H1FspuT-22" value="2" style="text;html=1;align=center;verticalAlign=middle;whiteSpace=wrap;rounded=0;fontColor=#FFFFFF;fontSize=27;fontStyle=1" vertex="1" parent="1">
          <mxGeometry x="1160" y="170" width="60" height="30" as="geometry" />
        </mxCell>
        <mxCell id="RIK8JHLe3Fis-H1FspuT-23" value="4" style="text;html=1;align=center;verticalAlign=middle;whiteSpace=wrap;rounded=0;fontColor=#FFFFFF;fontSize=27;fontStyle=1" vertex="1" parent="1">
          <mxGeometry x="1380" y="170" width="60" height="30" as="geometry" />
        </mxCell>
        <mxCell id="RIK8JHLe3Fis-H1FspuT-25" value="3" style="text;html=1;align=center;verticalAlign=middle;whiteSpace=wrap;rounded=0;fontColor=#FFFFFF;fontSize=27;fontStyle=1" vertex="1" parent="1">
          <mxGeometry x="1285" y="150" width="60" height="30" as="geometry" />
        </mxCell>
        <mxCell id="RIK8JHLe3Fis-H1FspuT-26" value="7" style="text;html=1;align=center;verticalAlign=middle;whiteSpace=wrap;rounded=0;fontColor=#FFFFFF;fontSize=27;fontStyle=1" vertex="1" parent="1">
          <mxGeometry x="1240" y="420" width="60" height="30" as="geometry" />
        </mxCell>
        <mxCell id="RIK8JHLe3Fis-H1FspuT-27" value="5" style="text;html=1;align=center;verticalAlign=middle;whiteSpace=wrap;rounded=0;fontColor=#FFFFFF;fontSize=27;fontStyle=1" vertex="1" parent="1">
          <mxGeometry x="1450" y="270" width="60" height="30" as="geometry" />
        </mxCell>
        <mxCell id="RIK8JHLe3Fis-H1FspuT-28" value="6" style="text;html=1;align=center;verticalAlign=middle;whiteSpace=wrap;rounded=0;fontColor=#FFFFFF;fontSize=27;fontStyle=1" vertex="1" parent="1">
          <mxGeometry x="1360" y="350" width="60" height="30" as="geometry" />
        </mxCell>
        <mxCell id="RIK8JHLe3Fis-H1FspuT-29" value="8" style="text;html=1;align=center;verticalAlign=middle;whiteSpace=wrap;rounded=0;fontColor=#FFFFFF;fontSize=27;fontStyle=1" vertex="1" parent="1">
          <mxGeometry x="1110" y="390" width="60" height="30" as="geometry" />
        </mxCell>
        <mxCell id="RIK8JHLe3Fis-H1FspuT-31" value="9" style="text;html=1;align=center;verticalAlign=middle;whiteSpace=wrap;rounded=0;fontColor=#FFFFFF;fontSize=27;fontStyle=1" vertex="1" parent="1">
          <mxGeometry x="1040" y="310" width="60" height="30" as="geometry" />
        </mxCell>
        <mxCell id="RIK8JHLe3Fis-H1FspuT-33" value="10" style="text;html=1;align=center;verticalAlign=middle;whiteSpace=wrap;rounded=0;fontColor=#FFFFFF;fontSize=27;fontStyle=1" vertex="1" parent="1">
          <mxGeometry x="1100" y="270" width="60" height="30" as="geometry" />
        </mxCell>
        <mxCell id="RIK8JHLe3Fis-H1FspuT-35" value="11" style="text;html=1;align=center;verticalAlign=middle;whiteSpace=wrap;rounded=0;fontColor=#FFFFFF;fontSize=27;fontStyle=1" vertex="1" parent="1">
          <mxGeometry x="1180" y="260" width="60" height="30" as="geometry" />
        </mxCell>
        <mxCell id="RIK8JHLe3Fis-H1FspuT-36" value="13" style="text;html=1;align=center;verticalAlign=middle;whiteSpace=wrap;rounded=0;fontColor=#FFFFFF;fontSize=27;fontStyle=1" vertex="1" parent="1">
          <mxGeometry x="1240" y="270" width="60" height="30" as="geometry" />
        </mxCell>
        <mxCell id="RIK8JHLe3Fis-H1FspuT-37" value="12" style="text;html=1;align=center;verticalAlign=middle;whiteSpace=wrap;rounded=0;fontColor=#FFFFFF;fontSize=27;fontStyle=1" vertex="1" parent="1">
          <mxGeometry x="1170" y="350" width="60" height="30" as="geometry" />
        </mxCell>
        <mxCell id="RIK8JHLe3Fis-H1FspuT-38" value="14" style="text;html=1;align=center;verticalAlign=middle;whiteSpace=wrap;rounded=0;fontColor=#FFFFFF;fontSize=27;fontStyle=1" vertex="1" parent="1">
          <mxGeometry x="1245" y="330" width="60" height="30" as="geometry" />
        </mxCell>
        <mxCell id="RIK8JHLe3Fis-H1FspuT-39" value="15" style="text;html=1;align=center;verticalAlign=middle;whiteSpace=wrap;rounded=0;fontColor=#FFFFFF;fontSize=27;fontStyle=1" vertex="1" parent="1">
          <mxGeometry x="1300" y="230" width="60" height="30" as="geometry" />
        </mxCell>
        <mxCell id="RIK8JHLe3Fis-H1FspuT-40" value="16" style="text;html=1;align=center;verticalAlign=middle;whiteSpace=wrap;rounded=0;fontColor=#FFFFFF;fontSize=27;fontStyle=1" vertex="1" parent="1">
          <mxGeometry x="1330" y="276" width="60" height="30" as="geometry" />
        </mxCell>
        <mxCell id="RIK8JHLe3Fis-H1FspuT-42" value="17" style="text;html=1;align=center;verticalAlign=middle;whiteSpace=wrap;rounded=0;fontColor=#FFFFFF;fontSize=27;fontStyle=1" vertex="1" parent="1">
          <mxGeometry x="1300" y="325" width="60" height="30" as="geometry" />
        </mxCell>
        <mxCell id="RIK8JHLe3Fis-H1FspuT-43" value="18" style="text;html=1;align=center;verticalAlign=middle;whiteSpace=wrap;rounded=0;fontColor=#FFFFFF;fontSize=27;fontStyle=1" vertex="1" parent="1">
          <mxGeometry x="1370" y="230" width="60" height="30" as="geometry" />
        </mxCell>
        <mxCell id="RIK8JHLe3Fis-H1FspuT-44" value="" style="shape=image;verticalLabelPosition=bottom;labelBackgroundColor=default;verticalAlign=top;aspect=fixed;imageAspect=0;image=data:image/png,iVBORw0KGgoAAAANSUhEUgAAAncAAAHzCAYAAABCAzsxAAAAAXNSR0IArs4c6QAAAARnQU1BAACxjwv8YQUAAAAJcEhZcwAADsMAAA7DAcdvqGQAAP6BSURBVHhe7P0HeFzXee6Lv3vPDAa9FwIkCIAAK9h7E6tIyrZkWZYtx5atJLKVexI7/yiPc6917efGce6Jj3yOfaJzbxyfGznKiR3asSMXFVukCpvE3nsDCZIA0XsfTNn/9a6ZIQYgSGJA1MH3k7dnZs0GONiz99rv+qpRMC3fgiAIgiAIghARmIFHQRAEQRAEIQIQcScIgiAIghBBiLgTBEEQBEGIIETcCYIgCIIgRBAi7gRBEARBECIIEXeCIAiCIAgRhIg7QRAEQRCECELEnSAIgiAIQgQh4k4QBEEQBCGCEHEnCIIgCIIQQYi4EwRBEARBiCBE3AmCIAiCIEQQIu4EQRAEQRAiCBF3giAIgiAIEYSIO0EQBEEQhAhCxJ0gCIIgCEIEIeJOEARBEAQhghBxJwiCIAiCEEGIuBMEQRAEQYggRNwJgiAIgiBEECLuBEEQBEEQIggRd4IgCIIgCBGEiDtBEARBEIQIQsSdIAiCIAhCBCHiThAEQRAEIYIQcScIgiAIghBBiLgTBEEQBEGIIETcCYIgCIIgRBAi7gRBEARBECIIEXeCIAiCIAgRhIg7QRAEQRCECELEnSAIgiAIQgQh4k4QBEEQBCGCEHEnCIIgCIIQQYi4EwRBEARBiCBE3AmCIAiCIEQQIu4EQRAEQRAiCBF3giAIgiAIEYSIO0EQBEEQhAhCxJ0gCIIgCEIEIeJOEARBEAQhghBxJwiCIAiCEEGIuBMEQRAEQYggRNwJgiAIgiBEECLuBEEQBEEQIggRd4IgCIIgCBGEiDtBEARBEIQIQsSdIAiCIAhCBCHiThAEQRAEIYIQcScIgiAIghBBiLgTBEEQBEGIIETcCYIgCIIgRBAi7gRBEARBECIIEXeCIAiCIAgRhIg7QRAEQRCECELEnSAIgiAIQgQh4k4QhBHBMO0wouJgxCarLQVGTCIMu5NvBPYQBEEQhgKjYFq+FXguCIIwJBjOeJjxqTDi0rSQgxJyiIoBbFFqSWnjHoDlA3wewNMFdLUDnc2w2hvga6tTW73/fUEQBCFsRNwJgjAEKLFms8OWmAkkZMBMnARDPTfj0wCKu2gl7hz3sNJ53YCrwy/uOpS4a62F1VQJq009ttTC19WiRKA3sLMgCILwIETcCYLwUNC1SlcrEjPgyCmGkTVdCzzYowN7hImlpiRXO6y66/BVXYav7oZf8CnxJwiCIDwYEXeCIAwOWuFsDtjSpsI+bSWM/CWAg4LO8L8/BFh0zTaUw3ftIDzXD8HydAeseDJtCYIg3AsRd4IgDAozPh22/OWw5S0Gkidpt+xQCrs7UMx1t8NquAXfhQ/gqSuF1d0ZeFMQBEHoi4g7QRDCw7TBnjENxsz1MNPVI5MlbI7Am8MELXgelz/houQAvGWn4GutC7wpCIIghGJLSUn+m8BzQRCE+2JExcCeOR222ZtgTJoJIzYpkP06zBhM2HDAiE5UYjIJBqs4dbfB6moL7CAIgiAEkQJTgiAMCCMqFraMabDNXAeDiRPOuMA7I4uRMgW2gmWwT10Mk9m5giAIQi9E3AmC8GBsUTDTpsI2bRWM3IWB+LpRJDkHZv5SJfAW6Zp62rInCIIgaETcCYLwQMzEdJh5i2EULAuMDBzqrmibgTiHgXi1JUT5t3hu6nWs3YBDzURhyzMl8Iyi1bBPngNjuGP+BEEQxhGSUCEIwn0xlDqzF2+FbeZ6IC4tMDowTKXYKOAey3OgIMlEstNElM0/7lUzT5fbh7ou4GCFB+fqvWj3hDkded2wWqrh3vdjXQtPd7wQBEGY4EhChSAI98Weu1DHuBnJOUrpDdzYn+o0sDTTjqemOzEjxYb0GBNOJexcXqBTbXF2IEHtk6S2qYkmJsfzdxuo6gij7ZhpwrBHwVSa0GqpgtXdEXhDEARh4iLiThCE/jEMmDGJOjPWZNcJXaB4YNDVWpxmw8ZcO6Yl2xCjXre5LRyt9uBAhQcXG7y43uyDwzSQrMRdarSJFPUYYzNQ3+lDq9p3YDY8Qwk8m86gtZor/F0s2M5MEARhAiMxd4Ig9I8STbaMIhhpeQCTFsIgP9HE4kwb8pKU8AqMnavzYL8SdoeqPDimRN6HFW7sLvOgpsOCxwcdgzc9xcTqHDuilMgbMLQmsp9t9iwY7GUrCIIwwRFxJwhCPxgw7NEw8xbp2nLhwOSIOWk2zEz1Czta4Lq9wIkaL2639bhcKehOKcF3q8WHzkCsHd20SybZkRnjT7IIBzNzBsykbPVklDN5BUEQRhkRd4Ig3IVh2mDGJul6dgiznl1GtIkMJc5iHX7rm6V0W1OXD63dFtz9hNNVd/jQpt4j/Alm1q7IsiMpKgzrHUnOhpGaCzMmKTAgCIIwMRFxJwjC3ShBZ5s0S80Q4XefYPJERkzP1ELZ1ur2Z8f2B0VfV0iSq0396KxUmy6dEi603JlK5AmCIExkRNwJgnAXbDNmZhQOStxlxfnr2AWh5a7DbcF7jyRYumTdvh7lx0kplW7ZQXQ1MxIz9SYIgjCREXEnCMLdOGJgpE0dlLhLVMIuOiTsjbKt22vhHtpOl0Zh/F0QXfTYbsAcTNeJ2GQgPg2GLSowIAiCMPEQcScIQi/Y7cGIjgfiUtSL8KcICjt7nx+j1Y4WvP5wK3EXYrjT0DXLQsdhyzu7U332JBgxCYEBQRCEiYeIO0EQeuOIVuIoBdYgs05ZxaSv1e0euk7jU6qvr1WPP23Xv8f/OhzoUjZilTAVBEGYoIi4EwShFyyB8jCWL+qxcDQZhV1/4o8icTCeWb/1Tix3giBMXETcCYLQG7sdRhjdKAaCx7p3x4l7icF7jT8QmyOsbhqCIAiRhog7QRB6YTDOzjbEhYC1sutf3t0rtk5b9O7nz70Xpk3HDQqCIExURNwJgtAHQwm8QdnMNP2JMlPNNPf6jYzP6+89ZtD2jcUbMA/x+QVBEMY7Iu4EQeiNRVXlDbwIH2a/9i1YbNcCrn/BpS13fd7ij/N39M2iHRAP+fnHOsXPvYK39p/G9Wul/u3Caez9xXfwpbzADoIgTHhE3AmC0AvL54Hl6Q68Cp9OjxJ4IaqMus2hFNy9jGlR9AKHvMef1OVR/C/DR31+eLoCLyKLDd97D69/+0kUT0qEq6oEJVdKUOtNRO7S5/CdX23HV0TgCYKgEHEnCEJvlLCzXO2BF+HT0GWhwx14ESDG7rfQ9UeMnd0oet6kS7dNd7QYjNlOoT9/R+BFBLH2ZXzzqSI40YITf/84Zq/Zgq0f24IV857HL6+5gJTV+Pp//VpgZ0EQJjIi7gRB6IXl7oLV2Rx4FT63Wrxo7Oqxu9FiFxtl6MLE/RHrMLT1Lgg1XVW7D92D9Kzqz98x+M8/Zlk5HZkuJeKuvYO//IfzgUGyGy/96ABq1TPnnI34un9QEIQJjIg7QRB6QZesj+Koq81vRguTq80+VHf47sTL0WKXHm1qC11/1rvcRBPJ0T1v0KW7/7Ybja7BWe5odfS11wdeRRDffxoL583CtK0voSwwdIcTLdCO6NhEZOgBQRAmMiLuBEHoDRMSujtgNVf4n4cJXao3WnyoaPP/LGUbW5ItTLcjO65nyqHQS3MayIo1EMt2FApa66raLVxXArHLMwhx19kCtDcogeoKDEwMVv1ZMXL5pLYMB/SIIAgTGVtKSvLfBJ4LgiBoDLsDZkwSjLQ8pcJsgdGB41a6zmlTwk2JOT7SNRtP1yw1nNJs0Xwv1sSySTbMTLUjzmHo7NjaDh/23fagpMmLwWi7eHcTpsV0Y1Z2EhwOB1JTU9HZ2QmPxxPYI8KYtxFf/T9exV8/zVg8F87/4nn8zYdK4AqCMKERcScIQr/o4iWT58KwRfkD58Kg1W3B5fWLOCZTUOBR3GUqQZcRayAt2sQcJepW5Ti0sOtUSq663cLpWi/eveUelLAjMxK82DY/FxtWLkV8XByKCovUR6e4NODz+tDdPfgs4LHGy++U4p+++iRWz071C7tXn8cT/yU0Fk8QhImKiDtBEO7G64HlaoM5ZR6M6LhBWe8YM1cacK+mxZiBkihAuno+NcmmRR5FXJcH2lK3S4m6vbc9g6ttpzAtHx6dkYpVBSmIi41Bfn6B3lauXIWc7GxtwWtobNBCz263w2JLtEG1wBgLLMajT62Gs7UWDW47UuPjkLnkaXxhTRxKXv8QNwJ7CYIwMTEKpuWP19lNEIThxB6FqFmbYM5cB8SlBQbDgwY/BzebgVi1ZStBlxNnIi7KQFOXDzdbfWhQIrDL60+koDt3sOR46/H0vDQsn3b3Z6Vblla7quoqHNi/X4/tP7AfdXV1+vl4J/fZH+HfvvUYcp1KKL/+LLZ+QyLvBGEiI5Y7QRD6h5atjkaYmYUwYpMHZb0jjKWjaOtST5q7gaoOH261+VDebqG+y0K7Lno8yG4UIRR4y+FsKYPN8iAtrbfAM01Tx+DFx8djypTJKCoqwqJFizBp0iS4ulyobxjf2bUtZ3+HjiXP4tH8OKTaPfgf298PvCMIwkRExJ0gCPdAiTt3F8zoBBjxaTDU48NA7abdsF5/FwvG5PVtUzYo2FGj8hI81w6h6vp5lF6/htu3bytt6tMij8IuiM1mQ1xcnN74XlpaOnImT8bkyVPgjIpCdnY22traxmVs3vnVz+Av5qQCTefxP34q4k4QJjIi7gRBuA80u3XCjEmEEaeEg90ZGB8jMDawrQ7eC++h5dZ5NNRWobKyEmVlZWhuaUZzczNc3S6dTEFhR+tdKBR5Odk5mDo1V2fW0qKXkpKCmJgY7crt6Bg7nS6+9E/78Ivv/TW+ts6LH75+JDDaw1df+BZW59iBqoP4Hz//MDAqCMJERMSdIAj3xepqRWpKKmJTs9Blix20e3bIodu4sxnWrVNwl+wHujsDb6in3d3aenf69Ckt8FpaWtDVxdp3FtxuN6Kjo3ViRZCoKKe22nGbO3cusrKylBi0w6tFoalFIH/O53uIoMCH5Eze4/ja2mw4c+Zieefv8OsTPSVPNrz0K3zriVzdmuzgPz2LX58MvCEIwoREEioEQbgvFEJbt30c5tRF+KDKBnd0atilUYYFJeZ8VZfgPfof8HY0Kt12f+GVnJyMgoICXR5l06ZNSrDF66xZWvRCXbehMOHiwIFAAsb+/Tohg8JxdOrm5eIr29/GN1cm6leuqhKUKX3nzChCbooeQclvvoEv/9Ubd3ewEARhQiGWO0EQ7stnnv4s1q9fj5y0RBjuTpQ2e9XMEX7tu6FElzGhsLvwLrxNlQ8UdsTlcqG2thYlJSXYtWs3WpqbtUiLiorSiRb9QWFbUDBNu2vXrn0EUyZP1jF51TXVgT1Gkhac+PXvUJqQj6L8HGRmZCI1LRVJUS601FzGzh+8gGf/24dqL0EQJjpiuRME4S4oavLz8/GpTz2F/Lx8JCUl6eSH2/Wt+PBqHT6sscHlYP07e+AnRhCvG76y0/BeOwhfzVVY7sG1GqMlLz4uHoVKuM0tLobDEYXly5ffFZcXSltbKxoaGlFWXoYTx4/jdsVt7f7t6tKdXQVBEMYEYrkTBKEXsbGxmDlzJj75xJOYP3++tmrRbWm3mfB1u3D72gVcPnscXsMBI0oJPNu9xdCQYlkwOpvhu3kC3tIj8NWV6mzewUJB1tLagqamRlRWVeLatWsoLb2O9vZ2dQz8GbV9YWwehW5GegYyM7NQOK1QPWbqZAxaExnbJwiCMNqIuBME4Q4UdrNnz8amTZuxbOmyXrFoTEy4dOkijhzYh6qSc/B1talRQwm8GKV61DaceFywmsrhvXEMvtKj8DWUPZSwC4Xu2oaGBtTX1+P69etoamzSfyszZZmEweeJiYm9jgWteyylkpOTo2vl5eRka8GXEJ+g92ttbdViTxAEYTQQcScIgoZuylkzZ2H9hg1YuWJlYNQP3ZHnz5/Hrt0f4PTp0/C5XfA1VQCdzepdJfAcThiGEj+04g1lLJ4Sdfw3fPU34bt+BJ4re2G1NwA+b2CHoYcFjS9fvoxbt26hsakRN2/ehN3ugNfr1aKur9uWgjg9PR2FhUWYMWOmdmkzlo+JGnxuM20R1dNWEISxj8TcCcIEhyVBKFg2btyEzZs264zSUFgC5NjxY3j/vfdw5uyZwGgPhjMOtrQ82ApWADlztNDTsXja0jUIoUeLl8/jL07cWAGr/Ay85af9iROjyJo1a7BxwyadXMEs2+BxCy2pEgqza+vr61BaWopTp09pgcdjKRY9QRCGGxF3gjDBYbYoS4Ns27oN2dk52uIUCkXKe++9i8tXLvdfAoTixrBpUWcmZcOWrQReziwgOUeNhemu9XlhudqAqivwVZ6Ht/Y6rPZGWF717w4gI3Y4oZDjsaK4mz9vvo6/43HjWH8E6+LR4scSKrt378KuXbvEiicIwrAj4k4QJjB0xa5YsRKPbduGrKxJvVyOFCdHjhzRwu566XV0dvYUCe4fA4Zd/bwzXlvzjNgUmIlZMBPS1fNUgO3LGJtns/sFoRJrRrcLVnc7rM4mWG0N8LXWwNdcBXR3aJFndXf5rXhjCHavCCaZMJFi8aLFWLZsOSZPnhzY4254LBnXx+3EyRM6iaPidgWuXL0S2EMQBGHoEHEnCBOUjIwMLF68RLtip06d2stixxi7s+fOYeeOHQMUdndj2KL8Ii86HqAFzxGtxuiutcGiu5bijq5XT7dSP11KzCmRR0GnHscTFHVTc6fqkipTc3O1y3b27Dn6sT9YOoXHk+3R6LK9eOECLly8MEqFkQVBiERE3AnCMJH7xDfxnT//HFblJ8IZ0E2uxhIc/M0/4Nt/N7pdBCjslihht27dOkyfPiMw6ofZoReU4Hj//fdEdIQBj2nuFCXuHH5xl5eXp0UfS6fcC4roCxcu4qI6zkzc6OxSok8dfxZbFiYWG76/D689lYuWQ9/FwmdfDYwKwuCQbFlBGAZyX9iOt/7zpzAz1Ql7cxlKymrR4I7TXQXyFz2Gx5d0YOdvT4xKNwG6YulGXN+PsOuVFXvm9Kj2Uh1vsHQK6+WF9rQlTLgIHsdgIkYQxu3R8rdw4UIlApN1B4zklBTd09Y0DV2LTxIwJgDPb8dv/2QunOqpq/xD/M9fn/CPC8IgEcudIAw5X8PrZ7+OxbF39/os/tp2bP/L1UhELfZ8Yzmefz3wxgjwoKxYCokTJ47jgw8+6DcrVhgcPM4sLZOfX6CTMZiAwe+hb+JKKOxpu3vPbuzetQtt7W3aesrEDBHbEUjeC9j+q29ile4PDLHcCUOCWO4EYaj5y2/gO2uyYa/9EP/1mf+Kg4FhUnvk14hb96dYnp2IOPMGfvzW5cA7w08wK5bJE1OmTOlVlJe8/qv/wI6dO3Hj5g0REUMICxozcYLC+dq1ElRXVSEhIQEpKYG7eT+wPl5RYZH+vmjRczjsOsuW3TOESCIXX/nHV/CF6UDJlUqkpiWJ5U4YEnrP7oIgPDTb8hIBl1qBXzuIXwbGQml2+XuhOuMy9eNIQFcsLXYsd8Ks2FCrES12//6Ln+PQoUOoqamWGLshhhY3HmOKvEuXLmHP3j34n//fj/Dqq/+EU6dOBfbqDYU3BV5CQiJWrVyFz33uD/D8H38Zf/C5z+t6e6FZzcL4JfdbP8LXVybCdfJVfPnM4HokC0J/iFtWEEaUXHznrX340hyg9oMXseJP3giMDx8M7F+zeg0WLlx0V1YsuzHs27dX11+jK1CE3cjBRAsmXPD7YQIGrXNTpuTqxIz+0L1wW/y9cG/euqWFIhMxJPlinLL5Zbz7/34ORa4D+O6nnsWP/+w9XP9MkbhlhSFBxJ0gjCA60eKlkYu5o3B4ZO06rF27VvdCDcLg/+rqapw7fw47d+7QAkFcsaMDkyzmBEqn5Obm6ri8XCX67lc3j1y9egUXLl7EtZIS1NbVagshW6bxcVzBBBObAyZrINpZLsehy+Xo8UC3Esvj9vcSdnfC8roDPzie2YiX3/0Rnil04eDLj+PZV8uA74m4E4YOEXeCMFIEV+pOf9D0E2oCH85yKGxov3XLNqxevbqXsKMFiFafI0eP4OzZM6iqqgq8I4wFKOqYzcziyCySzKzZ+PgEXTy5P5idS6Gni06r75RCncWSB1ObcKTQAi4qFoba4FSP0Ykw41L0o6ELXUcFxJ1acHi6/TUQO1vg62iE1dUCdCuRpwtdt49655LB8Mw/HcHLmzPQ8pEScn8YEHIi7oQhRMSdIIwEm7+Dt77/HIoZjnftF/jTrS9hT+CtoYZZsRQCz37hi0okLOsVuE+rzpUrV/Cb3/4aJ0+eDIwKY5FgAowzyol58+b3yrS9H2wXt3vPLpSUlGg3O0upjImethRrpk0XtzbjM2BOmg4zowhGWh4QnxrY6QGwDV17Pay6UljV6u+rvKAEnhJ53m5AW57H/u3sjvW+fAeeX/+nPfOAiDthCBFxJwjDTO6zP8K/fesx5Dop7N7AN154EW/eDLw5DMTGxurg+wULFui4rmBdNQq70tJS/OQn/4qrJVclvm6MEyxdw0e6bCnuNm7YpBMq7geFHDNrKe5omXV1u8ZET1szOgG2zEKYUxfDyJ4F2NUFYbJjian+2DBy+2ip83n97lpa7m6fg/fGMXjrb/q7nYxlgmVPEsvw5p+uw4sfBMaJiDthCBFxJwjDyIaXfoXvPb8YGTag5cJP8OIT3x42ix3LaxQXF+MTH39cu/Yo8oLJE3TFUtj9/Oc/Q+mNUv1aGF/QGks3LRMuli9broUfi1DfKzaPblkWpfb5rDs9bY8ePaLduCOJYY+CLWuGEnWLYChxR9crXbLakvewUOh1tcGiu7amBL5bp+CpHsP9ep/fjlPfYsztALj2C0zb+lLghSCEh4g7QRgmNqiV+I/UStwJF2o/+AE+8yfDF2NHC92ihYuwefOjmDVrVmDUD2OwaME5dPiQejwrFrtxDgV7MOs5Iz1D97SdM3v2Xd1G+kJRV1Z2S1v0ysrK9HkwrO3lDBNmYhZsufNgTpoFIyVXKdQByZrwocjrbIZVWwrv7bPwlp8dm/F4T72M1/9kSf/iLjEXRZOcQGMZSmpdwI03sPVP/yHwpiCEh4g7QRgGQoVd3y4VQw0tduwTu2HDBhQXzw2M+qGwY/Hcffv26UK6QuRBSx5LqVDU5ynRl5ycgsTERF0nrz94TpSXl8Ht9tzpaXtLib5gu7ShwLA7YSbnwCxYBtuUeUBcqt8FO9x4lChqrvS7aW+fh9Va54/HGw+IW1YYQqRDhSAMNZtfwb/+1WqkmkrYvf6n2Pp/7BiWHrIsdMss2Pnz5uPRR7dgzpw5gXf8NDU14dixoyLsIhyWtaFAO3PmDDo6O9T33qytcV6fv11ZX5EXFxeH7OzsXj1tGddnqf8Y20d3Pt32g03AMBxK2KVOgX36WphFqwG6YcOJqXsYKCBjkmBLzWWQKSxXG9DdMfYseP2x5Tn8xZxU6VAhDAliuROEIearv7iEry916ueujntXna85+F2s/5OfBF6FB4VdfHw8Htv2mO48kZ6eHnhH3ccC2ZG7d+/CB7s+0LF2wsQiKytL97SdM6cYa3VHiygt3OjKDSbY9IXniU7AcLnw3vvv6Zg9nkdh1c0zbbCl58M+Yx2MaSsDg6OExwXf1Q/hvbof3uZKXhiBN8YoYrkThhCx3AnCkPIcXnzpUeQGSpLZHfZ7bkbNwUGv0Gmx2/LoFmxT4i40I5bwhszsyHff3Yny2+WjXwJDGHEozFi/8MKF89i3dx+61TnhcXu0Fe9e9fLoyp02bRoKC4tQkF+A7EmT0NrWqi3AA8WWpoTd9LUw8pdpoTeqsOxKQgYMmLAab8Oiy3YsI5Y7YQgRy50gjDPoTmM7MVrs/EVue1xevBEfPnwIO3fuRFV1lRZ6wsSG5wfPk5iYWCyYP193LWFcHl2y/cHFAMUhN8bhXbtWgjNnz6CiokInZdzLkmcmpMM+ezNMCrvohMBoD5NiTSxIt2Fmqg1RSvcdrvDgfIMXDa6B34Li7MD0FBvmqd+T5DThVL/HVOsan/oVbq+FFqXfylp9OFjlRqeHf4tPXRSV8F4/BPf5dwO/RRAiH7HcCcI4gu2pVq9ajdVK3LEDRajFjoHyjLGjK5YWO8mKFQjFGuPyWlqa0djUqM+N69eu4caNG7r2XVJSIqKi/GEEhOcUy6ww9o4FsOnyz87OwbSCaUhPS0dKaop23fJ3hmIvXAHb1EWISspAstNAdoyJqYkmipJsWJhpw9IsO+YqUZavXmcqodfQaaGiXQky98DE3Rwl6lbm2LF0kh0z1PPsOBOxDgPRSuClRpvIUq8z1O/lY06cDUrrocNjoNt0wnBEw+hqga+9QR2QcRB/JwgPiYg7QRgn0GJHYbdy5SpMmTIlMOonNCv2mrpxiytW6A8KMta8q6mpwfXS62hpbkZzSws6uzrR0d6hrXV0z4ZCVy4FHs8/JmLk5OQgNTUNcbFx+jxrVT9nS5kC28z1iM3IRWGqEyuUkJuV6rfSzVRCbI56pKhLVKKPljZyu9WHW20+NHXf/1zl/hRyG6Y4sET93snxpvp3gZstPpys8eJqkw/l6vd4LAMZMQZSlajMTVDCz26g2WWhyW3C54iBEaU+b32p3z0r14cQ4Yi4E4QxTjArdv269dpi11fYSVasMBiYSVtdU43z58+hproGNbXVqKquhsPu0O85nc47RbAJLXpM4snMzMSsmbMwdWqetvB1eZRozFkCZM1EonqfFrpH8xzIijOQEGXArtQZ3bAO9Riay3FLibMbSuA9SNxF2wxsUsJukfq9ydGG1mU1HRZ23nDjwwoPrihxd6nRh1b1e9KiTaTHmloQ0jrY7bNQ12mhxWuHEZesLpYqWLTejZfyKIIwSETcCcIYJpgVy+QJxtjRFRskGBvFXqK7dn+gLXaCMBjqG+q1m/bSpUvYf2A/3B43UtWCggKPQo/nWqjQI7TwFU2fiemLVuFw9yS4bdGwKfWWqgRYshJZ1UpUlSrhdb7OC2o6CjMKvSADEXdK1yHFaeDzs51IUo/8abcSbKXNPrxR6taxdkHquyw0uSwsn2TX4o5CMtVpostraeueGoHpiIav7gYsV6v/h4SxgaHOLZsS4DaHf7NH9TwGn5t8n9neal+eCGJ8vS+SUCEIYxi6wzYpUcesWIq80OQJuthe+5d/xrlz57T1LqySFYJwD4Ixd1FRUVi4YKEuqZKWlt5vT9vyhjb84tB1nPNNggfqxqvGHOoUdShVRgsbJZVPPfl4vgPrpzi0JS/IR2Vu7Lnt0QLvXqQpQbg+x4HN6ueZPEGq2nw4UOHB72/enSw0LcmG/zTPqYUkBR4/w8FKD359tdsvIn0eeA/+G7zlZ+BjBwth9GH5nKQcmCk5MBIyYcSlwohOgM8Z4xdyjJF0dwOsWcg2c2118DVVwNtQBsstbRTvhVjuBGGMwhgnumJpsWO5k1BhxzIXr7/+Hzhx4gRaWlpE2AlDCs8nJls0Njbixs0buHz5Eo6fOA5XV5cOEQgWRq5q8+DtkjZ023p6xTKRwc37sdo8auNrZrgWKOHlpCkuwEAsdxkxJjbl2nXCRNDoV9th4WK9F+Xtd4vCRCUei9NsSAjE9vEjuTwWmpUGqOhQ+xsmDCUSrJYaWJ1D15FDCA9TiTdbRiFs01bAMXsTzIIVMHLmwEwvgJGcAySkw4hJUVuiEnpJMGKTYcSrsaRsGOn5MLJnw5wyD7bUqTCjYtSJ5obFYtXCHUTcCcIYhG3ENm7YhCVLlt6VFctuBHTDHjx4UJeqoNtMEIYDCjxaiFtbW3XSTn19vT7/aCmuqG3AyVv1uOpN1y41pZz8P9QPTKoYnLgzsDHXAae9J16vSom6Cw1e1HTe/XMUd7NTbUgJEYMUly3q32BcnkYtknyNZbCaq/yvhZFBfYGmEmk2JcxsBctgTl0MY9IMGKm5SrilwnDGAxRq9ih1Pjm0Re/OxvOL4w61qHDG+UUfLXzxaTASs2EmK9HH8js+t1pVMGFG5kQRd4IwxmCP0E2bNmHZ0mW6b2gQ3mAvXLiAvfv24ujRI9qqIggjBePuKOoo7ij0btW14VqbHd0pBerdews7Mlhxx+SIdVPsSo/1/FxVOy13vn7r49HtO0v9W2mBpIogzep+f6rWb91mezSrnuKuQrtpheGHpWhs6dNgy1usNzOnGEbKZCXo4vzi7QHnT7+wpR2zoCnyEtUCOCEDZgwLupt+d+0Ed9n2+HkEQRhVGLCemzsVj237GJYsXqJdsYQ3VVpP2Dv017/5Fd5//z1tQRGE0aKsrAwl5dVoNdTNeZigOLOrzRaq0hRMovAwmK4fOMwM2VCYxBFNw2IQu1MXXDZikgMDwrChhJuhBJeZNQP2WRthm7sNRvYsIDo+sMMQwaSL1FyYMzfoQtr2KfPVd5ypEzEmKiLuBGGUocuVweu00n3pi1/CokWLkJDgr/BPYceCsZcvX8avfv0rnc0oCGMCuscSeizLQw0TM2JCRVkASrc++u0OwfdC36axkL8rFMZwmSyNIgwfhqktafb8pXAs/jSMvMXqyxgBsZU1HfYFn4BjzqMwk7IDlsGJh4g7QRhlaKFbv349vvt3/wXz5s3r1fuTpU4uXryIf3r1n1BRcTswKghjgKhYIDYl8GLo4c2Jlrv+uMewpq9Rj/uGhKxqGJ9lOO9ukSYMHWZ8OmwUWMVb1CSXFRgdGSwmYUxbAbsSlbb0/Akp8ETcCcIowszDRx55BJ984kltrbPb7dqSR9jH850d7+Cn//ZTNDY2SEasMHZgTTIGtzt62pYNNbwM+ooywtIqTJLol3uN98WhFlAM3heGHlrsKOyKlbCbulC7ZXV83EjCE8euzs2MfJiLn4Itc5qOtZxIiLgThFGCwm7t2rVYv25Dr+LEhDFNBw7sx4cf7lPPb4mwE8YUho3FZdXNchhv2tRp99Rw94i5o5muP0F4F0yq4OcXhhZ1PjBJwjZ9LcycOTBo2R1pYRdEnQiGEvFmWj5sMzfCTJ48oWLwRNwJwghDy1xycjJWr16NR9auQ15eXuAdP7TYHTp0EAfVxueCMNZgtwBwG0a8PsDdz5qG2s28h4Lzv+d/DGKp//rG6Fnqs0fHxiE1NVVfi6GlhoTBYzhjYZs8F7b8JUrYpfJECbzzYBgXOTXBxNJMO9bm2HUvYZbB2aC2RybbdeeR6ck2RKn9wvm2DJsdJj9T7kJdK2+iIKVQBGEEYeX/rKwsLF60GB/72Md79YllvTpmwdJaxxZQ5eXlgXcEYWxh2KNh0uWVNSMwcn8GUwqFo8lOE6vUjT4U9pUtafL2+3MshVKcZtd9ZYNJtiykzPIpx6p7lKLp7cbkGC8WTk7A5MlTdJxrRno6kpKSdVu1hIREOJ1RiIuL0xuvW4ZMMKPd45HyKf3BNmFmWh4cxduAMBIZ+D2lx5hK2BlYme0Xdouz7JifYcecVBvmpdv0Y2GyqTuWsJdxsFD2vRJreqP+AS5EopOAzmbd4QLeu7ubRBrSfkwQRgjeGHKyc7B16zZdx44ZskEo7Nra2rBz5w7s2r0LdXVqAhKEMYrpjIdt1gbYFjwRGLk/T0xzYFNu+O3HKAq/vkQJyZ4fw7laL35f2o0rzXf/3OR4E88URWFmmg32gNGo3W3hdI0Xr11w+QcUUe5WPJoXjc8v7h0OUV1drWv5sfQQwyGCVNdUo7GxCZ2dHbh1q2ec1y1DJvoWEr/XeCRjS82FffpaGDM3BEYeDL/XeIeBj+dFYekkm24bFyxn06rEe6vLQqw6ZxLUPtF2f9cRlxJ3e/W540Ztl3VXAs39sCrOw3t5LzzlZ+jbD4xGJiLuBGGEYI/OzZs263ZitASEuoIo5nYrUbdDiTuKvIl0UxDGH7TS2FhTbMnTgZH7M1hxV5Rs4s8XOBHrMBlCpblU78W7N9w403C3zzY3wcSzM50oSDJhC4i7ug4fDlV68NvrPdYaZ1cjHs2Pxh8s7bGcE153wWsvNM5Vj7Prgbpbho5TDJaWlqJGib9QKAY5zvcnBKbN30ps0acAJlAMkFSngTXZdmzOcyBOCTh+x81K0LHg9G9KurX1ll/7alr0JtuRo8Q7x7rVV/Afl104qfZrvk8R7Ltgb+FrB+E5+QasrtbAYGQi4k4QRoAZ02dg3bp1WLFipY7xCYVxdUyeoMWuoaFBhJ0w9lF3Ydv0R+BY9lnA1mOBvheDFXeMwfrSrChMTVLiIfCjpU0+7FI/e7DqbvdofqKJP57jRLYSAUFrX0mjF+/fdONYoEMFSfE0YYsSd08snBwYGRxsz8ZyRd3dPVZB4gqOu7oDI/5+0F1dXWhtbUF9Q08R8p7x1nFbnNyWMQ22GetgFizXQm8gRKvd2CruD5QYT4n2W+XIqRov3rzWjVttPedFshKB66c48IkCx539ylrUfkqwU+CFg1V7Hb6Lu+C+cTQwEpmIuBOEYSYo7BYvXtKrnRhhViyTJxhjJ8kTwniC/UG1pWYAQeqDFXe8qa/MsuPxIocSA/6fbei0cEQJu9dLeoQT4bszUmz4s/lO7crja8ZkHa70aCtQaLuylPZyrMr0YcOsSTBNU1+XfBxOKN7cbrcuSt7e3h4YDYx71HiXCx0d7fCqxV1dba1+bGlpQUdgXy76autq9SN7StN1PFZwsPvEzPX+WLsBMjnO1IkSj+b1ZLDy+9pX7sYvrnTrmLpQ1uTY8bkZtOL6X3vUzu8ocbdXnUP3a2F3F642+MrOwH34Z7AiOPZOxJ0gDBOMsZs6dap2xfYn7IIWO2bFUuQJwnjCljMHjrmPAZNmBkbuzWDFHePmJsWY+N+UYMuINfVrZtBebfTipxe7Ue+iu9S/b4oSgkuVEHxmRtQdF25Nuw+7yj14/1bvm7iz/Dgmd5UiPzkKNiXq0tW1ycfY2Dg4o51w2NVnDXSJIUyqcDrVuKP3+HCgRZwSd3xsaekRcb1FX7MSiB3wKFHY0uJ3L9IiGEz2oIikaCQUiMOZBGLGJsO+4AmY01aok2LgpUbmptnw8XwHZqT2WPq6vRb2qO/rl0rc9YXZsk8XRSEtpuccYizlbnUenevHRX8/rPqb8Bz8KbxN7C8c3s+OF0TcCcIwwJvApKxJ2LZt212uWE7adL8yxk4sdsJ4RQfQz1gHQ22hUMClRxt3Yt7I2hwHFmfaEOvouTGfUTfmk7UeVHb4xR3j29uVBmvo8qE7RO/Rffd4QZS+udN9R+FW32nhw3L/TZ0xWhR9M5JtWKP+nRmp/n+402Npq91HfQWkupl7z/4ensv7YHW1BAb9sPYkxVt0dHSv2pNpqRxP7DUeHROt/kYb7A47nCHJUdHRMdoKyDkgNGlqOKA7l25d4nfvdurnerw6ZLzT30Tfq/52uou5hdYK5JzU3/hAsE9ZoAsWGwPMnA6yTAnxTxc5tGgP4lLfGcXa6yV3W9SWqPPnU4VR2uUepLbDv/+7fcT7A2mrh+/Sbriv7IXluVtIRgIi7gRhiLlfViyDsbmSZvN/yYoVxjNmbBJsUxfDtuwZdSfpueHypv1koQNJIVY6h80v9npG1LWg7jx0rSldoaEb7kytF+/cdKM6IPiCsA3ZHxU7UZzmF4iMu6IF73qTF5eUwEtU/9bMVBsmJ5haJDLb8kqjD++q33Wxj1XH6myC5/iv4b1+ODAyOGiVZwmVlJQUZGX2tNfKzVXjsWo8WY1n9YxzXrCpg2D0qf3mH7ep8dCjMzzQClhaWoobN0p7JYbocTVWWnpDjfutfJY6hrQSqme99qX4oxjkI8ed8z8BY9pKIDEzsMfAWJXtt7KGWnO1uCv34PWrdwsuLg6enBalv+MgFPC7yzz4dR8X/QPp7oBVdRndB34CSz2PRETcCcIQc7+sWJZX+Lft/4bLly/rVTInSUEYl6jz2swohHPdV2CFtJhinbLPzYzSpSuCNxfjHncZPRy4PFi0mJmwjKW7HRJMH4QlM5apGzzr3uUnUQz5f4Yikb8iWPqEJTT23nLjaI0XtV0+XecuFKvsNDwX3oe3+kpgZHAEBRm30Hg9jvMTmUqBho5TDObnFyjR1zuhimIwPz9fi8ThJijIQsUa6W+cJWFo/fN6vL3E4J1x9ZpC0Vz9x7BNmacUfLR+f6CsUIuAp6dHITXEzdoVsNz9qh/LHRcNT6lFQ2ZczzH1qs9Ncffvl8MUd+rnKPK7f/dd9djbehspiLgThCHkflmxly5dwo6d7+DkyZODcn8IwljDTMxE1LyPAfnLlKrxx1slOQ1kxvRkqw4UXg0dbgu1nT64emsPDX8drTxMsqDQo2UwR93oOUZRUNNpoU6JOda1a+yy0KIe+wo74qXV7sZR+NobAiMjA126tPSxGHIodONy3BEYN5U4nDx5srby+d3B/hg/isacHI7b7riPhxPG6TH5g/MU3b3B+crt9ugsYb5/9sp17PVMQ70Rfv/Y+ek2PFHgQEFyT8wdLXeMufuPfix3LIfy2ekOJDh7/h1+IorBn10ahGvV1Q73nn+Er/5WRLpmRdwJwhCxUgm65ctXYNasWXclT5w/fw579uzB8RPH7wQ6C8J4x4iKgS1rBuyrnwOccRzxvzHMUDgye5buWMbk0aXbpsRcuxIH/Qk6DevUNVXCffSX8NVeG7OZkrQEJiUlaatfbGysFoWh43TrxsXFwumM1rF+qUroEQpBdtUgDAVJVa8JheBwxP65PV4cunATb1bHosoVfs/WvAQTG6c4sHZKj9jld7en3H2XJS7ebmCd2u+ThQ7YQ1YNFC97lLjbPhhx5+6E98i/w1N+DparLTAYOYi4E4SHhCvxefPm4eMf+wRmzJihJ2TClS5dGBcvXsTBQwf0I0sYCELEoISGGZMAx6ovwcgsAhwxgTfGIB4XfBc+gOfqhyNutRsuKNoo3gjFXVDERSmRFyruKAIpBmOVKDTVd+YXiX6RFB3t1FnCoaJyILjcHvz+yBXsbUlGvdcZGB047DpB691nZkRpSyw/DsUIk2B+fbV36Rpm1lIILsjssfKRhxJ3PB/O/A7u64dhdTQFBiMHEXeC8BBwVV2QX4DPf/4LOtYuuMpmPAotdEeOHMFbb795J6NNECIOmwOO3Pkw5z4GI3ky/YqBN8YQXjeslhp4DvwEvqYKWN7Ic8M9CLpxKfTo1p2cM1l9TX4Rl5iQqIUg3cA5dAcHvj+Hw67dxcE5LYjd7tDjlmHDTz84iVPebLQa/gVtuGTFmni8wIGFSrTREkuBd7PFh4MVblxs9OmkmRg7sCHXobNlY+z+fYIw3pLi7ufhxtwRT7fOmPVc2Qtf2/gsHn0/RNwJwiDg6par5MLCInzx2S9qYecPpPZb7GihO336NF77l38eU8VGBWG4cCz/HMy8xTBieseajjqMFWuthe/yXriv7ovY0hdDDWOGOa9NzZ0aGPHDcSaGZEzKwS/2X8YFYwrazcGJO3pYk6NMfHlulO4LHMNMaDXOuMnrzT4dO1mQaCIt1oBDvUFdx8zrIDoBo9yDX/UTo/dA1HlgleyH++IH8KnzI9IQcScIg4AlDjZt3IRt2x7TK9ugsCONjY04evQotv/s3yRxQpgw2NLzYZv/CZhT5gdGxgidLfCVnYb72C+VsGOcnVyPA4FuWs5roXMbYcwfrXy2qGh4chbBmrkR1gC6lNwLHT9pN7Aiy4aV2XbkKTFnU/82rXIsUE0pV9bq1YIvM9ZEVki2LMXf7nI3fl86iPhJWu6uHdCZ05Eo7mwpKcl/E3guCMIAYBFTirpHHnnkrhiVq1ev4P3338eevbu1yBOECUN3JwyvG0ZULIyE3glFowbjqiovwntlH3xtUlMyXFiqKVgiJbgxS1a3UXN7gIRMIKMIhk6mGRyU2kyIaVBC7WqTD0ervThR48H1Zi8u1Hl1ezGOUewVJfcuhF3XwXqGXty8T5eTe8LOFHXX4asrhaXO3Uij564kCMJ9oYijxY7FiVcsX64DmEOhsNu3bx8OHzksMXbChMNSQspbfRXe0iNATUlgdBRRQtNXeclf9qRRusAMPUptdXeph37q1gwQFqdOizZ0j1nWR2QJncZOHy40UOB5cVxtLEJ9S4m3TqUlnfyBENidpFmJwsGhfs6tRB2zqCMQEXeCMAAYQDxzxkxseXQLVq9ejcyQivRczZaWlmKvEnYsdcK+kIIwEbE6m+GruAjvtYOwaq/7rSMjDm/aXbCUsPOVHoZPCU4KT2GIsSx/+7aH+I5Zo5DFjJkJq7dcu+40wq+wuTtQq1A9Z5gdhR3dt0Eo6ao6fKju4LNBoD6/r7NFadPh67s7moi4E4QHQGE3rWCadsV+/OOf6GWxo3uisrICH+z6AIcPHxJhJ0x4fB2N8Nw6Be/lPbAabupWTyNmHaHQ4A276hI8l3bDq4Sm5WoPvCkMKRRH7Y06ds0vtcKHBalZv25KgomUGH8LuVlqY5mUUNKiTWSq95lUEaRNib/bbZbuQjIo1DlpsSTOGK13+LCIuBPGMWoCYFV0bkzfDz4fwkKqrGFHYbdly1asWbNGtxMLQotddXUVdr67E7t379I17QRBUPdNVxs8N47Be+LX8FVfhtXVOuxWPMPywuhqhnXrpC5U7FUCL1L7ho4JlDjytdfrTg+D/W4datpOijZ6dTNhweKMmB5pQkG3IN2GeWk9iR1MtLjS4EVVuz8WL3wsbbFjIsVYLWb9sPQcQUEYZxj2KBgxSTATs2BLyoZdbba4NBgOZ0DkPTxzZs/Btscew/LlywMjPdy6dQs7du7Erl27tAVPEIQQ1A3fU3Md7sM/h+/sO7AabgXeGAbUDTq69TYSbnyI7hO/8VuUhllMCn58LVUAxfsgYG/g9m6/WCN8ZGLFzdae726REnaLM213espyn8Yuny6Bcr1lkFY7WhvV57ZcSvxH6HkipVCEcYHhjIeZlAUzOQdImAQjPtXf7sjmUDouJFWfpnZerN3tsDjBc2XWXAmvurGEeyEvXLgQmzZuxrx5cxEfnxAY9cPkCcbY0RUrFjtBuA9qoWVExyM+pwiJ0xagK2EqOuImwXroBZgFw+1CltGGlQXJSHQ34tSBD3Dko92B94WRwF64EraZG2CkFwRGBk56tIHNuQ6sV1uUmsYp3G63+XClQc3j6r/MWAPpMSZS1X6Mt2NdOxY53nHDjZJmJlkMUr50NMF3/RDcXHS4uwKDkYWUQhHGLkq02dLyYJ88D7b8pTBzF8CcNBNmej6MlCkwEjJhxKXCiE0O2VL8Y3FpMOMzYCRNgpmq9k2fBlt8Ggw2N6cZ/j4B1nTFzi2ei82bH8WcOXOQmJgYeMdPMCv2xInjaGiIjDZGgjB8qBuwut7yJ6Vi/eK5WFQ0BclmF+yuNrg62uCm+cY+wPZVPg+MzmbYW6qQ7qnDE/OzsTQnBvNz4pGbGovYKDva29tR31Cvy3gII4DlVXNsHozk7MDAwKE2a3VZiHMYSHQaSuAZugtFRoyBnAQTk+NtetyyDCXqvDhY4S+LcqXJh+7B+WM1jLXzsQ0d69tFaLasiDthzKGbkSflwMyerUTdEtiUqDOUqGNrI7phod73x9jdJ7aO7zucMKITYMSna4Fn8pHCzxkPwzRhsEK5r7c7lckT04umY+u2bdpiFyrsGGN38+ZN7N6zRws7SZ4QhIHBfssL5s/HlvVrMXNKOjIcHqRHA5115WgsL0F3QwXAFlC0trPPpxJw6FSPfM36dHShNZTBV1MCX9UlGGqLbbmJ9TMnYc7UTCTHxyAmOlr3Sa2vr8f169f19SqMAG6XDo2hZwWO3q3KHgT1WZvbQms3H/2lTVis2O2ztFWurNWHEiXkrjZ6cbrWixNqY1mUh9B1/kzq+hvwluyPWKsdEXEnjB2UWKN4s2VOg71gGcyZ62CyGTkFnc0e2OkhcMbp1aWZooQerXy0KKiJSfeZVKu3YFYskyeWLVumXwfp6urCjRs3sGfPbl3HTix2gjBw2K6KtSFnz54NU13nSQlxyExwovryCdw8/gHaS0/6Y/Iay7WIA8Mo1A3YV3cdVnUJLBYiLjsNX9kpeCsvwdNQDldzHRLi4zB1ai7i4vxFdBn7yuLhVZVVujuMWO9GADV3mox/ptdEibxw4TdU12UpEefFjRYfKtv8WbClzT6cqPbicJUHZ+q8KG/zoWso9HprDXzM5lbnUSQj4k4YGzAuxxmvRN1S2GdvhjFlPgyHElf3s84NFlr0kpTIy5mjLXhWWz1sPjemFxbeyYoNbbnDiuzXrl/Dv/7r/8KJEyf0TUMQhIGzZvVqrFixEvHx8YERoLT0Ovbv349r164BXo/OqGUXCV9zFXxNt3XhYTb5Z8A+szJ1SRNfT00yXqNTp05VwjFfibt4XWScrQBzc3PhVb+v/Ha59HUeKTxdamGeCDOjEOqLCAyGB41xHerrrVVC73a7T2+sdTfYsLp+8Xlh1ZT46zAOMglkvCDZssLoo4SdLTETjiWfhlm8FUieHHhjmLE7YE5/BFGLPoV565+4Z1bs2bNn8fOf/0wXKhZXjyCET3pGBjLUFsqRo0dxq2zwGbS00jFTnRnrzFwXRg8fhbkSTVbF+cDI2MRSCwbWPvQ2VQZGIhcRd8KoYtidsGXkw77kaZg5xTCiE/3xciOCoQReFJA1HVVJs1FlnwSjj/v30OFD+P07vxNhJwiDhL2Yk5OS7/Rg5nVEMXb1ypWH6r9sWRa6u7vhcnX1ujZZi3L16jVITk4JjAjDDgsaN9yC9/phGB3qOx2LSQruLviU+PRWXRybn2+IEbesMGpQ2JlpU2GbvRlm9iwgKm7QJv2HwuaA23Tq3oWWpxv5qTGoqanRSRMffvQhLl++LK5YQRgkq1atxoIFC5CS4hdbDHM4d+4cTpw8gebmZj32MNCCR0HH5KekpCQYhqETOKqqq3RyhbhmRwi28fJ26wWykTpVzeVDECc9hFi3z8B787i/z7ASo5GOWO7GK3kvYPvJUlx/9+XAwDiDyRMsPpy3BOaUef4sq+GIrxsgXpsTtzrt2FPahn3nb2Hn++9rd8/Fixfl5iAIg4AiKzk5GfPmzkNWVk+gvc/nRemN0iFbMN2+fRslJSWoq+udvb582TJMzVUiQxgx2KuVnUmYAKPbzo0FGGdXdwPe0mPwNZTr1xMBEXfjko14+dWvY1Xv8mvjCt1ZImc2zLzFgC2KI/43woR6MN5hYEq8iRkpNsxUW2xIc+lwoMArdznxi2Pl+P2eg7h67boIO0EYJKwXWVxcrJMeaEkjdJ+2trbpZIqhtIa3tbWp39s7QH769BkoKChAQp8C5MIw4nXD11gJ76XdsGqvK4E3yh4P9XksJuRc2Qtv9RXdFm+iIOJuvJH3HH6060d4pnCART/HIixOPHmuttrpMicDhELOpjb2GnQGil0mRxm65+DnZ0bh64uj8VdLo5GfaPbqVRgOXns02lKmadFpxMhNQRAGS1RUFNY9sv6OO5Z0dnboMAfGsLK80FBx5eoVXLp06a42gCxCPnvO7MArYUTweeCpvKQE3i4l8Eq0wBoVaLFrqYHv0h64aU2M8OzYvoi4Gzfk4pPf2o6973wH2/KUsHPdu8PCWIddJ2xT5ukuEwOFoi7RYaBACbcVmXZ8PM+BL85y4i8WReMLs6JQlKwEozqbqemcNmCQxjs/tijdTsdMyvZ3tBAEIWxYqoSWs9B6kQ0Njdi9Z5dOhBhqmKRx5MiRwCs/s2crcac2YeTxVF6G99y7sG6egDUKCQy6TuK5HXBfO6g+zCgJzFFExN144fmX8bfPr0au0nUtZ3+CF//+OFoCb403zMlzAQq7MLJiZyjx9slpDjw724mPqcfVk+2Ym25iUpyJGCX6KOyCPIyu09BEGJ2gBOgCGImTAoOCIAwU1pujO5bWO8beEbpNr1+/puPjhiPznGVVjh7tLe7oGs7Ly9N9ooURxufRPb2ndJViTUIzojsbYIyAyDM6mmCVfATv2XfgqbgQsBxGfgJFX0TcjSOaa8/jze88joWf+jbeHI8xoXTHpubCzCz0txELA1ru2H8wyameqP81dvlwucGL+s5hmiwMU4nQYt22jNm0giAMHGatrli+UmexBqHLtL29Q8exsozJUMMYvrLyMpw9e0Zn5AZhUsXyZXfXrxSGnymTMrB8Zi62zEzDM3OTUWA2wOlhMeqhvoGp84ntJJWY85zfCc/lvfCy7t4EirHri4i78cJrz2L9ysfx4k/GdpHI+2FQ3OXM1Q3/wxVMNUrEnazxYneZR2+7Ao9sSTNsa7KEDBhpU3U/WkEQBgatdpMnT8aiRYu05SwIy57crrgdeDU8NDY06sLGoW5fCs3CwiLtIg7tPCMMLzwHVq1chWWLF6EoOwUbpqfi0fwYzHI0IKHlBqzmSl177qGgVY7dS+gCprXu8h54rh+Gt/4WrNFO5hhlRNwJIwNdM44YGNmz/fXswqSm08Lhag/eut6N92+5cajKg4uNXjR1W8NassjGPrRhxAYKwkQnLS0Ns2fN1uVPgoWLKbZu3ryhrWrDSWtbK06dPqVr3IUmV6SmpmLjxk3aTSyMDMuWLdfFpNkOjthMA3MmxWJqx1VEl34EX8kB+Cou+HsJt9YBTHjwuHDPAsOc6CnmXB1K0DXAYmu6aiXqSo/Ce+E9eE6+AU/ZGX+bOkHEnTAyMDHBpi1h6kJ3jKNM38RJMJKztZtWEIQHM2XKFCxevCTwyk91dTWulpSgqqoqMDJ8UEju3r0LDQ0NgRHoentr16xBfKAHrTB8MMaSInrxosXaehfE/73sVtsHKDt7AO7z78J94F/hObwdvosfAEqYof6WX7jRnUqRFtj42mIsXVOlrqFnlXwI74nX4d7/r3Cf+A08t8/B0lbAYVzpjzPkLBdGBlrt0gvGn0iKToChRKkZZoygIExU6AYNvamTixcv6G0kCPacDRV3xOGIwsZNm7QVTxg+GGe5aePdx9nt7sauPqLbcru0C9Vd8hFcx34J1+5/hOud76H79y/D/e7fw/3+/wP3e6/A/c5/Rfc7L6P7/VfQfein6D7/ATwVlydceZNwEHEnjAiGI1onU4xc39ghQq1C2e/WTMwMDAiCcC/okk1Pz7grto2WO24jQbDnLNubsXtFEFqTNm7YiJQUEXfDBS2kdH9v3bqtl7hramrCR/v362LTPl+o29Xy16NjMoS7C1Z3B6zOVlht9fCx+HDTbfiaK+Frq1Pjzdrlylg6i+5bH/tFiqXuXoi4E0YGu1Mt6SeNT/emMw5GfFrghSAI96JwWiEKCwsDr/ywv2tjU2OvJIeRgGVRyspuBV6pm51pKuGZrrtmZGRkBEaFoYSCbvOmzcjJybmTKc3s6KslV7WrfGDngBJslg8Wu0sENp1dK0IuLETcCSODXV3oFEjjUNwZdCnHJAdeCcI45oE9qZ/D9mPq/Wv32k5j+/OBXfuQkJCAGTNnIm9qXmDEDztH1FTXBF6NHMGes7W1w9hzdgA9vnOf+CZee/c0Ll4JHMMrl3Bq/9t45bniwB6RAd3xRf1kJTNL+pr6HtiVZDjqGwr9I+JOGH4o6OxRgDNeuznHHfzs0eqzC8K4ZgA9qfMWY0qgW5irw9XP1gxXTwm5XtBiN23aNH2TJ3SP0mpz6vRJVFRW6LGR5uLFi3fF+g1dz9kHH8/cF7bjrVdewIbCRDhbylBypQRlLU4kTirGJ7/9M7z1rdWBPcc/uUowM0M2lLa2Vty4eQPXrl8LjAgjhYg7Yfix2WHYowMvxiHq8yNqHH9+QRhoT+pP50JHl958A1vnzcLsu7Z1eP4nes+7WLJ4CaZM7ikbRCsNLWfXr1+/q6n/SDFsPWcHdDxX4+ufXw1qv5ZD38X6peuw9WNb9OOLvymBS71T/Adfx1f9O49rdCeQqVPv6gRy4cJFvP/+ezh16lRgRBgpRNwJw45h2GCY4RUtHlOozw+zpxirIIwfwutJvWpaBihXWspOoMw/NGCYIcuA+iC69MUeZkc2BkZGh6HtORvO8fwk5mgPdRn2fPPVkONZhjf/agfOd6insUVY/Zx/dDwzRx1LCua+0Gp64cLIZEkLvRFxN1557VksLCzAtK0vBQbGMgyEHc/BsAzwDTwVhPFEmD2pN+b7C86WXbmHea4fGF/FPrKxcXG6xlmQoOWus5MqZvQY0p6zYR3PWrToPz0aicv0QA95iXBSRaMZLdf1yLiFx/DRR7fcJe5orbt582avVnDCyCHiThh+fD5YTFsfr7BiulcmKGF8MvCe1M+hOJuPLXDOeQ+nLgSTKEpx8dh7eO1bT8Iv/XrDrMgVy1cgKbGnFiStdixYzNIXox1EP9Q9Zwd+PH+AXx5kMkcGNrz0K3znM/4EityVL+BH//I5FNsA14Ud+O5HenjcwmNIYRcfiGHkMeax3rX7Ay2shdFBxJ0w7FDY+esSjdNMKabiuyd2n0JhnBJWT+o5yNDJFIkoWlkEZ2OJPwGg0QVnShE2PP8KXv/XF3oJPFrAWNdu8ZIlSEzsySxoaWnByZMnxozVZsh6zobZ4/uXf/I0vr39PGoTF+NL33tbC+W927+JbXlA2bs/wJ8+8d2w3d9jBR6zgvwCfQyDSTSEx3jX7t04d/aczpQVRgcRd8LwQ8uXW4m77g71fBz6NylM2Q5HECKZ5zLhZAiZqwRvvrgOs9dsCSQAzMLzr57Q7seMtV/H339N762JiYlRN/dpyMnOudO3lYKOBYsPHzl8VyLDaDFaPWdzX/gOvvKZYmRQOzYGsmWVWAacyN38HL720ka933iD1lp+55s3b+5VrJjHlsf4tDrWPObC6CHiThhWWDiUE2e0wwazvcEv9MYZunJ6Z1PglSBEKD95HuvnFGDanC148a3e9qQ9L7+In570i5LF277pH1RQ3NF6E2r5amxsxNWrV3Qiw1iqa6YTPEay5+zal/HPf7kRuUoxl/zmxZBs2YBYtmVg8Qvfw2ufCew/jqCgYxeKDRs23kmiYekb1hQceLFiYTgRcScMK6wEv2nTJnz2yU8i0WqHMQ4zE9jyxtdaF3glCBORMvzgZIn/6ZRifMX/TIu7/D7ijnFWR44eDbwaO4x0z9lPPrcJRUyauPALfPmv3ujlft3z8tN49RjFcgZWfTbEFDpO4LHivB5q8aQL9uy5s3e5v4XRQcSdMKRER0frIqHPfuFZvPSN/xN/8Rcv4vFPPIG5s6djYV46HLbxd8pZnS3wNVcFXglCBDNvI7at7C9tQlHZ3CszlB0pGK/WN2atqbGpV9uvscJI95ydm+1vcVZ2Y2e/cXU/PHQe2hY6qRir/EPjgsk5k7F40WJ93EKzo8vLy3Ds2FF9jHmshdFFxJ3w0LBZODOmPvuZZ/BHf/jHePrpp7FmzVosWLAA04umIysrC5NSk7ByRg4cBsuKhH/hm2oOmZFsw2enR/XapifZ7mp6sTrHjk8X9ezzqUIHChJMOAcYM92LjiagtVY3tBaESOYr20/j+m9fwyt/9UxgpA+FmbogL1pawHQCxlwtXLAIsbGxd27ytN6wl2xXV5d+PRaRnrODh4kTc+fOvasTRVlZmS59cu2adKIYK4i4E8KG1jkWLF2xYgW2bt2Kbdsew7bH1LZtmw6wZaV6TpLMpAsSHWXH1LR4xLoaYfrCD7K2qZtHrhJoG3PtvbbJaqyPtsPcdDvWTenZZ91kB3LjTURRIYaJ1VwJq0mt8sdrpq8gDJAfX/Dbl5wzV/fTNSEX35lfpJ/VXtuD00rQ5RcUYNasWXosyM1bN3Hz5o3Aq7HJvXrOzpo5C5mZuj/HkLD7hv945hY/069l7pl5ubpgtKu2BAf9Q2MeiuCioiI9/4fCYsW0iI5WJxLhbkTcCQ+Eq3KuzmmOnzFjpi5auWH9Bjzz2c/h+T/+Mp761FOYP29+r3T4IDTRt7e3o6mpCWW3rsOsugCjuz3w7sCx1H8t3RZKW3x6ux7YrjZ6camh91bS5MX15p59brb60O6x4AvXYOh1w2osg69pdPpiCsKI8nc7cEJ3TViMF7Z/DT1t7XPxye+/hmdYo9ZVgt2v/UIv3vLz8rTVPgitdZcvXRoXfUT76zlLwcL2aQ/fc9bPwe/vwHn6XfMew3e+37tGYPHXtuOb62klrMXBf/+Bf3CMw8SJoqLpdwk7zu1XrlzR1jth7GAUTMsX57hwF3RV0PLGlHfGVjCuZt0j63WxypSUQGfxfmCsRTBDjgHMtytu6wDm+rp67PvoQ9yqa4Ox4lkYGdPU2TfG1xbNVXCfehPem8cDA4Iwznl+O059azUSr/2i3+42bHT/+v++uqd0R60Lzowi5OpLvgUHX34cz75ahqVLluKxxx7DggU9HR6YIfurX/0Kx0+Mj+tly6Nb8Md//Lye44KwNt+OHUrkqscBMYDj+dZL/v6yaKlFSVUzkJiLoknaZoeS1/8UW7+xm++OebZu2ao7UfBeQDjXc45nduwHuz5AaWmpHhfGBmK5E/olmOX6V1//3/H9//YD/P/+/C+wfPnyXr0j+4PV4Bl3we3n//4z/PCHP9Qbn5eqFb27qQrW7fM6jm2sY90+pwReZeCVIEQ+Za8+i898/VXsudYCF0XIDCXsEl1oubYbP37RL+xIupofWLw4FGbIjqeOBP31nB1qeDyfeDFwPOMy9PEsUoetpYpdLp4eN8KOMM6ObeaCBIXdzp079bEUxhZiuRM0jKPL1e14lunHxKREJCYkalcr37sfbDNElwxjWU6dPokbN/wxNzTXs/1Q3yr1ZnIO7PM+DjNvsXoxmCyHYcbnhdV4G54Tv4av9hosj6T1C0KQSZMm4elPP43Vq9f0KoXx8vf+C06fPj1mulI8CJZxYdbniy/+ZWAEar5qxdmz53TrLCYICP6CxTph7rPP9HLJcm7/v//z32p3LIWeMLawpaQk/03guTDBYLzMvLnz9CS9etVqLF68WL/Oz89HhlqVx8fH90qKCNLR0YG6ujot3g4fPoSP9u/XE+H5c+d07EVNTY1+j4LP57u7aDGLAhu2KBixSTDi7u3iHR3UWkd9Pu+lXfBVXZYsWUHowyo9VyzRwfWE1ziv+b179+p5YbxAEcp44pzsbD0X+guuO+FyudRCtfzOInUiw/hDxlizYHFOTs4dFzZFMIX83n179fESxh4i7iYITIhgXSoWn2TcHNP+589fgGXLl2PJkiWYPXu2Lm0QFxd3V6V2xlZQrNHlSrfLGXVRn1Ri7srVKzh06CAuXbqoSwuwBMKAilfqdmSdMEwbzHh1g3DGBd4YA7g6YFVehPfKPlidzfzjA28IgkA+8YlPYMb0GXdu9LTaHDx4EOfOndXJU+MJWh7T09IxbVrhnYUsY4YpWBqbGnX250Su2Ra00s6aNRtOJ+ME/eVuzp8/jw8++EC3GutvAS+MPpEj7kw7DLsTRlQMzKhY9cgtBnBE+8dt6n3WYpogJyKLilLQcfLKzMjEzJkzMWPGDJ3uz6DY9ev8yRGsQdef25UijWZ3irrqmmqcO3tWx1UcPnIIH330Ec6cOa3j6tggfDAthrRFTAs89b0kZqkPrG4UgVpZo4Xp7YbZcBPu8+/CywxZKX8iCHcIZs0/tu0xZGdn6zFe+5wjfvPbX6OysnLcuGSDcH5k8WJa72JiYvW8yQVuUlIi2lrbcL30+phqoTaS0G3N+8WTT36q14KfFk26rZk4I8Ju7DJ+xZ2aaAwlCAx7FAyHE2Z8mvpjJsOWng9bRoF/S8uDmTIFZmImzJgkQO0Ln0dbjO5kakbQoowTEzeuQJnRyk4RGUrYPfbYx3Sm06qVq/QKjHF0/VnnOInRldrt7tbxc+fOntNu1127d2H3nt06k4zxFbTgDQVWl1oVtzfAjE6EkZCuBfpoCTwTPiR11yK57hxar59Quk6EnSCEwnmFi8RlS5fdKXvU0dHut+Ls+mDI5oWRhPMdOyvwb5syZbIWdoR/C+c6LmDHm2AdCnh/KCoswrp163slUfBYXC25qhNRaMETxi7jM6FCCTMKAnv2LBiZhUCaOvlik3UclxZtfQWCNqurTa0yLG830HgbvrpS+KqvwFd/S8eARQK8CHUj74ICrFyxCvkF+Xo8yhGlJ69gFfn+YBwdC3vu3rMLLle3XoXX19dpwRfchgX1fRkxiYha8ASM3AVA9NDUmAqXHG8d1uc6MCcjCh+8t0P6IwpCH2i1e+Erf4KFCxcgPlALjtb8f/3J/8KFCxfGrQiiu5HWSBZh52KY0CJF8fI//78f4dKlS3p+nEjQo/Poo4/iEx9/vFepmLNnz+Ddd9/F0WNHJ6xFc7wwrix3hiMatqzpsM94BLbZm2BOmQcjdSqMuFT1XqzfMmez+y1AoRvH6Pajlc8ercWEkZQNc9JM/+ZUE5W7058VyXiwcQJj6BjkygnpY489hkc3b1GibiWK5xRrt0lsTKwWdrTm9SfsmOV68OABfPjRPhw5egR79uxGaekN1NbWqImtSYsbXsDDG3Oifrc67uwEQfGtvxtnfOC94cfyupHvq8bmwngsL5qE9OQEfTxZaZ/xNhNx1S4IfWHoxrRp0/Cxj30ciYmJdyz/XAS++eYb43ohxPmNiSCcI1nqiX8fn3OrVnMkvRjj0Sr5MCxZslR7evp27OA9gvGVXa7IMIhEMuND3Jk22DOLYCtcDTNviV+QJef4rTx2p35fXYmBnR8A96M7NyrGLyQoDBPStPuW4hHdHWM2Q5ITKi82Tj5zZs/R/VtXUMwVF+ss1ylTpuiEiftlud64UYpDhw/h6tWr+iJlsU5a7MrLy3U7Hk7SDJAe2VgKC5arHehsgaGOvZ5YowJifbjwuGA0VSCl+Sq2zMzA4sJJSE3wx9zw+KWmpOqAasYUSpq/MNFhNummjZt14lXQksP5hC66/fs/0q/HKxR3/FsyMjOQl5ev51DCeYgLaCaKNDY26rGJAJNl1q59RLvgQ0vdsEj1gQMHcGOMt5cT/IxpccdgezM2GbacObBNWwlz6iIYKZP9N/6BirkHoYShFnlKLJqx/rg8g9Y7dfNn+6nRhq4QijbGz02dmotly5bp54uXLMHCBQtROK3wgVmuJddKcPPmTVy+fAmHjxzBkSOHcU2NXblyWWe4clU6FlbelqsNaFeTaGeTLkdi8O+h4A5HvD8ITxcsFlCmS/7mMThrLmL+tBxMzsq4k1jC40jLp6urSyeT8BgKwkQmW80xbDNIsUPRQ7ggZOzV9XHQbmwg0MuRmJig4wmD8yljl2+UlqKuvm7ClPxg5xGWxQoWrKf35tatm9i9Zw8uqXvIRHNRj1fGrLhj/BwTIWy5C2CftRFG1kx19amb71Dd5PtDCUkzJSDy6Cp0tY64wPNna8XrFHROLGzSTPP4ukfWobh4rjaXc0V1vyxXrjJZd6q+oV5nuTIZ4sSJ4zh95rQuW8IsWG5jMWbCUuLL11INX8MtGO6AK0SJbVN976YSedZgWpZRrCvhaHU0waq/CavsNLzXD8Nz+xzamxvg7nbpGCJ1Leg6V0E4wdM1y9ZpE80tIwhB6AXIy8vTcWlBYcd5hhatPXv36LkkEuB8SegdCWYDE87JDGHhnBrJUMympabhySef1IXsg1DUvv32W7rsFVtJCuODsSnu1E3clpwNW9Ea2GZvBOLThlfUhULLHePxUqfA7GyBr61u2EticPJgUC+FBVPw584txqeefEpXBV+7Zq0WdVxFPSjLNdglgnF07+x4B8ePH9fCjnExwTp14wYlrn0NZfDeOgmo7yApJhrxSSkwlcBnZqvFWEDtOlYbYwJDN35f3CjMaanrbNa166ySA7p+nVeJOkt9t0E4cbM+V3xCAiZlTdLfB6F7dtKkbHV8PboZuqT9CxMRumTnzp2H+fPmB0aAiooKHafLQraRBNsuFhRM69WJgQttlv9gWZRInQN4X+F8t2XLFsyePUd7jAj/3paWZrz2L69Jduw4Y0yKOxvLlxRvhVmwzB8HhxESdqGwTl56AUxXG3ztarXCZIthIjc3F5s2bsLWrVuxZvVabN78qJ5QGPvBiyy4Wu4PCrbLly/jV79+Hf/x+n/okgTM7qK7lRa8SMhostob8en1i/CHmxdifgoQ3VGLlooSuBqr4O1QEw7j9LraYFCwtdXAaigHqi/DunkC3st74Dn7Dny3z+radVY3Ba4SgH3gqr2psUlbQ0NT/3n8GXfS1eUvjSAIE43Zs2Zjy6OPapEXhCWSaMlhTGokwXkgWS2i2ZUhFFoqW5S4YZhGJMLvdsujW7Bt22PaiBC85/A+wsoBFy9elOSyccbYEneGCVt8Ouxzt8HMngNDdy4YBWFHeHLTipecDbAeG4UD4/CGAMatsIDwY9s+piaRRdiohN28efN05isvMpYz4UqKW3/CLpjl+vvf/w47392BY8eO6ixXrqxoQudFyBXX8Ga5jhyTsjKxYulSTC/IQ0K0DTlJ0Ug1u3Dj+G40Xz2qhNs5eMvP+Df13Fd5Eb6aa/A1lsPXVg+L7l2fmph0JnT/x4THi+6lzo4OJe7y9Co2ePyDCRZuj1sfe7HgCRMFzkfsYMOm8aFJWgysp9UuEhaPofDaphclKSlZL7CD0KPSrITs+fPnAiORxeTJU/CFz3+hl3eoouI29u3bp70/nBsj5X4yURhD4s7QVjr77A0wpyzQ8W9aYI0m/PeVwNQJHErcseDuYFy0vFgYx8F4ObpYFy1ahJUrV2mBR6sdXQAUELQQ3S/L9YASdAf278ex40d1/BwzXulypajjyjJSLz72sKT4naKOk10dy2iHCXdHK04f3Y/GqjItvLXrlVuXes74OmY9U4yH8X1RFHMSa1LHk+5ZxtzRRcvsQN26TQk8ir/mJv/xFoRIh1n4K1au7OWmpDWHLtnS0tLASGTBBTIXdRS1QRgy09nViZpqfyxzJME+4kvU4plltEKNCefPX8A7O36P6upqEXbjkDEj7iigbNkzdf06xKXquLuBEqUWGjlxJmYk21CYbGJakg0FgS0vwcQUtaVF86Q10OGx7mG7uTcGu1v43EplNcJS20DoL8t1lZok58wpVmPT7xQcDlrpQuGFFMxyvXjhIs6ePYuTp05qV8iZM2d04VC+P1FKdLDUC2N+2AOSUISdPHkSFy6cH/JelhRtVVWV8Hi9yAtY8AgFHt3kLENTqd6nO0rcFEKks3r1Gi1yQpO3eO2dPnVKi7xIhOKOdwl2aAit6eewO7SlkvNxpMAYQ1ZeWLN6dS+3O8tisVDx0aNHAyPCeGNsiDubXX2QybAXb9FFiXXh4QFgKr2WHmMiP9HAimw71k62Y1mWHQsy1ZZhw7w0G+ak2zEzxYbcBBuc6hq1lMBT+k5vvoGqPHVxa+sdg/ObbvebQRua5cpMq+lF07Fi+YpeWa7paoVEC9D9slwpHG7fLtcxDiwYyY09/FjKhEJmIq6gWCV91qxZdxpXs4Dm22+/rZNHhkPgcgK/fv26zhDkqjb473KSZ5Yy4+9ovWtta404t5QgBOE8tXrVal3bjnDuYYzvjp3v4MqVKxFtvebfysUbvSvBun5BSz69Jkxei4S5eP78+diwfsOd7zjI8ePHcOjQoYizUk4kxoS4M+NSYZu6AOb0R6Dbhw0ACrt4h4FtU6Pw8WlRmJlqQ7TdQLe617rUxkeKN7vakePJTgPT1T6LlOjrVHqgsUtNVOEYXphgQWtiVzN8zVV6KJjlykmQZUs4ETDL9clPPom1a9eisLAw7CzX3/72N3jzrTf16pjxXRPd/cdj/PgnHtdW0CDubrcO5mZV+eG0XrL0Ab8/inV+jiBFSrhblk+vblkqZSIKbiHyYdYo652xjibhfOVvUbg74suCcE6urq5Rwme9mt9j7rgr9bWutkjoOUvRunjRYh3yEvRQEM6p77//nrbcCeOXsSHu2H2iaC2MuJTAyIOhWHskx451uXYkRBnajH682oN/Oe/Cuzc92HPbg/JmC4lqv7QYBsbTKavEns1AQZKJVqWZqtotuMOIjTfsTv07vGX+9P9gluszn/0cnnzyU1i6dJm23DF2rr9EiFDuleVKd6uIBT8UVP4+uSu1eA7CifeXv/zFsNfX4u9nvAnjIKdNKwyM+pkyJVev5FkSQkoECJEIWxoy5o7nOeFNn/Uy6VUY6nCIsYhpGrqwMcshBUuDcCHPOX7Xrt1q4T2+ixqvWrUKj6xdp0OEQu9XtNjRchepbveJwqiLO221y50Pk03j2QN2gEyKM/FEYRRSok1txaN663ADNR0Wbrb5tOWuudtCfacFu3p/coLfcsZdKfCSlOijhe9maxjqTn2+2JgYFE/NxB997il1YazVZQLoquPFz5UQLXT3EnYDyXIVYdcDxZ3O1lu85E61dAo7BnJ/+NGHw27V5HfBZBZaLFjkODR7jp+Nos/l6tZV2wUhUuC5zYUre1XTYh70OvB6271nly4JNBE8Csyc5eJu0cKFd+LROLcbhqnLotBzwPlovPL005/R7thgizGKd8Z1v/feu7rFmMQUj29GXdzZMqfpLhRsKxYOmbEmHp3qgC3g7dT6Tv3Xpc7HCw1KtSlolWtVAi8uinF5JpxK1BH+f6xSfLWdvjv7Dgh1YXPiS1RC7vGVxcjKSNeijmP9MdGzXB8WTjqMWZw5c9adlTNXk7zB0C0yEvFu/Df4Pba1t2nXBSf54M2On49jfM1WTCPxeQRhuGGoCT0Soe46zlPlt8uxc+e7aGpqnBDlgIKLOy7q0tLS71gweb0zuer8hfPjsucsF6Vzi+di3br1uhJBEArVf//3n+tEPunIM/7pHQg20nAVlDxZb+FCOeTrI4qcdiDB2dtq1qXutw1dPrX13teh9Bhj9riFgxsO1CARlfUt6Hb3XtlwMuDFfpZtefbswY4dO7Bj5041IfJxh64NRasTJwzhwXASWrRosc5YC8JJh8dwJG8uFOHnzp5TK9r3tCs9OPHRRZOfn6+Lf7IlHDOfR4TNr2DvlVKc2v5CYOAe5L2A7SdLcf3dlwMDgvBg+rvumB1+4vhx1NXVTjiLDjNGb5XdCrzyWzYZLsJsWsZTjyc4R82cMROPqjkrNbUn1IVzGuMpRdhFDqMq7gyHuhkmZvlLn4RJt8dCVZsP3sA9njqPVrqajrtv+i41F7W67raOxSgxmOy3SA8Yn2lDpz0Ol283oL3LrVe0NM+zPRV7LdKs/eabb+AnP/1X/Pzff4Z9+/Zq074Uvg0PTqC0GgRjGIN4fV49+Yy0tZOZsceOH8N777+r4+yCNzh+NrqwNm96FNMKpg2/wKNg+96TyH1gpaCNePnVr2NVz/1ZEB5If9cdz3XOYYePHB7WBKaxypWrV/SCsk3NAaGwsPPUkB6s4wFaHLds2YqlS5eo7zlBj3E+ZXUAekS6XRM7gS+SGFVxZ0ueDHOQxYqblFjbf9uD+i4LbW4LTUrYXaj34nDl3atKxuTZ+/lLvUofdA9Cc3ktA7c7DTS0tusSJbt2fYB//Mcf4m//77/FP7/2zzh16pTOohQGD61ibF5tBv3uCu0maW/Xdf5GwwXKG9v+/fv190tBHxTsjLVcs2aNnjQp8Gj5GBY2fxOv/+KbWPWgvKO85/CjXT/CM4X+Ei6CMFBiYmJRVFTUK9SElmsuXkfruhsLXLxwARcuXAy88sMWZSyXNGzX+xDD75R17ThXORw9C+ayslt60cq5rdst4i5SGF3LXUIGDGdPCnY4tChB96EScv/laCf++7Eu/Df1+OtrbtT3Y6GLizKQEdtbQHKvNo+Fuj7u2oHgVhPcoUu38N3/9n1897/8Hd56+y1dykQYXphJPBaO82/f+I3ut8hSKKEsX74c2x57DHNmzwmMDBXF+NL338OpH72AxRn+Iqv9k4tPfms79r7zHWzLU8LunvsJQv/QVbdxw6Ze1nKKu4oJPr9duHgBF9XWFzbZH/rrfXiglXH5suWBVz3culWGI0eOBF4JkcLoijuWPmFx4EFArxytbnTFVnb4tAWvS4m1voWJY9QCNNXJ7Njef2p9hxJ2ahtwIeNeGOiOTkFbV7cul8FAVAmmH1qSk5KxZvUaXYogCON+bldUBF6NHvy+z50/h8t9smRpwZs3dy5WrFjRK7P2ofneK/jOU0VItLlQtvcH+MxbZYE3+vD8y/jb51cjV+m6lrM/wYt/fxyR1dZdGE5YYH3atGn9Wu5uV0xscUfXNL00tNqHMmfObMyeM/bF3YzpM7B582btSg7l6tUruHTp4oR0t0c6oyruEJ2g7ogP7zpiVixdrP0xK9WGOWm2Xm5Z7n+2zqPduIPCMP3C1PRXLheGHkeUQ2dyhZaVGUsWBHYRYRb0ocOHAiN+GMdCd83Wrdt0iZxgZu3D0nJtN3784hasf/4fcD4w1h/Ntefx5ncex8JPfRtvynpDCAMWK164YJHOTA9ed7zmmEwgngno43D0aG8LF693JldQPI1lWPJkcUhJKcLKA8eOHdNWSSHyGF1x54wF7D2WmaFmUqyJ+el2XbQ4iFupwDO1Hhyr8eJ22yAC7ggnPiaD2JS4G0S8oHB/GG/HwF9ORKHiaCxZEJjxzGKu+/bu1cHWoZbbzMwsrF69WpeTCHVvDZpvbMHCrc/ju/ey2AV57VmsX/k4XvzJ/eSfIPRPZlambvMXys1bN3Hl8mWJIVZw/mE2ad/rne5O9g4fq0yePFlbYxlvF0qFmkv59/QNLxEig1EVd4ZN3fjY0muIodxKcBhYmmlDUbKJGLuh3a/tbguXG7zYedONa81eDFLa+VGf22DR5QG2SxMGDi0HbPkVavliVnJjU+OYqppOgXe15KruLlJZWdHLtZGWmoZt2x5DYWGRFquCMJbhIiQlOaVX83jCepJMphD8NDQ0YPfuXb2KOFM0FRcXa0/DUFnqhxK6YpmcFoSJYPX1dbojknShiFxG9Uy09IUwtJYv/rZom4H5aTasyrEjO97ULlvG5l1Swu61C90obfHB81DKLoAWdmK5G2oY7xOazUW4uhyLK0wmeXCy3/nuTlRXV/Va0VPUffHZL6Igv2DcZNQJExMupLiFwnOZde1EAPTA6/2j/fvR3t7Wq7xVSkoqNm7YODSW+iGCrnV+HvaPpfUuCIXp7t27sUvNW+Juj1xGVdwZvDiGuF4ZO0/MTTHxqaIoZMSaOiv2dqsPv7/mxv9Swq7V7f/32Kwi0LBi8Fi8uIf28wvBrK7ebg7eZOrGqPuAFjtmz7JgNctFBKFIZTzO5z//BV3tXxDGKsz65BYKb/x0RQq9cbu79fVOK14QhpFs2rTprkXpaMIEL4aG8LOFoj+/Enahn1+IPEbXcudxAb6hq3aeGGVgfroNn5wehaRoumItHK304I2Sbhyr9aDTY2kt+URBFP58YTQ+Oc2BDLXfoPB5YXndtHEHBoShwryX5U4JvLEI6+9xNcwC1nTRMgMtSFDgrVyxcswHXQsTE2Z2Ty8qustyd+LEcd1WT+iNtnzt2Y3Gxh5xRHdsXFw81q5Z0ytpYbTgZ9iohB0Tu0LFXdDyyCoPUlg/shlVcQdXB+AZmqKJSRR2aTZsmGLHpDgTHW4Lu8o82F3uxpUmL5q7eyxs7DPLLNq0aFNnzoYNFaKrHaC4E8vdkMJ2PjnZ2XfF/lDYjfXAX06cvCEyAy3UlUX37Lx587Fu3ToReMKYg+dmXl7+HZcib/rsSHHx0kVxyfYDjw+LmJ8/f77XnMTjR0HV11I2GvAzbN60GTk5OdqCR+j94AK0b8ygEJmMrrjrbFbirivwYvAweWJuIMYuL8mGxi4fTtR4cKLai5oOC3bT0OIvzWlgerKJJPXIxgdqN93dImzojm1XqzYt7iYYA+lXOu85vPLbIzh1Re13TW1XLuHUu6/hm5sD798HJlOkqImJNbeCMFOPLoTx0JOXk/1xJfDYR5h9hoNt0hh0zVIEFHi05IXWEROGkAGcn8XPvYK39p/2n5vcLpzG3l98B1/KC+wwwWCGbKjVjjXdTp48qd2yrOko9M9Y7TnLf5ufoe88w5CRffv23ZXtGxk8h+3HAtdzv9tpbH8+sOsEYXTdsh0NsGi9GyR0qLJI8exUG9ZMtmOGeqQrlskTt9ssZMf53bSLM21YorYVk+x4NNeBNO2yVZOY+j/PYAxvFHct1UNmdRw/DKBfKW+u//IdfHJeBhJdtSi5UoKydicSCzfiK//ve3j5AQKPdaMS4nt3LRlvsT8sdvrBB+/jwoULvZqsU+CtWLESmzZu1m4TEXhDzYPPzw3few+vf/tJFE9KhKuqRJ+ftd5E5C59Dt/51XZ8ZTwLPNbfjIqFEZsMMyETZnIOzJQpMFOn+reUXP+Yes+ITYHpjENsXDwyMzL1oioIY0gPHzkk8XYP4F49Z6dPn35X2ZGRIkHNn+yY0bdYMT8jPys/c0SStxhTAm0ZXR2ufrZm3WN+IjGq4s7XUqvEXVvgVXhQ2EWpe2Nhog0fK3BgeootMGZo693nZ0XhD4udevvSHCe+MNuJT8+IwhIl8OKjDHi8StgNdvGixJ2vqcIfMzhRGFC/0lx8/Qfq5qouMteFn+D5ecux9WNbsH7R4/jBoRbAWYRnvvEyVgX27g9OjNP7uC5Zj2m83WhYtmXvvj3qczf1WiVT1NF6N3fuXG2dDC3SLDwEAzk/176Mbz5VBCdacOLvH8fsNVv0+bli3vP45TV1Laesxtf/69cCO48TWHHAHgVDCTUjLhW27BlwFK6Eo3grHIueQtTyz8O56kt6088XfRpRc7fBUbQSUZNnI2d6MXz2aHR2e9V86LsTP0orj1jtHkx/PWcZL+yMco5KhvzsObPx6KNbdCH1IJx/6EKO6GLFn85FJh9vvoGt82Zh9l3bOjz/E73nhGFUxZ2XAkkpah3DFiZOJeymKWH3BSXccuLVijUwPlC61P22615tLR6Ezwtf3Q21xO0MDEQyYfQrzfsqti3izbUEb3zt29jjH1Wcxw+ffRUnaKQt3IQXnvKPDpTxmLXX2dmpixz/06v/pMVpKDExMXj+j7+s+zyOpvsmMgjj/Fw5HZl8/9o7+Mt/CC30vBsv/egAGD3lnLMRX/cPjgtsSTlwzFiHqNV/hKiPvwT7qj+COe/jMJTAM3LmABkFsFIm6w0Z+bByZquJcwXMuR8DVnwRlXM+jx+fbsf2AyW4XNGkz9vIdNsND/31nB2+HtMPRve67dMOjfPnwUMHtSchUlk1LUMt2oCWshN4QKn3CcOoijt4u4HmSqC1JjAwcDJjTXx6ugOp0cagSpow4aJjMCFznm5YzdXwtlTD8kyAmLtw+pV+cS6K+FiuxN1NPRLCP+DgZd54M5S+W+0f6gcmUvRNpmBXivEm7mgBYYP/y5cvY//+/XqCDUJrHd1gurjolNzAaBh8YwumFRZgoRLM9+W1Z7FQ7Tdt60uBgQgknPPz+09joVrF83jcdQM40QJtp4pNVGfoGMe0w5Y9G46ln4F9+edgztoII2s6DLZzjIoB7OpgsHsOi6yzSHzoxjG+x30cMfDaY9BgT1ULr0Rsv9SFH3xQgl/sOYmu7gnmwxok/fWcZQJDtHPkLXe01uXl5d317zLJ68aNG71CRCKNjfn+ebTsygQzz92H0RV36gZoNZWrLfxCitF2A1MTe/eMDYc2pcsGlUzR3QGr+rJ+9Ne5i3wG2q/0SzP8F1hL+Qkc1M96c7XBf9tNSi3Wj32hqGOV/L5Ze83NLeNyYqLAYxII+88eOLAfZWW9JUVhYSHWrV+P4uK5gRFhMAxFP91Vf1YMffbWluGAHhl7GI5o2FKnwjF7M+zFW2DLXwojYxqM+HS/qBskXlsUWn1RKOu04UpnHG4nzIQ5cxNs6fn63xTuT2dXJ5qaGgOv/ExRi7bFixePSHY8y7AwIWbtmrW6RmgQzplnz57B6TOnIzzr+TkUZ/OxBc457+HUhZ5EiovH3sNr33rSf21PMEZX3Cl8TVXw1d/ylxYJg2aXhb3lbuwuG9x2pMqD2+1hijO6Y9sb4C07rXTdBFnZhtGv1PmAheqbjX7rW2JGoX7sC7P22N8yCMUdy4t4xrmFNOgWOaS2UAseY+4WLVyEDRs23NXTUxggD9tPd95GfPX77+FHn6HN2YXzbymB6H9nTGHEJMGWMwe2WRtgn7EORvZsIDZFzeBDaB3i74pNhjFpJmzq37DN3ADb5GKYaky4N/QqlFy71sudzYQKth7MmZyjXw8nOks3vwCFRb2zdBk7uWv3bty8cTPC4yfnIEMnUySiaGURnI3+RKmyRhecKUXY8PwreP1fX5hwAm/0xV1nM3x1N2E1hOcpr+7w4WeXurF9kBvr391uC0/cMfnDargJb+11LfSE3hSl+tMUmyt36MdwmV40AxnpPU4xWr5YT8rdPf7d37Ta7T+wX1vxaM0LlkjhZLxk8RJs2bJ1zPamjFRefket7n/7Gr7+VJG6LShh9+rzeOLvxl7EDoWdXYksii2zaA2shHQ1OIznCX93fCrMwlWwa4E3V2fgDgsDKa2EYnzp+2/jMPcLWmROHsFb339uTNywWf6Irk9ayUI9DIytZSbycF7XdAFPypqkE7Ti43qqDDDjuaq6CqdPn0Jrn2zeiOO5TDgZ8eMqwZsvrruTKLV+6Sw8/+oJHaaRsfbr+Ptxliv1sIyJO4nVUgXf7XOAdwxbw+iCbayAVa4+pzAs2Gxmr+xRrjz3fbhXZ55GArTaMf6OcXiMxwsKPFrwGHzNVkHx8fEi8EaExUB7mV7hl1Rx+nei+IXtOPyLb2KDf4cxgAHDHgV7/hLYZm/WFrURJ2uG/rcd+cv0Z+FnGjoGUFqJ+7z7K3znqWJkxLlQe019X+UtcCZmoPip7+Ct7WPDIhOMseUW7PzAfq60yq9ZveZOIeGhhsWK2YViw4aNdzpj0HrIPtcTpljxT57H+jkFmDZnC158q/fibM/LL+KnJ6n8nFi87Zv+wQnCmLiL+Dqa4K28COv22bEr8Nrq4au8AE/lpcCA0JeSYExd9mP6MVw4GYa27uEkRVcHM/giBWbOMoOWmbShfxcn6W3bHsNjahsLFe4jnxN46TPr9Ap/65oFWP/XO1Cm7gEZS1/AN79374SfkcSwO3QmrG3Gel5UgdFRIGkSzBmPwDFrk/5MQ8KASisBX/nXV/z7NB7AD56ehRVb1fe1Xn1fLx/QFpnEler7CjP7fjhgkfUdO3dgp9pGsmcr5wr2tA3GKZOyslu6zzX7304IcXdfyvCDkyX+p1OK8RX/swnB2DARWD5YbbXwXNqtRFStUntjTOAx1q7iArxqG3OfbQxR084V0r35ZIo/HqSl9pp+DMKYkalTpyI2Lu6O5Y4xIqy1xckpaOGKBChY2ZPyp//2U90FgN03CK11tNqxfREteBS6wshRtv1P8cND/lZSRfM/qR9HE2a+2vOWwJy+FohPUyeILfBO/6THGHi6KArPz3FiQZoN8Y4htLDRTRuX5nfTFiz3Z+UOmnBKK30HT2qzXi32vPwsfqjW/kHKXn0Jb+jKHhkoXLlYj40mtNYFLXdWSKJdcnIKVq+5v+XOYPFpm0NbRg1mMw+QyTmTsXjRYi3sQj0et26V6TZjkTZ33pd5G7Ft5T1suJXN986gj2DGjP/H8nTD13AL3pL9sDqaAqNjg0m+BuQYjUgw7i9eJjpv3vSXtEnMDmQe9mFutj+erm9MHsVdfn4+YqJ7Mv4ogjo6O9TkFBiIIPi3cXV99NgRVFRWBEb9Ao/xOatXr9ExNFIDb2T5ZW2g3M79ddSwY0TFwEwvgG3meiAhU32eB1vLEqMMLM2yY0GmDVvzHfjs9Cj8wcwoPDMjCp9Rz58ucuApJf4+VXjvbd1kO6bE3+OWQNGRkOFPtMgshOHs6WgRFmGVVlqCYn4X13bh26/7h3oow7efKNAlgbZ+40RgbHRhvN2Zs2dw4sSJOz1ngzFxCxcsREISO4ekw549C3YllB3F2+BY/BTsy57RJW3sy/ybY/kfwLHoSTjmPKrFtC2zCGZcoP1CgNzcXC0a+3aiYGzvlauXdSLaROEr20/r2NlX/uqZwEgfCjOhPf8tLRhk2tW4ZMyIO97FLbcL3psnYDEbtX30U7dNWEj3NWNlth1blszConnFvXqeCn34t3PQBvApRf20cfoaFufzsRbX9veOizBNf7YXA5CD0GV5o7RUrYgjN3Hl0qVLOHr0iK6TFQqtdqtWrtKZtHK+DR1f+qd9uHihFBd/0X9k9VcDtbLgGt11vqEEnW3qQkAJvAdZ7AhtNlGmgbQYA3EOAzNTbVidY8fGXIfa+GjHJvV80xT/83tty5U4nBJ3n1sCP0tanvpsi2Am9vSiDZdwSyvV3jg4LgrTBsNISq6V3KnL2d7pwpXyWsTnL4Rz5jp/gora+BjcKOJt0x9R29qeLOU7m3pvlnpU4/ZpK7TQY4LNnOJ5eo4ItfAzppcZ+ZFcrLg/fnzBf3Y4Z67GV/WzUHLxnfm6+ipqr+3pt0RXpDJ2xB1hW6+2er/1rvwM0NGox0YDG7xIRgeWJ3dh3axsbF2/Bps3P4r58+frArTSNqofbv4Qey641MErxjOvvhwSmF6Mr25/AYu52Fer8Fd/4x8NwkSK/D7irq2tTa+CI7nwJmtPffTRRzqLtu9Km7XvWAOPtfCEoeGnZ2oZVw3n0hew/YXetuUNL/0KLyxl/FcLDv7mu/7BUYC9YW0Z02DL6b8WZH841CweY1eTeciUxOmJxd0datCpnjjtBmKU8KP462+LUe+b6ofcA5hu2flC19dzxgVGwiCM0jW5qYHs+8Y3UPzcK3j32KU72bLXT+7D9jFav4zXcnVdPcrqWnCuogU7LtTgipGD7pnbYM7ZAkOJY6Tnw4pPhcU6gn0zn/nlqfOAllKDVrv8ZWpK3QbHkqdhn70ZtrzFiM+djdiUTN0jPQizdQ8fOXxXPc2I5+92+LsfxS7GC9u/pu42QXLxye+/hmfYsMNVgt2v/cI/PEEYW+IugLfxNryX9sB3/RDQ1aZj3kYM+gG9bsR2N2OecRufWjEdGUn+SYy1yJ7+9NOYOXMmnE6nCLy7KMN3v/cTnG9RN9DCz+G1s0fw7jvvYe/Jt/H1lWqiVhfYL7/3Uq/VE48hY0YYcxcd7S+YyjgRj9ejV8KRHjNCgXfq1Ml+Y2SmTJ6CZUuXy2JiqPiHF/09jpGIVS/tw8X97/nPz2OleO2FxbocSslv/hovvebffTSgy9OcPBdWGKVHKM4yoh/u/GDHnqvNXpypH8BcG50I2+R5sGVNVy+G77xMpNZWJC16D69/+0kUOVt6spsTc7Hq+VfGTLZsKKfOnsc7Hx7Fzz66hJ+d78B5+zRUmGnoNh6iJqFpgxWTBEMJO/vyP8CRzkzsuVyLpk4POl1uHetXXl4+7jr5DA3/gL/8fw6gVp26iSu/jreO7Qtc1/vwSqCX9MG/fx4vfRTYfYIwJsUd8bbUwHN5L7wnfq1LkIyYwOtuh+/WcdjOvYV0b506QL2Xsjk5k/EnL/wJZs+e3cvSJAT46Lt44rlv482ztWhxZqBoRhFy41xoubYbP/7zLXjpg8B+AXgMCwoKdNxdEK58r5WUTJgel0wc2RnIbmN9qiDMHGafSvahlXNtKCjDj599HC++thslLHA6qch/fiaq87OKrsKnsfWv3hg9F6C6gdNSQ6tYODB5IiNm8FM5W2zvK/dgX5kb7lBT0H0wMgphZM0MlEcZXjIKi+A69AM8MW95T3bznWzZsVe/zJG3BGUZy3HJno8mcxDWzQFQbybhnQobvvf+dfz7e4fxzs53cfbc2Qkq7phg8yw+8/VXsedaC1xK+N+5rnnfefFxPPvqBLNmKoyCaflj1zTCyc4RAyMxC45pK/zm7Jj7FkV6OKqvwnvzOLxVl2DvbkNWajK2bduGFStW3lWigyUtfvXrX+HMmTN3Mh6F8GHLsQ3rN+BTn3rqjuWOpQQOHjyI//Wv/6JfTwSCgdd9zzeeaxS7v33jNzh06NCECpSeaNjZGaJ4q7/hfxhFimcm27BlqgMLs2za8VDbaaG924JHCTUuTfvqtZRoA1lxpra5cX927DlQ4UFZm08LvYFhwaq8BO/5d+FhFYHB8vx2nPrWaiRe+8VdPZBffrcUzzAqoXY3Xlr5PH7pH77DM68dwcvrM+A6+Q+Y/ZkfBEZHCXWvMtW9yT59HQwWfWZMoiNgehwuLB/slgexvg7Yy0+i/vQHcDX7EzkEYcxa7jQ+r+4K4au/Ac/VD+E9+3v4So8Crf6szCHB3QXUXIPvwvvwcLt1Cr7mKnR3tOpMxg92faBdZsHsJ0IrU27uVDy27WO6u4BkNQ4eZsgy3i7UcldbV4urJVcCryYGtNgFz7erJVd1FwvC40Kht2njZi362NZIiEy01Y7ZsWEIOxJtB5LUuojC7EazFx/ccuPtUjd+f8ONd9S2I2S71OBFp1v9E+rnGF93otqDY9VeVHZYYQg7on4DY8Ky/MHqw0FJrT+xpeXawbuEHQlmN7Og8ahii4KZMgX2OVtgFiyDkZwz/MKOqPPEY0ahxUxEQ9IM+HKXPFSiixBZjG1xF0SJPG9DGTzXDsF7eQ88V/YpkXcYVk0J0FanZjW6ssKYmdjHtqkC1u3z8JYcgEf9Tsb4eSvOw9JJHP7fFcx+2rdvn24vEyrwCGPwWIFcshoHT3Q/blm6FkJ7sE4U7pxve/fqIsehAo/HaP26dXoxIQIvwjAMnUhhpOYCseEvFJkskRBlaEvdxXovTtV6cLrOg7Pq+Tm1nVeCjltVhw9RNrWv04BLKbmbSgh+eNtvsePrcDGiE2Gk5MJ0xuu/Yag53+AXb4mjLd7uh2lXwm4ybNNWwFQb4tPVBfsQsXWDgR1t9GdY+dCZzELkMD7EXQDL3QmvEnSei7vgOfFb+NQjLXkUZb7aUliN5bqVGVqVCGurB9ob/I+tNbCaK2E13IJP/byv7DR8V/fDe+4deE6/DU/pEXjbamFpkXg3V65euSPw+stqlCzawWG325GUlIisrKw7LbeYVNDR3h7hja7vD/vP7tmzG9evXw+M+Jk+fQbWKYE3f978Oy5sIQIwTHVDzoTBYsX28C0+Hp+a5rqB+k4LVxp96OhnGmNG7bw0G+al25CsxF11u4WPlLC73ORFpyd8Yadh0d24VJjsnhGmtXEgHNxVAr2czl+Nb95VWqmndE3fougjicnaf1MXKmG1XKns4RG5AyY5W4tMfh5jOMOXhHGBLSUl+W8Cz8cPFmvidcKnBBvj43w3j8NSAg9K4KGhDFAiD4231fNbsGqvw6q6rEureK8f1l0wvLdO6Ob/Poq/ewi6vtQ31Osep8HMToqRoJBj4VnWG7pdcRuNjY0TIglgKEhJSUHxnGIsWLAgMALU1NTg2PFjunvDRKb8drkSvzbMnTtPi+AgjFG02ey6KTjPtQlTgT6SMe2wTy7WvWMHU16Ep0C7y0KNEmwn6j3o6jP9sCRKdqyJJwqjkJdkorFL7Vfjxbu33HfF44WL4VWqUs2jvkY17w4m6W3R0/hP63LhbDyP//HT9wODAS7Vouhjj6N4UjaKl6Xi/M/34EbgreKvbcffPV0AJ8qw52//HL9TU/+IY3PoYsQ2tSG2d5HhB8GyNVE2utR7StXoR7WxZqFDPdrU/YVfT1hfUXSCtqTye/HxPijzw4RlfIq7ftAdLjoa4Wup1hONt65UbTd0vB5Pci+td50tSsyxbtrgTngmTtRU1+iiu3l5eb1ciWwdVTxnjs58pFsxNOtR6J/s7GwsWrQIBQU92YGsb8cioFevXg2MTFza29vR2dmhBV4odMvmqMXErVs39bkmAm98w4xTW/5SmKlTAdY9C5MOj4WKdh9KW+levXt2i3UY+MpcJ3ITbFpUnFLCjjF53QOoafdAKOhcbfCy5/ZgWjPeT9wp4fZ+VSIeWbsEuVMX4MmvPY9Pf/xpfOHPvoWvbaGwc6Hk9b/CH/xTUPKNLA4l6uiKNbTlMjyLHa2n63IcujPIlql2bJ7KgtP+jZ1CWFA6PdpAu9tCS7cV3h2L4i4mEUZzJXydzSLwJigRI+70lMaTmEWPOeGEbhzT28Od5LyJsnNCdXW1Fna02AXdY7TkOZ3RmFZQoC18dN/SxSjcG7YcW758hT6OQU6ePIEjR46goWH0O5SMNqxdxfOoqbkJRUXT71jweK4lxCfoBUZlZYUWxJFc7DnSYTN+e+FqGIkDazXWF85qDJnrL2yOImLVJDsWK7EQbTNwq8WH49UeXFePDzcbBuCc6nHBe+vkgL0gvbivuFOUfohf7ryBuPwiFOVkIzMrFanxdrgaS/DB/3wJf/Dd3YEdRxC1uLcxxm32ZhhpeWF9Z06b+pMzbPhUURSK0+3IiKUHSF3r6suje92uXsRHmWoz9HtFyaYuMF3Zbg2owLTG8PeqZSFkX+XFgEFDmGiM7VIoYxQKO7pmN2/ajMX9BLizrdQHH7yPk6dOTti6QwOBySjPfekPeyWj/O73v8POnTuUaKkMjExsKOgyM7PwuWee0XGd8UrUBeHigbXx3v7dW3rBIYxP6Ip1bv5zHRTPzMuhgrakgkQTX5ztxOQEU7tnmUm7u8yjkyuGBJ8HVnM1ut/9ASwmqk0ADLsTjrnbYBatDtsdu1gJu/VTHChKsaHTbeGjCjcauiztSqdOZmwkhR0FYK76zpgAU9Hmw/4KD95T392A8XlhdTbBe+xX8CqBZ3X7k7OEiUMEWe5GDlrwaFGhxYQxeCyFEhfXEytDS1RcXCxcXS4dqycWvLth8sm8efOwZMnSwIif06dPaXFMq5Wg5mifT1uL21rbtLBLTEy8Yy1mzCdfd6n3m5qatRtXGH9QLNhnbQQYbzeEiQmp0Qbmpdt1b2wKO6/Sc0ervLjQ4O1Tmv1hUL/Y8sJ79SPAE/nzHC1iZtIkXfYETIAxe0JzHkSSw8DayQ4syLTD7bVwvt6ry9NcbfKhXAk4utaZucytywNkx5k6C5rZzXSns2zNgGMktfUuSluFffU3YXVJLdaJhoi7h4DCLSjwQl20JDMzU994W9tadYspcZv1hseLmcYzps8IjEBnyB48eECXARF6oMCrrqlGZ1enFnjqmlXnnL/9HWM9s7ImobWlRceDykJi/KFj7mZv1AXbw43duh/Tk/1WorQY/+9ki7HTdV7cbB06acfPa1e/vsBXiUnpKWqhm6znvYSERDidUXrRG9zYspFeDxbsHq/zIWPZ7MxGzVuks4XDYYb6PhZm2DBJibbWbgtn1XfBbGW6Y0Ohe/22EnrT1P7p6rtjkgW/O9YobFeHbcCuNirC2GR/ybD2Rn+IkjBhEHH3kOgs2kZ/Fm1ubq6evHpn0U7RxWlb1M2XWbQS/O6HmbIzZ8xAYWFPEVSW/jhx8qS4ZO9BVVWVts7x5slklGD5GAo83jDb2tu0wPOGNYmrc5XWIp637Ahjs6vH4Gbzv3fHmiTn7nBgOJS4m7FeParF4RCJO97XZ6XasGYyrXb+31nbYem6d4zfGkrio6Pw11/YjMc2b8K8ufMwZ04x5syeg8yMDBQVFd3ZuOCNjYvVGd9cyHHO5IKYjzx/+ciNcyg3hiQE51Oe68HzffTmUPU5WPpk1iZ/2ZowrawrJtkxI8WGuCi/Jc6h/q7LjV4dS9ffX1SYZENWrKkTYjqVqKN7tqbTCiPD2fBbGrtaYbXVw+ryF4UWJgYSczcEcALKyc7B1q3bsGnTJj1BBaGgo7B7//33sGv3LtTV1QXemdjwWD227TEtiINs/9l27N//0V3FooUeeMNbsWIFPv3U0zruMwgtIZcvX8Z777+rjuH+wOgAYHV9daMy41NhRicCUTFqzKHvNpavG2CsTkczvK11sDqb71kLUhg8hjMeUR9/aVCC4V5kRBs683Jrfk+w/9UGr+5aweLGQ4eFBPVPvLwxFYlRprYycyN9S0JZlk8tPPxKJvQ9JqCFxoyWl5XdKeDNx1tlt/Rzwv1GqwUf3efm5GI4HvlKWO7YIJ+dHoVlSuDRXc6bLi12Ne0+vKu+k3Pqu2nu7n0rZobzgnQ7YtTxvd7sxY9Od6l9EHb5GqPuJtxnfgdP+enAiDAREHE3RNyrNyjhZMd+qbuVuNt/YP+E7L7Qly996Tkt7kKFMHvJsqcsj5Vwb5iAwkLGn/7007q+IhcXhLF5tH5S4DHj+F7leGypU2GmKWGYMgUGW0hFx2uRpy11+qblv/moM5cnr7oTe9TWreN2rJZqGA3l8LLEEK0BIvYGDb9HWrF89mjUzfkMfAmT/MJ6CFiaadPibmZqjwg5V+vBzpseXGwcQnHn8yABXfjetilIYCroIODCJDTGllY9X8D67PX6ehU07+52qfPa79LlPpxLuQ+z61tae1umaOnmz7KEFUNjHhYzIRP2aSthLvhEYCQ81ufYsV59J1MTewQ8BV59pw+323w4XcvuIl50eS0UJNjwuVlRyFP7MlaScZL/qMRdfxnRD8TtgufUb+GZIHGRgh8Rd0MIb7L3y6LlRHRAibuDhw6iTK1OJyq8oT37hS/ikUceCYz4+cF//z5OnTrVazIX+ocu/03qPHvi8Sd6xXpS4JWUlODftv8U5eXl/hg8w9DWIVtGgS7dYCblgG2SDLa6YhC/OcB2SRRyrjago0kXALcayuCruwGrqcJfT0u4J1zE8Lwn7DRCV3pqaqp2r3d5DfzHDTtaorOU0BuanqTb8hzYOMWB9NgeN+/RCg8+KPegpHnoxJ2pRH+qrwV/+/FCJe5Gtu1WMLGNj7Tw9Z03KOrcHrdObOvo6Ek2otBzqeuCP9PSp5pBc0uzHud101cQ2jKL4Ji9GchbHBgJj8lxJp4sjMLirLtFMLuEVLVbujdwfZel4yWLUvxlUNgmbt9tDz5U399g8V54X7fu9LF7kzAhEHE3DDBJgG2i+hN4FHWHlLibyBY81rf77GefwfJly/Xr4CT9/R98H1euXNZjwv2hWKDVjuJuYZ/exrwx7du3F7t370ZZXRO6o1NgphXANmmGUtZ5uv7VkLj/aLlrVAKv5pq/rR/7NbtpgZm4Uwrd5oyJJJNzJuveydHRTqQkpyA1IO5mTJ+uE2OYMc5M+3aXBz/YcR43kY5uW49QfxieUiJiY65dx2sF2XvLg7233bjV5guMPDxmdzviG69jW7YLTpul/qY4ONXf67A7ep2ThIuQYItGejaCsckjDUUbrxEt7pSYC4Wlq9r7EXcUhxVWKm4nzwPYA3gQ2NUl90RBFNZPsetyJ/3RrXR3i8tCaoxakKnXJU1eHK5kr2AvGtX4YLFuHPf3UK++EhgRIh0Rd8NEUOD1ddGSoAWPMXh0QQZjVCYKCxcuxCc/+aQOviZ0H9KN+B//8Uvdwk0YGLQUU+B94QvP6gD2GCUkgjDm/J///XUcu9WMtqRpMLNmwBpE94MB0dEES900vDdP+DvCdLZqd12kQ3HCY6636BjYHXbEKXGTX5Cv31+4YJG+9oPu13vR2e3B9g8v40RXClqtobHcMb5rU64DjhAj0c5St66XVjFUNe6IEvg+JRrcamOXIP6d/Hsp5CZNmhTYyU9iQiJSU9k+z9TnLTv9EIc6bsz+DsKf5T6E+wQt0/7xwbl+HxYKvfdKWvB2uamt4INlfroNa7Lt2l1+L4EXxKcu4j1lSpCXe1CpvrOHaRVnVanrU31HnpvHAyNCpCPibhgpKCjQLtqNGzfpmLzQlSoTKxiDt2PnDl1OZSIJvD/6wz/GqlWrtFuKtKtV8Q9/+ENcuHBearUNgjVr1mDLo1sxc+ZMffNze9k83sKP917BxfZodDuTAnsOI1ST3e3wnX9P30B03+YIKr3A48rrl5Y5Cg5eyrSe8hovyC9AvtqYAU6hF5ro8iBote7qduPQpXL8rjoW1d1DE3P3BzP94o5ZmUHevtaNg5UeVHcO3ZRvNd6G9/jr8CjxMFhBTwGclZUVeAVMzZ2qLXyEj1MCSVeh40G02FN/o81kp4cea3SoCAzNtB0sPqWs3rvZhX87/3DFgPl1zEyxYctU1rt7sFBt67ZwSH1nO2+6H8pyx37rnst74bmyLzAgRDoi7oYRTjD3yqKlmKOoYzeGiZZFK+JuaOHCYemSpdiyZQvypk3H6ZLbeKfcQo03Dt1GFKyRcn9R4LFh+bWD8FzdD19DT5bjeIbXMUUcH5nIkq+ex8bEahHHseBG8ceNzweKzga9dUsL8p+Xx6LMFTPwGMj74Bd3SoiGfPc/v+jCsZq7szIHjfq+vdVX4d79D4CbgfqD+719jxmFWHAhzMeghY/WvOA44c/4vxe7FocpAQ8Jxym2KcRJX/E4GLhYev9GF/7j8sOJuzi7geWT7Hgsv6f+4P3gJcUEi3N1Xrx2vhvuwZrvWmvhVeLOfeG9wIAQ6Yi4G2Yki7YHTrp0xzz/x1/WVqbg5MvA529+6//UJVD6lk8QBgZ7zc6etxC589fgRHsiapEAr+EYOWEXSmcLrPIz8Fw7BG/N1cDg+IHuRJ6njJnLURuTHmiRo7BgIgSf81wOugsHAoP9mb1JTp06qfsFt7a0oqa25k4iQP2k5XDnLNDJLg/Lx5R4YLZssOwGOyL842mXLoTrGaoZv70BvhvH0H3i134VMsLw+wh+L1w4B+eT0HFitzvgDFlYT8qepL87FlpOCywwg/jdyon6/VC3cll1I96/2YVdNeEVLg4lL97U3ULmZ9qQFk2hCtxu9aGpy8Ik9V5GrD/Ori88sg2dfgseS9mwD23YdDT6xd3ZdwIDQqQj4m4E4I2ALoXNm/vPoq2ouK1rk0V6Fi0n38LCQnzlyy/opArCwOWbN2/iu//l77QlUxgkpg1JhQuRuGAbah1ZalXBGKZREHZB1M3EV34W3pID8NaVBgbHFryRUxTwesydMlVbjDIyM5CclIREtSUlqk099k0MeBBctHGhwq2urlYJuFods9UaKNVRcbtCdxuhqKPlLogtZw7sxdtgZM8KjAyeKUosFKfZdG9ZFjG+3uLBoSovGpWQGCp0nOWF9+ApOxMYGR/w++Simx0zGCMZCt2+TAihIEwM+d6tqHhUxE5DSXRP0fVwYPs3Jrmwzh0tdsyOvdHs01mwLd0Wkp2GdtfOTrXpDOe+Vy5LplS2+/D9411odw/iO2SfWYq7M78PDAiRjoi7EWSiZ9HyRkr39OOfeOKOm4TZaYcPH9alO1jGQxgcZmoubEWrYStY4S9vMgjSog1kxphIVDeaKBtvSHQz0ihj6Sy+mk4fylt9usn5gGCwfdlJeC7ugo/tj6zRiyvlTZtCLXRLT88IEXe5fnGnng80Piu0FEetEnE8lz1uj7bK1VHcqTG/wKvT7z0IIzoR9rlbYZu2CmDtwYckOcrQHQ7YHuxmmxcdHiU8h2q2d7XDW3oYnnM7YXWMTlHhkSQxPRu2mRvQWbghMDJwKOxYBuVLc6KQn+iP12S3iTevuXG6zqM7VAT3oSDPSzJ1qzJ2suB4kDYl6l4+0oVadR2Gbbxrb/CLu3M7AgNCpCPiboSZyFm0LJPw1a9+FcVzinWvSUJX1ZtvvoG9+/ZqK54QPkZ0Auwz1/lFQULvRcODYMB9jLqD0CU0O8WGWakmsuNNxCpFYA9E49OxR2FwucGLA5Ue7dq7V8ukvlhtdbAufgB3yYERKZNCsUarDLfg9UUXW2ZGJnLuuFpztNuVFvVwoKWNCxC9dXWio71dX7Msonu15Ip+Hup+HQz2qYu0iBgK691woq12DNC/cSwwEtkYDqf+XuyLPx0YGThcKG3IcWBTnkP3iqUwu1jvxSsn767n6VDrinS1yNocKECdphZb/HnS4bHw4zMuXG32actfWLRU+8WduhaFiYH0lh1h7teLlvWxJk3yW7TYcoclQmgViAT8cTDRWKlELa0jvPkSWjY+2PW+FrOR8reOKOq4OvIXwyxYASNlcmBwYNAqkOgwMDPZxB/MdGLxJDuy4kzd89KlxBsz9ZpdFpxK6LFe2mQl+tj0vFTdXFrd1oBkGpviG4kZ8FVcVOKuQ6mCoVuw0MJGVz+vJbrYGGc1ZfIUnegwY8ZMfOrJT2kr+Sc+8TjWrl2ry8VMmTJFW+3uZ51j3CcXVrz+2DmBjxRtpaWlOHv2DA4cPIB3330Xb731Fk6ePIlTp09pyzuteA8dWtDdqTuGmBnTtKt9TOJ161g7X9lp9Z1OEGu7Om+NlCmwTS7W11w4ONSFtizLhikJpr6WXGqhRAv4idq7TeC0rLa5gTNK/DEZhmKQlnRC1+zVBh9qOy10h3sZsSYla1E2TNzi+RMNEXejABMI2OCdwi4vL6+XBYFWBt6ceDlXVVf1iskZz9AtNmPGDN1yjFa7oKCtrKzEG2/8VhIpBoM6huwHa1vwOMz0AqqdwBsDg26gDVMc+OT0KCRHK6GkftzlsXC82oufXerGu7c82F/pwaQYEynRSkSqmxStCKlq37N1fuvdA2F5CvavVY9WcyUs9qodIijSmJjDYtiPbt6Cp5/+jI5rXb58uc5qZRcPZmRT/AXPt4HAzh41NTVauL39u7d1uMQvf/kLfPjRhzh77pwWcuwXPRyLEcvbDcOnbuyO6LDF+khhKVHnLT2qi1arV/7BCYAtKUt3eYGjp57kQKBbnPF0OWpxFK1edHst3G6zcEpdQ/fjdrtP/Yy6RyhRyNOXoRE7bnSjSS26wnWv6y4y1Vfha+np4StENiLuRgHeFOjaYRNsCjvehIKZd7wJ6QzbSZO0wNNZdUoMjnd4g83KmoQVK1fo54R/F5vdHz16RL8WwsQe5e91OblYu2bDIcNJa4IdayY7kBDlj61jFt6+cg92q62606fFW5YSdizdkB5raheuus3o85Lu2QFbDwwbjPhUWPW3/PFZYdZDYwA8XakZGZn42GOPYcnipUrEPaoE3WYsWbJECzy6WSn2eB1FOfyuWVrnuN1P2DHR4dq1EiXkTmDvvn14++23dWjE8RPHdGkeuloZM0eLHMMG2AeVC5FhtTJ3dyoR3KnFBPi9DkU3kaGAYSJNt+G58D58ddf97egmEEZsCkwK7rjeGbYPgqdfvBJ1BUmmLlzM64iW7xM19y9MzLfmptl0nB6ftypR90GZB53hXT5+akp0IWPfBIiPFPyIuBsl6PZhTTe6Iyl2eGMKxqHxZkRLF2OGeFtiQ2xaCsYztKA8snYdigqL7lgq6ZKlm+uytBwLH3XDN2ISYV/wCRiJmUp1hVcbbVGmHStz1CIivkc4nKj24mCVV7enYlwQb0IZMQYWKRHIbD5CTdPusXSng4GLO/Wz7I7R2QyrtQ5WV/+LFZ7zXOiwGPDKlauUaJuFpUuW6efsalJcXKy7mtCyzZAGLhZ43TCWk9fQ/VytTGhgOERVVSUOHT6Eq1ev4vChQziiFhanT5/GxYsXtcgrK7uFhsYG7WLl9UmXLLcRheKX7k4l8MyUHP+xG22Bx4LUHQ3wXNwNX9UlWK6JV4/SjIqBmZAOI3XgRaqD0Oo2N92mLeR0tzIkgrNgVYeF/pJfHeri4+JrYYYNqWqBRWF3Sl2fZ+t9gyplw8x1X+VFWB7GvQoTARF3owhX/8E4HbfHc0fQBWEMHjfeVse7BY9xduzWwfITwZsw3VvHjh/TrlkhPAx1o7FlTINtxjr/zT8MkqIMrFLCbnaaDYEuT1q07bjhRkmT745ooybj22xizpsSb0jM2LvS4NMxQYwBCgt7FKzmClgtVTpWjuc64+Qo+PPy8jFr1izdJ3fmjBlYpQQd3fhz587F9OnTtWWOBcG5AOLPBGua9Qfj47hoqqio0HFyFG5nz57FxUsXcUE9P3LksBZyHOP7tKBT/PHnxgxeN6z2Rpg2uxLxSf7veLRi8JTYZGKM78ZxeK8fUuKccYWDUBjjHC66aSE3c4oDIwODR6pTrZaS1AIpRW3MgnWqi2lSLK14/jFuDHfIjDWRm2Dq5KbVk+26pA2F4TV1Xe4ud6PBNbBY1150tsB36wS8tLYOp8VZGFOIuBsDMMmisrICPrU6pjWChVKD0DIRtOBV11TrG9B4TDxIS03D6tWrtVgNiruSkhIdnC717cLHjE3WLlkjfWrYN/3ZSqwtyLAhM87/PfBs4g1Eu2ND+o5ynFmycQ5Du4/Y2aC0xYujlV7UdA2i12V0PJyd9chweFBUkIfZs2drC9z69Ru0e3XBggV6K1Rij+d9sB7ZvaCLlOEN3d0uVFVVa8tcjbpGSktv4Ny5c9rVevjIIXz44T6cOXNaW+tYU5HnG7cxH+fpc8PXXAWD8XfOeP044gKPIrO1Fr6yM7p9ldXVPHEFAi2qaoFimzxX3TnVecnVzwDhEavrsHTcaoK6nhi7mug0MUuJuKlKzE1VIi4/0cRMdW3Oz7BjeTat5bTYqXmyyYvjNbTaecMXdgqr5ip8t8/p71GYOEgplDEERdyyZcvxxWe/2KvCOqmvr8OuXeOzFy3F3Nziufi//q+/DoyoeVJ9fv4t//IvrwVGhIGjVvzpeYha9YfqpJmkXgbMbwPks0X+YqqpgfZHFGn1nRZeO+9CWatPJ1YETz3ex/m+Vz2hpY7u2och11OJR/OjsWnhwIvB8lwJnu+Me+Pihq9pnaPVjeJu957dOrOVr2kNjyQMRyzshSv8pW4Y82ULzwU/aLxKzDRXwnv9MDzXDwYsdhMbM2kSnAuegJW7wC/wwoSxdyxUvDLHjjwl5lj6RMey6uvN8J/b+nrzx9gdqvDgqBJ2rG03KCwfvGd+p79Dn4i7CYWIuzEExRwtFrResEUX3bRBeDOjqBuPvWgpWhk39eXnvxwYgb4J82956+23AiPCQGF5EbqGHOv+hMo5MDpw/my+E3PT7XfqZ/FGUtHmxYdlXqTFslK+v5AxbzIdbn/ro8NVHlxo8Op4u4chrqMKj+ZF4zMrCgMjD8ZvkavR4m33nl3qsRs16vyhuPNq0Wdp0UeGPdlhVFB3frsDtszpup6hkbswMD68WOVntbXOW31ZHVh1IkTccQ0fwxkHu7r2bCu/gHCzZgk1HBdPOvNcPWbQFat+DduRRSmFx0QLdqKo6PDB5VWLGXURMrGJ12LYKGFndTbB/eFr8NVc06+FiYO4ZccYDN7mzayhvl7HGQVdtBR+4zWLdnrRdGzcsLFXr0Z+9qslV7WrTAgPMyYJtqzpOkt2MKzNceh6dqFeJY/XQG4iXUM2f/as+i/GbiBR3YFYBoUuI9bpYtxdRftD3OSVQMhPi8W87P47MDDsgKVIaH3bs2e3Tn44ePAA9u3bq3uy0uVaW1uDxqZGvW8w4SHUuheRMKGhqw1WcxXQVqdLpSBKqYIwE2keiKcbRmMFfFeVqLt2EL6GW2pSkiD8O1jqe3B36o4wOkN9ENY7CjUKNoq3NrVYqu3ylz250eZDmdrYCabN43+fC69BX210qZcega/iAqzuiZcAM9ERcTfGoNWBFgqWaOBNKyU5+U6SRTCLVn1n+vV4yaJlsDxjqoJ/B2GQ+8kTJ3QcoRAeRnwabNkzYbC23SBYO9lf2uSOtlNP2I0iVt2nrjT6u1CcrvPq5IqEKOhMWSZUsAl9nN3UxY0b1TYoa4Jhw9SUGMxINnSLLlqjT5w8gfPnzynxdkrHYDJW7vyF8/6EhxuluhwJM6uZ9EALXVDMTTiY2OBqU4qg3h+L16mufTVmUGCEmVRzF51qoVh/E76yUzppwsvMypZqWErsCSGo+dnyenSiEbNmGQv5MFC8MYGpUwk5ljhhaz8axwct6ILQ0qrOEc+Fd3WGul4cCBMKEXf3ofi5V/DaP34Pf/3SN/D1F1/EX/yn5/GFLbPgOr8DZ2oCOw0TtEpQ4JGkpB6BRxISxlcWbWHhNCxduqyXm/nAQdYSO66FrBAeZmKmEnezYCTnBEbCg1l4GTE97lyeR3QVMSOPjcyPVXtxs9WH8kBJFFr04nUQuKGterHq8XqzP6s23JuQZZiwddSh7fopnDtzEiXXSnDkyBEl9i/g0qVLaruos1y58bxmwgTFnBCArjbWwaPwalfzQ3sDrI5mbdUz2AGEN3GaZBmHea9YTO7j7gI6mvy/p65Ul8nwlZ/Rgffe2mv+YtPixrsH6qxXxztlcpFObPKoBctYw+pshq/0CLy3Tkn5kwmKiLt7sOHbb+PVv3gEufFO2LtqUVJaifaobGTnzcLGpx5H9qWf4v3SwM7DBG9sjK0bz1m0rD/G2mSMuQvCz0pXG613QviYiVkws2fDCLOPbJDVOXbds5LnThBa4VgK5UKDT2fIEp5O1R2WzqwN7k+BRzftDSXumrr97qVwqbt+Hmd2vYEr509pt3xDQ7224InQDw/WmqMFz6q7ATTcgqGEXrTVjdzMFGQlx2uXutNywe5uh6u5VpdWsSgGW6v1/lb1VVi3z8LLVmIUdo1lE7J+XTiwRmdcbByy0pIwb+YM+JzxaPGYatEyhgQexb8S6N6LH0zYsjWCuk8EHoVQ1r6Mbz5bjET1tOXQD/DEvOXY+rEtWL90HV78TQlcziI883ev4Rn/3sMKrXcffvgh3nzrTd2KLFTAMSZv06ZN2LRxkxZ+9yviOlqwvh23UNhYvaVl/NbsG3VY+8zuDLwIH30Khcz3fNrlsXTcT0t3zxt8xq4VbJcU6oJlgVWWa6AVb1Aw29Ph71IiPDy0zHibK+ErO4lJjafx5bkx+MaaNPxvxTY8ntqAha4LMI78DO6P/gXuPT+Ce9c/wqWed59+C+5AGzGx7jwYzq8sz8OC2n/43B/h2a0rsCTTjkRPC4yxYuWk677uOnxXP4KvpUadHGJ9naiIuOuHVZ9bjSIuxKp24MVn/wHn/cOKMrz5V8/jlxfU04zVeOZr/tHhhrFGbNH12r/8s7bmhZKSkopt2x7TPVvZBWKskZGegfQ+4k54WOhyG7ylgCVNQsUaxV6H+94xdN4++7NsQ1acv1bXoDDY7mzsubIiCQrw7NRELJwxFXOmpsNor4WvtUZ3B7EYjyWEDUNh2Mf4ha+8gDlz5uhyVVvn5uDjs1Lg7Bob5XesmmvwlhyEp/JSYESYqIi464fV2Zn6sUVdJHv0s1DKsONGmXp0omjVC/6hYYbWOsYfsU3S9u3/pi1fQbiapNVu40a/BY/WvLEEhR0FXijMeqyouB14JYSPUlvM2hskHq+lY+lCcfURcKHo4ZD3GNLFAqtsiD4oqCYf4vML/cO5YGru1Dt9qk0l8LweN6rUteZTj9qKE2L5FwbOjOkz8KknP4Unnvikjh1mhxQmuEWrFU5uVAeKvGU6y3g0LWVW5UV4r3yok2F0wWVhQiPi7j64XM2BZ/2TmDHwWl0PC+t30YLHXpg7392JmzdvBN7xT+rsyblmzRqsWb1GV/0fK/TnlmUSSF8LpBAGDIh/COsLY+rcIeqOzyjs7nXb70/D3UsIDgh+fooNYUgJZtPbgj3lFIzX7RvOIYQHhd26deuwYsWKXuWcSHlZGS6cPIyKU7vgPvcOUF3iT1YZSbweWOWn/cKu6rI/o1qY8Ii464erDf7yIhnZi3G3TMrFY/mBUXt0P+8PH5ygWf+LyQgffvShbqUUSk7OZJ24wL6cY8GCx/iU1JTUO1my/Py6hl9Dg06qEAYJ61cxm3GQsAtFk6vnZk/xxvp19zLE6eTLkDepE5pcvkElU2iUsGPGpzC0GIapk6zs9p7aa263R9cEFHEXPkyeKCgo0MJu8eIlagHde5HKEj2HDh3UW8X1S/DcOgnPlb2wbp/Tmcj3Xi4NEVzgtdT4+8Ze3ucvX9M19ktjCSODiLt+ePMnB0DHK+Z8Dv/8/Sd7CbgNL72CJ+cEXqRkYFvg6UjCJIuPPvoIe/ft6eWiJbTarV7tt+DRmjeaSRYUmMzqDULrIzsNVFZWamuCED7MPo532hFnDt6teanBi6qO3g3IWbCYsXR94RBr4IWKOxr9KpRAZLJF2Pi8sNydDyVOhf7htZ6ZlaXPkSCsC8huMBOyLuBDQNd2YWEhHt38KFasWNnL+8BjySoGBw7sx361lZXpu4UWW54bx+C9tEcJrpOwGm8Dw5F9TMu3EnFWbam/JuHZ38OjCxXLNSX0IOKuPz56Ed9+vQQuxtU99Qr2HtuHd995D+/uv4TXXlgM15Uy6PVRS0tIssXIMh6yaCfn9BZ3hOUu5EYzcOhqY3wPrZ8M6M7Py8e8mUUozEkP7BE+5e3+KviuQCsxirpE1q9TAo8WvCB8Gmtn+RO/ZY/wJ5g9y2LHbE0WNnQZ8cYkMUFDDgW4nZnUIUqc80JktmQbHjhXOp1ObbH74z96HpuVuAutMcpjSe/Jrl0f6F7ftN71xVNzFe5Tb8J78g1YFeoOQYHHYtAUZYO25qmf0+EMLl3OxnfzBDyn3oCbfWObKtXbMqcKvZE6d/fgxvs/xXnfLBTPytWuxdS0VMS5b+Cjn/8t/uxYLr6wNhfO2uP433/6fuAnRp5gJ4vKygpdS47tyYJw5Tl16lR9g66qrhoVS9natY9g+vTpd9yydMX+6tev6xZStCgID4bHbubMmXj605/BZz/zWXWz2Yw89b12eE1c7gi/t2UQp9L7Ser/MmP9wp8CjwKusctCQ8BlS1H3SI4Dc9KUuHT4BUOX0mTXm3x4r9yDdnf4NyqrpQq+ysu6ppowtDB783PPfE6HQwQFHq3kb7zxWy1KhAeTmZmJVatW4eMf+wSKioq0azaU27fL8S//6zUcOnRIJ7ndUzSrxYuPnUSU0LMqL8F0d8FgFxFug2kZxxZw9bfgu34IHgq6myfhYxFrEe3CPTAKpuXL2REmud/fh71P5cJ18h8w+zM/CIyODpx8OJkzRZ+ZXKEBv7SQMb5t9+5d2n3Q3ypzOHnpG/8nFixYoC1PpL2jHT/84Q9x4cJ5tLdLsdS+8Luk1ZXWg+nTZ2DWrFnIzMjUAi81NUXdvBksb0O324Pzla344dEGdEclwQr1mQ6QOCXWZiWbWKPE2/xM/w2sTYm1shYfbrf5tIhLiTEwPdmmixY7lAZ0K31wvdmLX17pvtO9Ilwsuq0u74Wn+kpgRBgqaNn9+//+in4Mcv78efzNd74deCXcD86dW7du03MpPQ7BrGPCRTQ7qBw9dgQnT57UCWEDsoaqa9OwRfn70DpjdeFxW+IkfwHyuFQ1ngjLGaP34b6W5YPB/r6uDt1lQlvpWqr1ZimxSCugz9UKJlEIwv0Qy90g+Nqf/zUWq2uz8uT/wP96Z3QtEJxgxlovWh37o1bAG9avvxOETEvd7fLb2LX7A531K65ZP7yJ5E7J1da5RYsWaWvnvLnzMW/ePJ2ll52drfeJinLeca8zG7Kr24vLt6rRZksYlLhjMkSbW23dlhZu2i2rBJ+25sWYyI43MSXBRLISdvztFUrMnaj2YH+lB9eafYPLllU3Lhba9VZc0O4lYehgnB0XBuvWrb8Tc8cF1LXr13DkyGH9WugfLj7nzp2LTZs2Y+mSpcjKyrqzICX+GOcPsWfvXly7VhL+wpRxpt1+sQZ2CWmrhdVUAR97+dZcg08tdHT7t4rz8N1Wm7o+uHmrL6v3StR+N/T+Vof6WWbiigtWGAAi7vrjT7fj8M9+gG8+kY1f//R9f3xdkLUv4//68lykmmXY+5//FjtuBcZHmbHUi5YTI4t8Lly46I4VgZ/vVtkt7Nu3b0K3meKxSUtLw+xZszFFiTq60xcvXoz58yno5mPGjBlqfIoS6Sm93Oyh8FhWV1fhask1NMZkD7r1EXvDtnSrc6LLQqsSebTGNbosbaGjVa6u09Iu2JJmL87UKnFX69XCbtCm/tZaeG8eh4/tsgb/W4R+oJUpN3cqlq9YjqhA9w+2dLt27RpOnT6lXwt3Q1f29KLp2mK3dMkSXRQ+CF3ZrEhw+PAhfLT/I1xXQvmhw0nYQYJCj3191fVgNVfqxAurocy/NZYrIXcbvpYqJQLr/NY7d6c/3k4QwkDEXX/ULsCTzy1AZtpUzOr8HX59IiDv8p7EKz/4c6xKs8N18qf4s+8f7C38RplR6UVr2mEwiJuP3JTQcERFYdWKlShSk2Yw3o4xf1euXMHZc2fg8UwslwJvvBR02dk5yMvLw1wl6LY8+ijmKzG3aNFibbWjpZPfV2gwPOENht8rrbK1tbWoqqrUMYsXzp/F9asX0ZmYB8vOOB6/VS9caMGrVeLuUqMP5xvUzUyJN/aTvd3qw7k6L45UubWoK23xoXUQMXah+NjEnFl9ukyEMJTQWpeRkYnly3vEHc+b8vJyEXf3gMJuWsE0bNmyFcuWLdOvg/B647X23vvvYc+e3TrjWBDGExJzdw82fO89/OgzRWAHz5byEtR0OJFZmItEGklqD+C7n3sWP+5dZm7MQBG3bNlyfPHZL+oJK1Qw1NfX6SyvHTt36JV9WO5R06YEnDoAtBRRTPC1M0EHClPgEbY2irEZ+KNnP4dZM5S4i4nWgfq3y2/h/9/efUDHdV33wv/fKRj03kE0Eqxg703sRY0qpiIrYazEiqVYK8r32c/OkyK/9Rw5sZ+0PmtZXs+OHCuWY9m0o251kmLvvRf0TvQ6qIOZufc7+8wdcgCSIsoAmBns33sTABcQDYIzmP/sc/Y+v/uvN2UlIZDDHS2dyptiECHXLPfIUWMLjVOYN3eeXPK5Gwp09ORCb2kJqKzMNbCaRi9cuXpFdusROl82aMYGKJNXyv07Po3GRBx9C87rl3lkwwigFwa0lP/tv3/2xgsqeqwfOXoUv//9W/JjdhOFYXpRRaNOaHSUJ3rcVVdXY9eundi7by83fzG/xOHujtLx0A9ewnOPLkdOjH5Iu82KouNv4xcv/QQf+2iwIxTmqFJHzQxPffPvbvyyJxTmKNTtFOGOfnFRpW+gjAnZMMZnA7HpAG0KDo9zBTyqB7oDpF4NDA4yINzZjWBbCzJFIk4M6sXZ/Z8GfLij8EbhmmYMrrpntRypQE8ktMRKS7LufXNfpaKiAidOnkBpaSm6ujplpY7Y7b3yZ3ej4ioCpCEsBuaVT0FJmCg/9kki2MnRDZe+kMtN7vsI8x464m/jxo24//4H5CgPUlJSIgPKnr175Mfspg0bNmKjuNFc0P7bH+hxRz8zakSjF1leWeFgbJRxuAtQnl20VMWjgZz0MRloFy1VhgwRCTCkTIOSmAOFurssYaCTOWAKEjf6pdh3GfEGTYVBdYqbHcEmBRbY0VlXhq6yi3BUX4Pa1RIQ+0hu7HVatEg8SQTJBojY2Fj5hBETQx2ufSunt0N7ICn0njl7Rv5bdHV2os3aJpfVqIpAS+h3JMJ10NQ1MOSsAGJ861xhSfwbK90tSCzbjbr8M+jp8KWNDIGDhuzeu/lebBY3d7grKirCzl07sH//rSdkj0fubvT58xbIZdisrKwbzSdux08cx8EDB1BYVHijQs6YP+JwF8DcFTzauL961WrZjUkfu9Hh/UeOHMGx48duTlknIjAYYybAkEyhbqIIeIlAeLz47SjC3F2Cyh1Rhxd1erU3Qm2rgVpfBLWuUL7vb2j/3KRJOcjKzJTvU6WOAh49eYSFhd14cr0dWuJxN74UFBbIMEdBm65VVVXKTuLBVgoogJumrIYhayEQFqNf9Q3hBgdyQ6yYH96Ofbu/QGFBAY/BGQET0ibgiSeekMdkuStRFy9elDPuLl66KD8ezyjEUbCjcVG0z44q6+7HKb3Ypf2sefl5OHr0KPLyrvEJOszvcbgbJ3JzZ2LNmjVYIH75uyt4hEIdnY0oK3jVNTCERUOJy4IxZYYId1OAyLvvERs0qtjRKICaa3IshkpdYr3iCd9Hlz/cDRHUxUrhmMa7UCU0MyOzT1i+E6rM0fIOBbfy8jKU6nvoCgsL5VBUbzyRGJMmw5izAoaMuYB56MONvSlY60VOmB0PTQnD5JQYnD59Uo7loHlh9GTKvIeqUN/6u6fl/dI9xuPkqZN49913buzZlDKfxvY/v4hlDW9j4qYX9Isu39p+AS8uvTkj746Kb/1vfRk9RmkgMY058RwVQ2ibA21NoX3Il69c9trjkbGxxt2y40RDQ70IGVY5FoVetdITgLuyR5Unp6agtK4VSvocGKeulkuxCLl7cBkS2hsm/mwlKgVGqgjSeAA6osfZO+YBj6pvtEeRngBogDB1uNK+ufnz5st9OlQBpTEvtLfOc8ipJ3rCoHmCdO4vLe1cu3YVJSWlsmtx/4H9cggqBbvmZtdsQm+gkQmK+DkaQmOA0GhZfR1LRqcN6eZuLE82YvHkFBgMigzHtGStqZqcuUh7P5l3xMXGYfny5XL0kHtfJ43xOH/+nMfPeS1efvfHuDdFhL+WK/h5v9N1cu/9K/HvFQyn3Xnbm8nsCo2268fwy/8+JN/3dRHhEcidmYuNGzbJxgl6fLu5u4lPnTqFTz/7BPX1dV57PDI21rhyN87QBuK/3vYNGVBoWYICnsOpIv96E9748gJaEmZBHcrxOMPhsMF58XM4y09D7Wh2LeGOIvqFT0tZ7mVVqoKQ5ctWIDc3V4bfu6G9cbTkSsGOllnpFA6qhhKqjo5GNYC6lqmCZ5r7MBCVLP5i9O84xGX04XDaEdpairUZwdi6MlfuRfREgffUqZP4w/Y/yJ8Z/ex40/rw5M7Ixb/8y0v6Ry7UNPWfv/lP1weZT+L1376IzZn6loFBVt9uTA/oOotfPrgVr/pwQ5kbjYRZsHCBbJygGZKe6HGan5+PL7/cdeNxylgg4crdOEP7na5eu3ZjSZFCzaXKZnx0uRHXQzJHP9gRgxGGhIkwUKij4Z50uPwoosC7bu06bNy0CSvEq3t6S00oNMKEqnh3a4igcEIddp99/inee/dd7NjxhdznRMs9LS0tozdKQRUhqdsqh6EaKdxZwvWAN7q08jPoubwbzvpChAS7zjj2RC8q4uLi5ckcnZ0dN5at2dBRlXnNmrX6Ry50msLZcw146Aev49evPIn5ceK+QAPEadn2NpW7O1r/Gn73/eWINVhx7NUn8f29/tEUs3TZUmzauBnTpk2/pUv9ypXL2LVrF06dPjW4cVCM+Qmu3I1DVKFKTU3D1q9thS0sCWeajCjoCkaP0rfCMuq6WuAsOSFvamu1ftH7aM8h7U2i/Ye0yTo0LAxRkVGys5V+NndabnWj5VbqYKVmCBrKTIez0xIPBTlaAqOqwJgRQZTOqTREJcE4+R4Y0maOzgw8CuY0eb/4GBzlZ+W/H3VJp6amYu7cuXjk4Uf7/FwpEHd3d6G5uQUffPi+3Pw/0ienBCrZFb94sZxx50YNOlS5+zD2MZz/wXLQTjrrpbfwvz/LwY9eEB8PuHK3HC9/8SYen2KRZ2lveuxVjO2Bi3dH9zO6v9H9ju5/nsOJyfnz5+UxiJcvXUZ7B9/nWGDiyt04REtgVmsbrEooih0xqNJi0K3cucNz1JhD5AHbCgUFOn+RumuHSe6dS0yUT4AU5qgyt2zpMtk5PGNGrqwq0T4w9z4792Z0T1TtpABHoyUuXDyPo0eO4PyFc7h8+TLy8/NkyKOlRgp8PlEFoApejxVad6sIXN1y8LQcYTNSVbyedmj1RXAWHYVacQ5qWy00h02GXAps1DxBQ2FDgkPksjf9nKmSQuflyj2fMTGwiPdp6Xo0zj4ONDTAmPaF0nF/btS8k1+Qj8LwWfjL6VYc+OlTeOSf30H+3K349qp0WAZYuUv/7mv48X3pMDmL8ME/P4sPfOS4xduh+1Z2VjaWr1gh98ZSsPPsXKcKOs32PHTwoPzZ0L5PxgIVV+7GI6rumINhmr4OhuwlUAbZERtiUpAYoiA13CAPnacVDznIWNyT6ORRh8g38qzSdhVW8dYxyHuY1lgGNX8/7MXH6SPXxUGgIEehgW50JJN7D92UyZORljahz1Dn26HwS2Gt6nqVqyLX3Iyy8nI0ipDS0Chu4u2oLbUOkyE8Dob4bCjUTRsnfg6RiSJEB4t/sL7LVENC5162N7gOQK/Jk+Nt5DmYd9g/t3TJUixevATTpk2Tc9k89enavsPcxWH5ii7RO1nz04N489F0WI//BHO3vaFf9T304mTZsmX427/5pn4F8sUInULz+eef6Vd0T213VfIGVLlbi9cPvInNE4CGPS9gyTNv69d9Dz2mp0+fjuXLlmPqVNf9y70USy+6qJJJZ8N+8ukn8v7lL49fxoaKw914ZDC5Rmcs2ApDjPjNfZc9ZZ5igxVMjDRiRqwRsxOMCDa5/nOj+D8G8VYV9yabU5Pnk56tc6Co1SnfH9S5pPYeaLUFsJ9+B2pHkwgLX10No2obVS/cjQ8U5jLSM+TSMy27Jicny+tfhX7ZU9WIhgfTEGF6AqChwhTyqPrknk3nr5SQSJhSc6HQQGo6XSQ4AggKET88y8A7a2mEDVVTafmVbhTCa/OhNpZA7WzRv+irTZk8BatWrZLHsfVvVKGfOQ2RpWPWaLmWlm1p+Xb41uLlXa/j8Uni7zrQ5Uh3CBLv+nq4o8r0Pffcgye+/pf6FVenLIW73bu/1K/oBhPunnsf1747HxbnFfx+44P4oQ8ft0iH/69avVq+gPBEj2saBUMdsWfPuYaEe+c+xZhv43A33lDVzhKOoMVPiCf66QAt1w2Qxajg3kwz7plgQpRFkRW61h4VHb0agkwKIoIUhIq3Jo+iUGGzEweqHDjd4JBfP2DUWFF6Er2XPhdBgpZn+95NaW+cexmVKhe0xEpLroQaJL6qOkdLp+7lU/rlT8uHtXW1OH/unAwXfQY6ByBjwkQY6cQR8VaJThH/sCLoUSWPUrpn0Jc/cvF/KFzTrbsdaKmE2lAChwjfanuDa3zNINHS2bp16+TMsf4neNDSLC1/79u/D5cvX5KBe1hL3UPpEqUq3/svYpk+D9rXw93kyZNx3733iYC3Sr8CnDt3Fjt27BCB5qx+RTfgcJeOlz45iG/MEC/WTr+K6V//hX7dd9D9hn4HrF2zFuvXrxcv6rL1z7jQcX30WP5y9+5bQy5jAY7D3ThDe6+ogmNc9HVXsPN8Mr+L+7OCsDTFiJQwg6zOFbeq+EOeDV0O8ceIz0+MMmJ1mglzEm9WgpzieflqkxO7y+240jKIV8yaJme3Ofb/CmrLdWgeIYKCHe0xorNbZ+TOkOHOZDTdmMxPn/+qDldqfKivr4fNZhMhYq8ME+5GCOraDPhX9rQHj6p1dDNZYKRj5cLioIS4qnmK3jGtOR2uQ/67W0WQa4Iq/j3gEP8OmlN+zrX8OvhfH/TvQ9WWmTNn3nL2MS2J08+fQvf27X+Qg3ipejp4dDb0y/jetuVIp1xHXaK0/2oAoeZb2z/Fi0stKCqoR84U31+WXbhwIR7b+heyScht2OEu8yV88uWTyDU2YP/zi/HUe/p1H0LBjl4kbN60Wc6jpPuVJzp9Z8/e3XLkCd2fGBtPuKFinDGEx8M0dS0UOod0oMtxug0ZJmRFGWAy0BKseNVsVFDToaGhW0OHXUOnuNHeu7ke4Y6Wao3i/9hEyLvWPIjQJP58RTFAsfcgKVRDXGSYnDn3wP0P4sEHHpTLL1SxiI+Llxv1KdjRHhu69Q92FBZoWCmdpUuVuWPHjuLgwQNywCsdyk+bzynoUbgbF/PW6O9IS6wU0Bw2OUBa7WyG2lYngnQV1KYKeXM2V0JtvQ7V2iCDttxP57S7/tshhDo3+hnTky2F7OamJvmk7D62jf7t6N+Q/j1pST0qMlJW85qaB7ks/tTrePv/XY5EkVOpS/T5t2xYvvLujQTpP/gjXt+SDue5X+Ev8rLxzRmxsFUdwq8+6BeSfAjtI501c1afZW4a9XHp8iV53+5j3gAbKp77Pn68IBFoOInX/sdHyNcv+wr6u65ceQ/u3bwZSUnJfRqh6AXa8ePH5Qy74pJi+dhmbLzxwq5q5i+oicIQnQwlUbzCH2Swo5AWZhaBjt7x+HhqjFEuxZIuh4bGHhV2Z98n/jAzEB/SN3ANiNEEQ8YczFi4AveLUHf/fffLkQ80gJkqd/QL/nbdrYSe1Gi8xocffoDfvPkbvP3O2/IA9WPHjuHChQtyH05FRQU6OtrH9x4cEbQ0R68MeDLAdba4gp64aV0trrl5tL+OQp0Xgy/9zOnfiCpzH338Ec6cOXNLEKG9kkuWLJF79Giv3mC1NVzBxy89iLmP/BAfD+SfeP3L+M22XFisR/Hq93x/5MdXsYnwPJxq1ffm5ci31uJj+Fi+5zsyM7PE74MHsGH9elmxc1fsCT2eT58+LYNdSWmJbIhibDzicDeOKKFRMMRlAiGRg1qOdaM9c/13P1GOcz/lUzMFfQ193D8GDCkX0D6wyCREpOZgSu5cTJkyVXbC3g5V3aiLlZog9uzZg507d8o5Xzt37ZS/6OlM0+vVrkP6+exI3+DuSqa9dXQsG1Vb+nfK0jm+dBg+7ami8TV3CvO3eHMbVi99EN9564p+4W7W4uXnH0GOxYpj//4C/tMPTmBwCw623PK46OrqHMb9/EnMz5Jr2Sg67TvL0fR3nCp+B9yz8h6sumeV3GPnuRRLx4fRwf+0v45GnXCwY+MZh7txRAmNhRLrGgsyWBTcrneoaOxW0SsSnY2qdOL9K41OuRxLgsS9KVy8iKZlW8/oSJ+nrx0aRfzvKmj1KEJQKKAnLpo/V1dXh8KiQlmNO3LkMN5//3381+9+i3ffe0dWhfy9y3W8oGXEL3Z8jkOHDqKysqJPNZXGWtC5oF97dCvmzJ6DuLi4gYe8AXr816/Iblrr4V9g2xv+VbMLDQ2TPxNPbW3WW5dkB2wGEmQzST2qPpAXxhQt1dO+zNmzZ+O+++7HypUr+/x9adQJ3WcOHT4sR53Q6TD0Yo+x8YzD3XhBlbrQaCgxqfqFwTt83Y6TNQ6UW1WUtqk4XOXA1VaHXI6lMJcQYsDkKKNcsnWjUFjbqaGgeajhDihq6kJ9u03unaFAR8NH8/KuiUBwBZ+KX+Y///lrePmV/4Ptf9yOwsIC+cue+R+q2n2x4wv8/g+/lxVWWlZ0d8rSqQM0H++FF/5ZHrOVlJTktYCX/vR2vLg+Aajage/8je82TtwO7U806vPc3CgYa3cZH/SVnkpHIr21VuLyGFcw6e9HwY7+7bd+7TGsWLGiT7Cjv2tpaam8z/z3f/9Jnh7DGONwN24o5lAooeLleDBN7hqaum4NO8rt+MUFG/79og37q+2w6wUWaq6YEmPEsrS+T7iNXarsls1vG/q+tu6gSFQ3t2Pfvn345b//Ev8ubvSWbjRxnpZjWWCgpbRr167hjf/8tZxNdrvq0yMPP4LH/+JxzJg+Q78yDJlP4+W/X45IZyU+/tGz2K9f9hdU1YzvNxCaQvLQq3YexEN2rFsRqBP+gfsfkEer0YkTntzB7k9/+iMuXbqkX2WMER6FMk4YopJhmroGhml9DxcfKosRSAk1IDvKgNhgAxJDFaSF01uDrNzZVQ1nah041+BESZuKFtsw7maaiqiKw1BKjqK9uV4uy1IIGBedreMQLcPR/LuY6BisX78By5cvv2XZkTbOX7p0WZ4RSmeF3tWdRoB4DCu+q4HMyBtlKSkp2Lz5XhmA3KhZ6J133xHh+KR+xT9RtzTNrly7dp0MeVTFc6O9mrSP9sDBA7Ixiqv1jPXFlbtxgubbyfNFvSTaYsCaCSbck2bG4mQTcuOMSApzBTtaim0TYe56u4bK9mEGO6IY0NJpQ31Lu1yWpf12HOwCl3tPJTXAHDi4H7t27ZTL7Z7CwyNk1zQN7924YaOceTYkLZUoKii6/a1Wr1u5v6a4yvUxG3Ezc2fK/XW0DBsfH98n2FGl/sSJ49i9ezeKi4s52DF2GxzuxgtziOvmJU7xBNxuB2o6VZRbnXIfXlOXJocWEwp5WVFGzE80YWKkK/QNizkYSlCw/gEbL+gYrUOHD4mQd1AuwXk2WtDZwTNnzsLGjZvkcWZU6aG9eYPy4Qt47L6N2HS722FXY4U1//euj5/1vVMaaD9aWL/TWNrbrbDZ/Dfw0P661WvWyFmWdISgJ/f94SDdH8r63h8YYzdxuBsnFCO1sd6cBzVczT0aPi+1489FvfhI3HaV2XGylpotnLK5gpZqFyQbcX+2GWsmmJEePry7mmIMAujGxh13pWbPnlsrNVSxy8jIkPvw1qxeI88UHnIVzw/Rnju6eaIOcX8b90MjTWjUCQU7GlS+YP4CGd49UbOEu5Jb0K+Syxjri8PdeEFDi5XBDS7+KrT02u3U0CBC3vUuDReanPhzSS8+FEGPjiZzL5qGmhUsEiHv4UlmOSplyAU893FZbFyiPVa7Rbj77X+9KY+Lo4Dn7qSlYCAD3iOPYu3atUifkI4g8/gIeLGxcfLmyelxdrI/oCVXCnYU6P75hRexdOnSG3P7aImeTpygM4Y//vgjHDp0iMcbMTYAHO7GCUX8klSGcWTUQFDgo6VaOnPWvTxLzEYFyaEGLE82wTzUexztsaMbG7fc3ZE/ffX/w4d//vC2XdKrVq3Gtm1/jUWLF+lXxp9qb3XLjpLIyEgsXrQY3/zmU7KRxhM1Tl2+fBk/+F8vyuYJf/p7MTaWONyNE5rqcB32PgS0Xy4xRMEDWWb8/SwLnhG3+zLNSAimM2b1L9L1OKiRQpVBz1N4kILp8UZ5zuyQiO9fnoXKxjUKeNRUc2D/frz73ru3dMrSkmxOTg62PPgQnvj6X97cg/fmNsydlD24btfnN2Ki+G/mbvOv2XdOlebc+ccLITpWjpbUt2x5SO4f9DwXur29HefOnZMz7CjI09xDbqRibGCMMTHR/6K/zwKYEhYDQ2w6lKgU/crABRmBjelBmJ9kQla0AUmhrvEnFqOCkjanPILMja5RlW5yrEGeVOFGdUO7Crkvj94OltZQDK1e3Gwd+hU2nlFFp7W1BR0dHQgLC5ejUtwdlXTWKFWDqMuSBh2rIhD22Hrk8l6gWbhwkews9Txfdc/ePXI8iK83G1Cwo3ODFy1ahMTEJP2qS2VlJY4dO4qDBw+gpEQ87jnUMTYoXLkbL+jwd3EbCrMIabMTXKNOgkV4CzaJACfenyOueQY4t9vV5uhXs8MzBQ6SZhv6988CEy3R0ZIdnR1MDRdU6XGjUJeYmIj169Zj8+bNcqM+VYYCDXXK9v97tVvb5Wkuvor+beicYDovmM4NpvODPdEQ5uPHj8nzhvPy8/SrjLHB4HA3Tqg97dDEbShopYSWVY0e9xaR8RBuVm65A5nEhSgLnS3bN+LRebT1Xdoty7UD4rSLcCe+fw53rJ/2jnacOn0KH3z4gTxTtLGxUS7fEark0TFltA+PjizLnZGL6Oho+blAQEvOJo8OePd8QFqW9VX0PU/OmYxHH/maPC/Ys9OXKo3yjNhDB3Hk6BFZvWOMDQ2Hu3FC67ZC7W4TKW/wv/hpRUR2wHoEM4d439orwpr+MaE4F2pSkBFpkOHPjf6zTruGohYnHENJd92tIphaoYmQx1h/FApoGfL999/D3r17UFVVCbvdFfDcaGba448/Lt9aLJY+e7v8VXJyMiIiXV2lxBWOKn1yqC8FbQp2tB/yySf/BlOmTLmxH5I6eymQ03nCtL+Ozhem6h1jbOg43I0XFOo6W6C1Df5gbcpj1R0qejyWVZu6Vewus8uKnFuIUTzhhIpwF0WNE/pFweaAPK3iRP3Q9tuhtQboGlrVkY0f1dXV+OTTT/CH7X/AyZOn9Ks3padnyCVaGpfiuUeNjTyq0D36yKP4/vf+CdnZ2XJ8jRstr9M5wnSeMJ0rTPspGWPDww0V44jBHAJDeCyUmAn6lYGhcFfToSElzIAoCzVKuJZfY4Jd58lmRhgwM86EZakmLEwyIdpysyriEGHuUqMDO8vtaOoZQtVOUMtOQ20ogmbr1K8wditalnQ4HHLvXUtzswhwQfLsVXeQoOpRSEioPPWArlMYpIYMf0VLzLm5ufJkDkIVsJaWFpw9d1bOBfQVc+fOlcfELV6yRA4mdje+EJpZd+TIEXwqQnnV9SpZdeTmCcaGj8PdOKJoKhQKeBNm6VcGhn7VtvfScWOarNQFGRREBCnyfNn4UANSRehLjzSKoGdETIhrt50qfkGXtWmyO/Z4jQPltxmPcldyPbgDjsKD0Jqviz+Ujxpid0cBj0JbU2MjOjrbkZCQeKPpgIJeeHi47KSlZU26r1IY9OUGhDuZNGkSZubOko0jhP7e+fl5ssnEs7lkrFDjxMyZM7F+/QbMmjUbMTEx+mdc6LxgGkp87PgxVMqldN52wZi38LLsOKLaOqG2iJBES7Mi6A0GffWVJicOXXdgX6UdB8XbM/UOVFpVGfysNlW878T5Oof83L5Kcauy44C4FbSqQ1uO1USYayyFZm2A5vC/J98ByXwa28+VomTXy/qFW6VveRFv7rqAawXi64pdt2unv8SbP3gY6frXsL5oaS+/IF8eLn/02FE5/Nh9JBftt6Oq1/Jly+UyLZ2I4K5++ZO01LQ+R3RRxYsqdr4QkmgY8dQpU7Fhw0bMEgHP8/ukvYH070HnBdM5sXRerG/KxTd++ilO0OPT/bg7dxKf/PRJftwxn8eVu/FEX+4wGIOgxGeKd0zy48GgJoqydhV5zU4Ut6moatdQ06mhQoQ8unau3omTdU5caHCiskNF11DnDtP32tsJZ94+qM0VgKPvBvnAsBYvv/tj3Jsi/h1aruDnv9+tX78p/ent+OTfHsHUWAtMbZUoqmxAsz0MiQmJyJp3Lx5c0IWdfz4Lq/717CYKOzTwuK6uDh3iLW3gp1BHFSU3qnolJbkqeHX1dX61LLhMhNOJEyfeONWBKneXLl2SB+qP5b41eUbs1GlYu3adnGHneeoEBc/a2hp8uftLOb6Gmih8k3hs7noLzy1PQZjJhobSMtR0mcTjLhaJ09di65IufPYBP+6Y7+LK3ThD41Ac5Wfl3LjBVu88Ubdsi01DkdWJU/UOHKtz4IIId1Vdap+zZYfM2QuttRqOivPiew7AwcWZT+L1va/j8UkW/cLtPIef/T/LEQkbij78DlYvXIVN923EphXTsOVnR+UTS8LKp/HSY66vZrdHB87TLLzPv/gMJSUlcgnWM8BR1W7dunVyJh6FP8/N/v6ERqBUjGG3LP3cKEDPnTtPHgG3YsWKPo0rFOyqq69j586d2Ldvr0/tC+zvW797zfXYbDmKV7dOw5JN4nG3eg5Wv+x63EUufRovPur6WsZ8EYe78YZmxnU0AIUHgS7f/eWKrhZohUfk9xtY0vHQD7bjwBcvYXOmePL4qr1e312LXNoq1nAU//n9j+A59evKL7bh9+fov01A7qaHXRfZV6Kq1pu//Y0IFvtuWbqMiYnFfffdj79/5tuy4YINHoXkLQ9ukbfU1FT96k20F/DN376JvSLY+fT+usyX8PCySPFOA/a/vA2/vOS6TCrfeAEfXaX3EjBp6Xx5jTFfxOFuHNIcvbAXH4NaVwj4YlWsowlq1SXYq6/KM3EDylMv40dPLUe6yHXWS2/hOz87c8elnc2Z4glG5Der+Ld6R7/mqU0PhpYw14Z69tVo2ZI6ZL/Y8Tneeut3sqLnRh2c1HRBJ1ls/dpWWXWiI818GTWE0DFrbqpTlUOAR7tyRxW7jIwMfE383NatWy9Dnmf1s3/l1OfPiP3rBcilb794L374nuvSTZX44ZZseebwpufP6tcY8z0c7sYjTYXa2QJn6SloTeW+VR2jpo/aPDhKTrjOkfWT/U+D0dZwBR+/9CDmPvJDfPwVDcA7v7MR02fc6eD6dKTrT+y2znr5lt0dVYxqampw4uQJ7Ny1ExcvXpRz1gg1WlDAmz17Nu6/735s3rRZnn/qq2gJ1HP/IAUmeULFKJ4pGxEegUULF8lgN3vWbNmFHBQUJD9Ho1lovyP9nL/88ksUFBT45IDl/r4xxdUu0VB2rE+1nDF/wuFuHFMbiuGsPA+tpco3QpTDBq2uEGrFeajNAfpr9c1tWL30QXznrSv6haFJf/plPDyD3mvAlV0fyWtsYCgE0X4vOph+584dOHf+XJ/RIdQQMGXKVKxceY882L7/0N2x5u72NZtvBjuqSra0tojXbaP3OKYO2JmzZmLTpk1YsniJ/Lm5yW7lfOpW/hLHjh6VTR7ubmVflx7retHU1vIRcp98DbtO593oli05dxDbuUud+QEOd+MYndXqrLoEZ9kpaO114sJYzZETT0iOXgS110CpPAtnXYF+nd3W+pfxm+9SowVgPf7GbZaO2EDQAN2Tp05iz57dMuDRubRUbXKjUxWWLFmKDes3yJly7uOyxhoFTTozNyjoZjMONYlQlczp8f2PJKrYzZgxA+vWrpcz7DwriBTsaPl1564d+Ozzz9DU3KR/xj9E6j/WqHlf4r0fPowcixVFBUUoqrWKT6Zj2VOv4ZPtT3PAYz6Nw904p3W1uE6AuPqlq8HCSXvcRu/VP42gMIpQGWFvRUZnIWJ768XHAbbPzpvWv4RPfvp18YQjntCL38Z3tr3BS0fDlJeXhz/98Y+yg5OGH3sGPKqQ0RDeb/7tU7KCR+fSep6wMB5RyKWl640bNsrTJzxRBZGCHe2xo5MnfLpx4i4SJuXAdvxVbJm1WO9S9+yW/R5+9pzr6xjzRRzuGNRuKxzl5+A4tl0ODUa/Q9dHUpBmR7apA/9zfTa+++Qj+PrWRzFjulxvZP2kb3sdB/7vk8ilPovij/D80y9gv/45NjzNLc3YsXOHXKbtP3uNKmUU7P7yib+S59JSRW88e+ThR/H4449j+m0ep9euXZU/Q6qI+r2GffjJtl/AcwNF5Rvb8JMDDeI9C3LXfM91kTEfxOGOgfbbab3dcDYUo/fkf0MtOAi00y+wkWXpbsIUrRp/uyQVaVEWRIRSRWCWnGrfvyIw3q154X2898N7XV22V9/Cs5u+g499dbC/H6JqHVXtaEzHn/70R1nN8+QOeA8+sAWbN98rO1XHClUOM9Iz+iwTU6NCVWWl+HuMzNYK+t+aPHkKtv3VNnmiR2JiUp+lWLJj5xf44MMP5MgTf67YFTW4+tfv1KX+ToOrAccSOb5DPvNtHO6Yi6ZCs/dAbamCo/goHFe/hFp2SoS8EejEbK2GWngYtgufQ6s8i8zYEJiNrjNpw/W9PIsXLXZ9LcOaV77E60/PR4LRhoY9P8GWLT/kit0IoIBH++5o/90HH7wvOzxpX54bBRza60bNA1u2PCSXJvsHnNHgDpqeJz9QqKOGhZEYMRIWFoZp06bjsa00Imal/Bm4/9401qRShErqiD148CAKCwvR3jH259oOx5VmV3iL5PDG/BiHO3YLVYQvZ9lpOPP3w1lwGGr5OWh0BJhN/NIeSmWA9vF1tUJrKIVaelL8mQfln20rOYXmygJ5zqTn+AbqwqN5Y/PmzRuTJ09fIoPdYzmwyFMqnsdjz/Aeu5FGnbMU8Kgh4ODBA7fcP+nIsuXLlskKM52f6hmyRoOiGBDV7xg1u13vlvVyuKMl6Pnz52P9+vXi7QL5sft/l6qFZWVlN5az6YxYauzwd8f2FkGuW2Qtx4uZ8lIf/5DlaqWwNhTLt4z5Ij5blt0enWTR2SxCnYgSLeLW0y4re3CIm90GhQ7yp9BGQ4Yp8MmbeN/ZK75GfK63S/w3Vtef0VYNta4IWsV5OIuOym5YjZo3xH9DT0a9djuSk5LEk2TojZETtHGdzvwsLi6SFQnPTe4BZd5WfHtVOiy3O1t2/Wv43feXI9Yggt17z2LT/9zBZ1mOIpp/V1lVedv7J3WqJov7J1XzusX9k5YhqZlgNGbMmc1BWLx4sTxf2D1TjiqMhw4dlPsFvfVYoWaSRYsWy27hObPn6FddOjraUVJSiqNHj8oQbLVaR3W+3ojKa0DOfQ8iNzkFuYticeVP+1Gmfyr3ue348dZs8WKrEvt/9I/4rFT/BGM+RsmemDV6rZHM7xlCo2GITIYhKhkIj4cSEgHFHALNqFcRHCIU2kWw62oTzwANcLbWQrXWQ6Oq3x3QE9S6teuwadNmeWyR+wmUlnyog5GWfOhkgYB58vD01Hac/8FyRBa/jYmbXtAvuvzD23n43kLXXAZb150rIvXHfoLVz7ylf8S8zX3/3LBhgzyazPO8VELLksdPHMepUydRUVHh/fupQhsWxE0xyPdp0PIzTz8jG4/CwkJhENcqK8rx6zf+45Yq41DQHD36O69ds1ZW7LKysvXPuNjtvTh9+oycYXfx0kX9aoBZ/yLee+VpzI8R7zutqCyuhy0yHTnJ9HjUX2w9v09+KWO+iCt3bFA0hw1qVyvU1iqo9YVwXr8CZ+UFOMvPum6V56FevyyPNqP9e2pXi/jl+NVLNVRpkE+K4m1cbBxiYug3qr5xPCNThj2qSPjyQeNDdsfK3ZP4zgsbkK6v+JnMpjvelPpj+NUHfBTSSHHfP8tFgIoV98+UlBT9My7h4eHIycmRb+lFiPvEC29RgkJhjIiDMSoFxuhUmMQN4QloEw+rhpZ2OESY62xvxScff+SVYCnD7Lp12Lx5M9LSJtwy+uX48ePYJV5w5eXnBW5FvfQQ3tlZhrCsHOSkpiAxKRax4SbYWoqw51cv4ImfcLBjvo0rd8xn0DIQHfu0atXqPud6Uqg7ceK43LBdUMgDjtnYoCVY2gtKzT40uLd/xyzt1aP7Jy2Pnjx5csgdo4awGBjjMqFETwCikoCQKChmi/iESfzGNsqwFRYeBosIYSbxvsVshGbrQsXVM1DbauVWCpW2Qgzh3Gj6Oz344BbMmjlL7q/zrFLS34f+XjTDrqS0RA4rZoz5Jq7cMZ9BG7RpSYiqI3T4uBs9qUZHR8mKCB1pxNhYoD11tLeMToKgrloKPvQixF3Zon2iMdExiIuNRVd3F9pa2+TWgrtTRHgLhjFxEoyZ82HMWgTDhJkwiI+V2HQokYlQQmOghERCCY4Q/0Ph6FWC0K0a0ek0oM2uwOowQgmPl1sm6L8xRKeJr48Sf7YGrfvuOzWpiWnq1KlYuWIlli9bLs+IdW+PILSnb/eeL3H40CF5lBgHO8Z8G4c75lN6bD0wB5llM0WkfjA+CQ0Ng9OpoqGxQT6xMjYWqHpFleT6+no5Fy9ahDk6U9Vd4aK3MTGx8r5Loa+9vQOdnZ3yc7cjQ11cBgwZc2DMmAdj+lwoiTkyqMESJn5Diz9X7rm7C9qPZ7IAtAc2IgFKlAh5EYkwiEAIswUKddFSo5N26zIqff/z583HqtWrMXv2HPHiKla+yCLUzFRVVYUzZ8/Iil1FZcWQK5KMsdHD4Y75FBqlICt44n2ap0VVO/cTDe1pCg0LQ0lJsfyakZjpxdhAUEWOKng28WKEGhzorFWq3BEKdXTfpeYLTaXhyJ3i622y8neDwSQra4aEiTBNXg7jlDWy4oagUFdQGy4RCpXQKCgxaTDGZ4o/UoRE6mSnjnenK5zR90mVx9mzZsuxLnPmzJF/Fzd6jFGl/NDhQzh27Kj8+/JjjjH/wOGO+Rzau0RPJJTpMjIyZDWEAh49eYaHh8mvcVcQ+MmGjRVqJqBOWZrvFhMdLQMd3U/dy7T0YmTmzFlyLl5dfZ1c0pUNCAYjDBGJMGUvgnHmJijJU+W1EUF/riVcVgONYTGukUbdLTCIxxZ9f3Q+7EMPPSQfZ25yPJEIr3RG7CeffizPiKUqJWPMf3C4Yz6JlmcpwFHNjjZ5uysKVMmjJyK6XltXK5eNGBtLtOxKL0Y6xFtajqX9a56oMSFnUo4ITa6uW8RkwJS7GcZJy+Q+OvkqZjSIcGeImSDyXhBizE5sXLNKHqVG36+7Ok7oRdO+ffvw/gfvoaioKHA7YhkLYBzumE+i6gE9yVCAo3BH+4CockdPQlTJo2t1tbXywPeBbVpnbGTQfZVeZNAYlIb6erkcS1UxdwWP3tIRXgmJyShstsOWtRJa4mTAEuKdJdiBov+toBAoYbGISUrDoskTkJWeBpPpZtWQ9hMePnxIjjqpqa3pu5TMGPMbHO6Yz3I/aZpNJhnmqIOPUMCjSl5UdBTq6upRK56EGBtLNF+O7qsUjmgmo9FokB3edJIF6bGrKGvpxbmeGHRHTIBmpgGGo1Sx80TLtBTwgiOhGUyYlhqNIJNBFg8bGhpw+vQp7NmzB1XXqzjYMebHONwxn0dPmrTcReGOKiBu9DFtaKfuWW8PjmVsKKiKXFNTI/fXhYdHyPutKkJccZ0Ve8u6UIk4OJUxPi9ZMcAOI0TWhEXtRVJEEOqrq+QpG8ePHUNxSbF8YcUY818c7pjPo5lavTabnJxPgY723blFRUXLjkQ6A5S6+xgba7RHjRoounu65X2WTpI4fb0LJ9uCodIg4gFU7IJNCjIiDEgINSDKoiBEfGw2iF/YiiKrbCbxPl0LD1IQazEgMVSRXxsqrtmcGsT//2oi4DlEwCutaUS8RcOFE4dwYN8eOfaEMeb/ONwxv9DU3ISWlhb5ZJmeni4HrLqXZ0NCgmHvtcuAx5u/ma+ora1FuQhL+c1OlBpSYbdQo8XAlmLTRbB7ZqYF69LNmBlnQlqYAdEixIWL8BZiVhAj3s8MN8jPLUs1YUOGGavSzEgINqDMqqLdPoDKm3j82M3hKCkuROGFE2irq9A/wRjzdxzumN+gESn1dfUy2GVmus6cJRERkXIMhVN1jszB7YwNUW9oIroTZsCRkCPD1EDFBStYkmyWFTyq0FFVbmK0ETMTjFiYZMKiZBNmJxoxKcaIRPE5+hqHpuF0rQMlItx1D+Ih0GuJhr2tAVprjWsWHmPM741iqxZjw0Ohjbpn9+3b26dDlkIenWixYf1GeYC757ItY2NJi8+GGj8R2lC6YkUWpDhIM+loGdYiXstQiAs1u270Pl2jz3U5NFxpdOJUvRPWgVTtPFBjBR11ZkzI1q8wxvwdV+6YX6FlV9rLRONQkhKTbsy/o4BH4ydoZEpRUTGsVm6wYGPLGJvuOieWQtMgw11ssCKrc8FG1x67O6G+h8ZuDRcaHDh03YmqDvXu++1ug45B02xd0JorbpxgwRjzX1y5Y36HqnZUvbt8+VKfLlmTyYR5c+dh+rRptwySZWy0GZOnwBCdKn7Lerc7VhXhrccBNHSpMtQdqLLjSLUDBa3OIQU7KTgSCg04pu+XMeb3uHLH/A6NaaBTAXrtvXLchLgP35gnRqiK19HZgbbWNh5wzMaAAsVkgWnqaihxmeIOadavD5xn5a7VpqGuS0O9CHONPa63VKEraHbikAh15xqcaBZfM2yaCtg6odYX6RcYY/6Kwx3zW9SNSCGPAl5yctKNBgsaeExLtBTwqAGDGi0YGzUGI0zRqTDkLIcS7hq8PVie4e64CHAfl9ixs8yO4zUOHK1x4ky9E3ktqgx+Xoh1kmISIdRhg7PinPjIW38qY2wscLhjfo1GpNCpAMHBIX0OP4+Li0N0dIw8o5YOd2ds1BjNME6YDSV5KhTLzaHbg+EZ7sraVJS3q2jr9V6Quy06vUKEO9QXQeulM5s54DHmrzjcMb9GDRYdHR1ykPHSpcv0q+J5ymBARESEbLig8Sjya3jqPhsFigh3polLoMSmA6ab2wUGo3+4o56KnGiPMSjxRmRHGpAYbJAbp9vt3ohiChS7DUpbDdT2etcyLWPML3G4Y36PzsC02+2ygzZ9gmvAMaGPI+gIqKgoXLp0UX4NYyNNMQXBOHUNlPC4ITdTeIa7IHFLjTBiUrQBWVFGpIUbkBJmQLK4pYUbkSFCXlKoAofIYtbhVvdozl1nM5yNpeKVE29nYMxfcbhjAYEaJ+iM2bTUNHmeJwU7YrFYkBCfgILCAnneJx+GzkaWAsUcAuOMDVCCw8WHXzHH5Ct4hrtIiwKT+GNof11Fu4pKcWvo1hAXoiBJBLwUPey5jh4DOsRrGAp6Q6KKx0e3Fc6aq673GWN+icMdCwg04JiWXnt7bYiNiZVLsu6AR8eUBZmD0NLcLL+GAx4bMYpBhjrj9LWyY3aookWgm5tggkUEtqZuFVebVByrceDwdYdspihoVhFicoXAcLMiT7KgkBcRpOB6h4r2oVbw6Pg+WyeclRd43h1jfozDHQsYtP+Omido+ZWGGdON9t7RMi01W9C5tM0tzfKMWj6Dlo0ExWiCITQGxknLAFOQfnXwqAqXEuqq+u2usOOgCHWlVhU2/W5Lh1BUtatyaTYj0rUNgU6ySBQf13RoIhBq6BnKqirts7N3wVl6isMdY36Mwx0LODQipburSy7P0pmzbsnJKbLBot3ajrr6Ov0qY96jGIxQQqJgnLhkWOGu06HhcpMqR5+U62fF9q/E2UUOmxJjRGakQQQ7VxCk/xthBupFuKvtGkLtTp915yw9yeGOMT/GJ1SwgEOVu8uXL+Pq1av6FRdapp01cyaWLFkiZ+ExNjKG1dIgWQwKUkMUhJkU+afRqRT90SUKeHTzFBvi2n83JPSHcpcsY36Pwx0LSO0d7bh85TKOHz+mX3Ghgcdz587DmjVr9SuMeY8mgpHm6B1WvKMRJ1smmvHgpCA8mmPGfVlBSA+//a9qmu7Tf8JPiAh2ZtdK7eDJZdneW/9Qxphf4XDHAhbNtzt48CBKS0tlw4VbYmKiPIM2Ozv7xtgUxryCwp29x7WkOYSAFCR+I2dHGbAyzYRZCUYsTDbhHvE+Lb0OtBhnFF9nkAu0Q0DjT2wdHO4Y83Mc7ljA6urqQmFRIfbs3YOamuo+c+6o2WL9uvVITUm90VXL2LBRKKJZcRSQhjAnjpZTo4MUhJpvhrOYYHHNosBym9ch1ERBN09O8S2IiKl/NEhyFEqbeIfDHWP+jMMdC2h0NNm+fXuxc+dONDQ03OiSjY6Oxtq167B582a5/44reMxraGmzvdEV8gZJVt36zcaTYU1mrb7X6SOT+A1ON080yLhniNN+aElZ7WgQGZX33THmzzjcsYBHFbu9IuBdunwJbW1UlXChip0MeJs29zmXlrFhES8gtNZq1zmtg9Qigllzvxl1tZ0a6ro0dDn6VtNowDHNtzP1K92VtTnR3DPEypv4nuX3zqdTMObXONyxgEdnytIJFp9++gmuXbumX4VruHFQEJYsWSqbLOLi4vTPMDZ0muaE2lzm2ns3SFShs9pEmOt0Vc5olfdygwM14uP+cW1FmgkTo27+CqfPd4hgeLLOiaqOIVTeaL+grQPO5kr5PmPMf/GcOzZu0OkU9BRI8++oqcItODhYXNXQ3NyM69ev61cZGxqDQUFiTCSc8ZOgWiJp+J3+mYHpFQmPQh41VsiqnHgREhtsQBodNSZumREGLEg0YWGSCYmh9DWuUNjRq2JXhQOXGp1opynHg9VjhVpXCGfFef0CY8xfceWOjZr0LS/izV0XcK2gFCXF4laQh/NHPsVrT+bqXzHyqHJH41H6h7jMjEzMnjUHaWlp+hXGBodeJND9Z8nixdiwcrEIYSYEa4MfBEynS5yudx01RhW49AgFy1JMWDPBjLXprtuaCSZMECHPLH6Dt/RouCIC3b5KB45W29HWO4RgJ2gdTdAaS/SPGGP+jCt3bFSkP70dn/zbI5gaa4GprRJFlQ3oNCUiMSERU9c8iA0RF/GnQ5X6V48cm82Gnp4euRmdTq+gJ2RanqW3ISEh8jqdXkFfQ8u5jN0N3XdoSX/SpElYtHAR1q/fgAULFsLa0Y16m4IObfAnVXSJTFjU6jqWgqpyVIijPotgo6uBotMBNIoQWNelIr/ZiSPVItjVOmBz/SeD5+yFRlW7slPQbJ36RcaYv1KyJ2bxMxgbYcvx2t7teCgTsB7/CbZsewOuGJeOh376Jl55NAeWrrN4ddZW/FJeH3nxcfFYt24d7r//AXkkGQU80tTUiL1792LHzh1yGZfPoGW3Q/cX6rCmPZs0L3Hp0mVydqLncXcFZdfxSbmKC1YLNGXo3dh014yzKHJZNiHEIF900NFiVZ0qOkTqo27a4aImCmf+fjjyD+hXGGP+jCt3bBT8A/7H/56JWBHpdj75j3jnRsOqFfm7ErH26cVICQ2D0vorfHBB/9QI67H14Hr1dWRnZcuxKO5Zd1SFoc5Zinq1dbVyVh5j/dELgqlTp2Lr1x7Dfffdj+nTpiMiIuLGiwQSHREu7mO1qGpog5323g1DjxNo7NFQ0a6iokNFo02T16iq5w1a5XmoFeegdVv1K4wxf8Z77tgoaIBVZqRgRC6SF27KjITFQu+0wTqK232oIme1WvGH7X9ATU2NfpU2wxsQHh4uR6TMmD5DPmEz5kbLrytWrMA3//ab+Jsn/xZz586RA7Gpgkf3HU8NDfVw1ObD0iru2DTUeBgoxDlUarZw3eh9b+0a0BpLodbkQbXW61cYY/6OK3dsFBwD5m3DhokJyFq4CrHNV7D/agPSlz6NV/7v01gWY4Lt6jt45pVDGM26AS1vWa1tciktLi4eYWFh8jpVX6gy43A6UFdXi6amJnmdjU8U2qi7euGChSLYrcTiRYswZcpUeS0oyNIn1NHInerqahw/cRxHDh9G/tVLaG1uhtMQBCVmgv5VPoLSYW8n1IKDcFZflWNQGGOBgffcsVGSjm/86HU890QuEvpsP7Khctcv8MNnf4H9+pXRNmXyFKxatQrz5y9AQkKCfpX23zVh166dOHT4kDzdgo0vUVFRyEjPQHp6OuLF/WLa1KlIS5sgg39/tHxfV1eH8vIyFBYV4dq1q/JjCnuKJQzGpCkwzbwXiE0XadFHTkNx2qGWn4bj8i6obbUi7PH+UsYCBVfu2KhIf/o1/NvfLUYKbW1r0btlDWGICrEgKmsy0sOK8M7hMtcXj7Km5ibZPEFLa/Hx8XLfHaEn8eBgi3iCtstGC+qgZYGP9mCmpqZi9qzZWLduPe677z5MnTJVLsl6nkNMld/u7m7U19ejoKAAx44fw/4D+3HhwgW55O906qc8iBBFHaiKvQeGqGTAHELlQNfnxoqjF1pLFZyXd0Brq4M8U5YxFjC4csdG3sqXsevXX0eOxYaiD5/H333/I71bFljzwvt47en5iEQD9j+/GE+9p39iDFBzxYYNG+QoC8+zZsvKSrFnzx7s279PVmJ4RErgoaVVCvd0W7liJdauXYsscX+4Hdqv6XA40N3TjeKiIhw8eBBXrl6R5xh/FcUUBPOU1VAmr4QSkTB2FTwR5LSmCjgvfAJHbQEHO8YCEFfu2Ih76H/9BH81OQy4+kc8+s1f3Qh2pOzwOzCueBbLUyOREuPEL987qX9m9LW3t8PabpVP6rQk595LFRERKfflOVUnKirEk6K7IsMCBlXl6IzhZ55+Ri7PU5NE/wYJNwpxVJ177/13sXPnTpSXl8sK3l2JUKi2VELRnFBCY6CEROmfGD0aHTFWmw/1yk7Z7MHBjrHAxJU7NuJe/KQU35oBVH6+Dav/8ah+1cN338e15+bDUrUD21Y/S+0XY4aWZCdNysE/ff+fbjRYELvdjsqqSvzrv/5IP8aM+bvk5GTMmjUb06ZNQ4p4PyYm9itD3fnz53Hq1EmUiTDXKe4DLa0tMtQNtpKrhETCmDIDxolLgJRpUAZ5PNlQKV2tcFZdgLP8LNSmcmi9AwikjDG/NMYbPxjzLbSvrrS0BOfOnRMhrl2/CrnXKjUlVVZ3qMrD/BMtu1KDBP07bt36GDZu3Ci7YCdPniL3W/YPdnQfOHnyBP7rv36Ljz7+CCfE+wUF+XJGIjVRDGWJnmbJOWuuwpG3T3aqoq1mZJsZVCdQVwjHlV1wFByC2ljKwY6xAMfLsmzEOZZvxdbJUYgKMuHk73agSr/u9vgz38e9WWGwFe/AC++MZd3OhZ6wqTITHh6ByMjIGw0W9MSfmJiExsZGtLa2yKPMmH+g5pgJEybISh2d/UonStDgYTqpxLNJwo26o/Py83D69GkcP35cjjapra313r+5wwatqwVob5DjSBRVhULB0ii+F2/txesV4bO1xrUMW3oKjsrz0DoaXWGPMRbQONyxEVd1NQUbnliAxLhszMmoxP5d+Tfm2eU+tx2vPTENFjTg8GtP4aOr+ifGEG2Yp/NlacM8BTzxGJHzzGj+HQ04pupPR2cH2lrbZIMF803ueYXy/OKpU7FMBLo1a9Zizpy5ck+lZ9MM7aPs6uoUAa5ODrU+d+4s9uzejYMHD8j7wogcQydCltbTDrW5AqDQZe+FIit4IuhRRZCOLLvDEvHtif/GIe6P4s/UOprlcGKt/AycRUfgbCiRgZIxNj7wnjs2KtKf3o5PXlgOeQiTtQFFtW1AZDpykul4ChuK3nsWm57fR5/1KTQOY9OmTVi4cFGfMHDp0kV8uftLnDl9Br3iSZn5DqqwmowmhISEYFJODlbdswq5ublyxEl/FNpoP2VbW5tcbqWO6KKiojE7ds4QHg9jwkQYkqcA8VlASDQUg4mSqriJoOdxvJkMcxQC5U2F5nRAs9YA9cWuEydaqqDaOvWvZYyNJxzu2KhJ3/IiXvrHr2NZViQslJOcNpHzirD/P57Hd9664voiH2MymbBkyRJ87dGt8sxZNxqFkZ+fLwLeLhw5ckS/ynwBhTgKc6vuWY0cEe4o5NG/o+e5r240aJj2Vx4/cQylpaWyEktVvDEbd0MBzmAUb8QDxGiGEibCXlQiDGExQHAkFHMoNBFcb1TpRHjTulvlcquzrc51ygSFPFp61ejGv94ZG4843DF2F3S+7OJFi/Htbz+rX3GhTsmz587itdd+pl9hY8nd/Tpr5iwZxGNiYmSw6x/qKLxdv34dZ8+ewbW8a/J9qtz55JBqYxAUkwh5ci+eCHVyP57+96ElXBHgqGIHZy80Cnu8n44xJnC4Y2wAKCzQQfEzZsyQVSA32mT/8ccf4cDBA7z/bgzQ/keaQThj+gzkTJ6MzMxMJCUm3faIsM7OThnkKNDR8GGaWdjY1MiNMYyxgMMNFYwNgOpU5Xy76OgYWclzd1hSuIiPT0B19XU5BJmWa9nIG0z3K/27lJWX4eLFCzh56qQcbVJQWND3iDDGGAsgHO4YGwCqytH+LJutB7ExsTcCHjVZUAetJciCluZmGQA54I2MoXa/Xr16BYcPHxK3w8jLuyYreHyEHGMskPGyLGODtGL5CmzefK8MGJ5Db48ePYIdO3fIRosRGZ0xTvlz9ytjjI0FDneMDRJV7B64/wFs2LBR7vdyo1Dx+eefyREpVOVj3uHX3a+MMTYGeFmWsUGi6pBT3GJE6MjMzNKvigeT0YiExAT02mzIy8vTr7Khou7XZcuW497N92K5eEvHhtF5v/Rz9gx2FN6qqqqwb99eOZrmzJnTchAxdTNzBZUxNh5xuGNsCHp6uuVyIR0073nWbGhIKMzmIBksKHCwwYkIj8Ds2bMxZ/ZcrFixAvPnz8ekSZPkz5gqpp6hjvbOlZWV4eixozhy+DAuXLiA8vJyuSTL+x4ZY+MZhzvGhoCWYCnA9fba5Tw1OoPWvf+ONv3Trbq6WnZq8pLg3SUkJMhu14ULF2Lp0qUy4E2bOo27XxljbAg43DE2RLRJv6mpEb0i6CUnJSEkJFQuGVIYCQsNk2NS6uvqeXnwDigMU0UuLW0CFixYiI0bNmDVqtVyOZbCMne/MsbY0HBDBWPDRCFu3dp1uO+++2UwcVfwaDM/7QP7/IvP5bBjDniuQEehjRoiaIQM/dzWrl0rQl68/hV90fIq/RzbrG1y8DB3vzLG2N1xuGNsmGgfGFXrnnzyb+QxZbRMS6iaRMu3b731O5w4eQKtra3y+nhG3cXZ2dmYMSMXK1eskPsTKRy7A3F/ly5dxN69e3Hh4gVZvePuV8YYuzsOd4x5ydy5c/HQQw/Ls009UdXuT//9Rxw9elS/Mr5QpS4tLQ3z5y3A9OnTkZiUiPCw8NvOqSMUiE+ePIlTp06isqoSLc0taO9o1z/LGGPsbnjPHWNeQnu/QoKDZQctnZjgRsuPivh/7VYr6hvq9auDoygGKIa+I0B8HY0tyc7KlkOfV668B3PmzEFWVpY84SNY/Jz6a2hokGNMaJzJ6TNnkJ+fh6amJlmtY4wxNnBcuWPMi2gWGx2LtVwEGqpWudF4juPHj+OLHZ/Lw+tvT0RAczCUkAgowRFAUJi4hYiXYEFQjGbasEZrvXTQLTSnHYqjB1pvN9DTAa2nHZqtU1wf+yBER7OlpqQiKzsbUyZPxtSp02Q3bP+lV1papaXqqutVaGpsQlVVJa5duyY7XxljjA0dhzvGvIxCHVWr1q5dJ6t47lBDoY6OKNu7by+am5tvNFgopiDA4gp0hogEKNGpMEQmQgmPB0KjxOdEyBMB7wYR7uCwQaFA19UCrb0RamsNVGsdtM4mEfRE2LO1u4LgKKGlV+oWjo2NwcSJEzF3zjxMmzatzwxAN2qSoDN4G5saZZPE6TOnUVxcLEecMMYYGz4Od4yNAJrPtm7dOmzZ8lCfJUganUINAp99/hm6enoBgwmGmFQYJ8yGITUXEMEOhpsjQAalxwqtsQzq9ctwVF5wVfWcdhHyRq5Ll4IrNZPQMvSUKVOxds1aeUQYzfnrjxohaD8dLb9evnwJBw8dlEeE8Ww6xhjzLg53jI0ACj1xsXF45ZVXEBERqV91HV1GS7S/+o/XUdimwJaUCyVpMpSQaFeoG2qwI/qSLZy90DoaoZadhrPivKzojRTqfp03bx6WLlkmu2Cp85WqeLfbG1hRUSG7hs+eOYPr1ddvdL4yxhjzLg53jI0QCjqrV6/GQ1selvPviEMF6q02/PLTY6jWouAIiRFfGDq8UHc7Tju0HivQUApn5QWo1Veh2jr0Tw5P/+5Xep8qd7drkujp6UFlZQVOnjqFwoIC1NXXyZMkuEmCMcZGDoc7xkYIVa8o9Dz88CNYsngJ7IoZFypbUNQbics1Heg2hEDzdqjrj5os2mqg1lyDs/ws1LbaIS/TUvdrWmqaDHSTcnKQkZ6B+Ph4WCwW/StuouoknfOal5+H4uIiEfAq0dLSwme+MsbYKOBwx9gImzJ5CuYtWwVHTBbONmqoQQxA3a+jRYQ5rbMZKlXwio9DtdZCcwy8cjaU7teSkhIU5OejuKRYjjMZTd/afgEvLr25FH5HxW9j4qYX9A8YYyxwcLhjbIQpQaGImroExknL0RmZoV8dAyLQaUVH4Cg+Jrtrv2psij93v37j1wfx4rJE/aNbWUJdlUbbpTcw/ZGfyPcZYyyQcLhjbCQZjDBNmAXj9PVQkqboF8eWdnW3DHjO1upblmgDvft1zStf4vXHcmDpOotfPrgVr5brn2CMsQDC4Y6xkSKCnTEmFaZFT0CJz/Z+04RgVABVPIIH9SB29MJ5bTechYehdvRdMg3o7tf1r+HA6w8j3WjFsZcfxLY3KvVPMMZYYOFwx9gIUcwhMC9+HIa02UBwuH51+MJMCqbEGLA+wwyDyFyHqhy42uxEW+/AH8paSyWcefvhKDwCs9mExYsXI31Chgx0gdn9uhwvf/EmHp9ige3cL7DpsVfB0Y4xFqg43DE2AhRLuGs5du4WwD3DzgtErkNunBEbRLCbJt5SPW1XqR2Hqx2o7hpEF6zDBlN9AVI6CrFudjYyMtIRHR0jQ10gdr+mf/d97HpuPizOIrzz1Ea8cFj/BGOMBSAOd4x5GZ0Da4jLhHneI0DCRK8ux06OMmJ1ugmLkk1ySZYcqLDjwHUHKjoGN+LE3NuBKaHd+OaiFCTERMJAZUAPvtL9Onxr8fqBN7F5AtCw5wUseeZt/TpjjAWmvrMMGGPDJs+IpVCXNNmrwS4uWMGSFCNmxxtvBLvhsAeFow5ROFVYDbvHXrnu7m55Di41SZw4cRwff/wRPvrozzh56qQfBjvhueewRgQ7OK9gx4852DHGAh+HO8a8SoESlew6J9aLzOKRuibNjJlxRoSavZDsdK3dDhwu70B3rwO23l450qSgIB/vvvsOfvSvP8Jv3vwNzp8/78eH+qfjpc3zQQvNtnM78EPujmWMjQMc7hjzIsUUBCU6DUpSjn5l+CjYzU8wYra4xYZ49yHrMIegNTwdV0uqsP/AQbz285/hZ6/9TFbpAkLmtzB/Kr3TgGPv/kJeYoyxQMfhjjEvMkQlwxidKt4x6VeGJ0g8QtPDDdiYGYSEUAN6nUCPV3sYFHQ7NPz50Hl8tmsPCgoK0NnZKefXBYS/XoBcWhlvuIw/v+e6xBhjgY7DHWNepEQmQYlK0j8aHupvSA4zYHOWGWkRBtR2qKhqV9Fp924PlCoCXo0jFHUtVrnfLpB8b56rgmotPoaP5XuMMRb4ONwx5jUKlIgEIFzcvCA51IDFSSbZQNHj0HCqzoGyNifsTi83uFPTBw1ZDrr1FAr/9iTmZ8nddig6/YbrEmOMjQMc7hjzEtpvh7AYICRCvzJ0UUEK5ohQtzzVBMpylxocOCtu9T0jMLlIEb8GRCil2XzeWk72DTOQIP45gHpUfSAvMMbYuMDhjjEvUcJioQSF0XuuC0NkEo/KeQlGLE42IdikoKZTxftFdtR3jeBISkWBEk7ffwBV755KRyK9tVbiMnfJMsbGEQ53jHmJISQSivnWI7sGa1q0EfMSTUgJN6C6Q8X2q73osGuDOz92CAzB3vn+fY6TFmYZY2z84HDHmLcEhQBGs/7B4FEDRUKwgnvSTMiOMsjmiQOVdnmsmDrSyY4EhUIxDf379zlvbsPcSdmYuHAbfq9fYoyx8YDDHWNeIvfcDfFEClrIDTMpsjN2cowR7b3AxQYnLjc70atixKt2RAY7L56owRhjbGxwuGPMWxQDFGVo++0igxS5x25hkglG8ai80uTA+UYHWmyjEet01FgxzP2CjDHGxh6HO8a8RRNBbAhZLMSkYFKUAfdmmuXRYq09mmyicKhAapihzy1ahEBTvwP+w8R/kxji+nxCiCJPtBgS+v4ZY4z5PSV7Yhb/RmfMC8wZ82CcsQFIHNzRYzlRRmxIN2FhimsMSWmrio5eDeptkiKdUhEvAlyQ8WbAa+nW0NitosuhoUG8v6fCjiab+O8H+cjW8vbBUXgIzpbr+hXGGGP+iCt3jHmJZu+G5ujVPxq4YJHpoiw3H4oZUQZMjzciN950y41OrDB7BDsSFaxgYrTr66fEGJEUYpDNGYOl9XZBcwbIsWOMMTaOGWNiov9Ff58xNgzUUKEk5ECJTtGvDAwFMYeqoUvkquvtqhx/UnOHW5ARCA/qm9wauzWUtakot4qbeHutRUWnY/CjU9SyM1BbqsQ3w4NDGGPMn/GyLGNeophDYFq4FcacFeKDgRfFLSKwRZoVRPQLbbezKdOM+UmmPpW5c3VOnKt3oLZLhc0JNHSrsA+2w1Z1wr7/V1BrrnH1jjHG/BwvyzLmJbQsi65WwNapXxkYGch6NJRY1bveWnspsvWNbVabiqoO1+evd6qDH52iif+gqxlaTzsHO8YYCwAc7hjzIq29EegQNy8wKUC0RUFOtOHGjT5Gv3ElUeJaRoTr8/Q22Nj/K+5CFemysQygcMoYY8zv8bIsY15kjM+GadoaKBOX6leGLipIkWfMbp0cpF+BbKags2c9OTVNjk1RxY0qeO/m96JcvHUO9JFt74F67kPYy89C67bqFxljjPkrrtwx5kVqa7UcJaLRUucwUeUuRIS5YLMCi36jAcdyYVb8H/dYPYOiyNBHX0cz84INyiAqd5rs8HXU5EEb5HIyY4wx38SVO8a8SQQtY2ouTDPvhZI0Wb84NDSMmBot4kMH/hrM5tTQ0KXJmXcDemD3tEOtugj76ffkKBTGGGP+j8MdY15mCI+HMXsxjPMe1q/4Lq21Gg4R7Jy1+YDq0K8yxhjzZ7wsy5iXqd1tUOuLgOYKV7OCr+qxQmsogdpYKlKeD3+fjDHGBoXDHWPe5rRDtdbCWXhYLnvKUSO+RnyPWmMZ1PIzruVYPleWMcYCBoc7xkYAdZ06Sk5CqysEfG4vmwhy7Q1wXr8MR/VV/RpjjLFAweGOsRGiOXvhuLILWluNb+1nc/TCWXEeatVl/QJjjLFAwuGOsZGiqlDbauHMPyCXQH2FWnxMBLsLcm8gY4yxwMPhjrERo8nqnVqTB6cIVFp9obw2ZhziexHfh7P0lAidPlZNZIwx5jXGmJjof9HfZ4yNABoSrPVYAbsNijkYiiVcPPKM4jODOiRs6CjEdTZDrb4MZ8FBqC1V4nuy6Z9kjDEWaDjcMTYa7D3QRMBCVwsQJAKeKQQwmUW+G+HiOf3vWmvloGI1b588PYMrdowxFth4iDFjo0mEOSU4HObp66FkzIMSFgMYTN4PeTRfj8adNJTIJWFnxTlo4mPGGGOBj8MdY6NNUaAYg2BImgRjxgIYUmYA4bH6J72Agl1LNdTy03BevwSntV4GPcYYY+MDhzvGxojcfxcSCUNUKgyJk8QtB4jLBAy0H28IulqhNZZCrS+Gs74IGi0B2zq5YscYY+MMhzvGxpgMeaExUMLjoUTGwxCeACUsVgS/KICaL4JCoJnMUBQR+ugkCdoz57BBs3WL8GYVIU6Euo4maO0NrltnE9SuNvG1PngyBmOMsRHH4Y4xH6IYTTLYGfqHO6MIdwajyHaucKe4w11PO7TuFhnu1J4ODnSMMcY43DHGGGOMBRIeYswYY4wxFkA43DHGGGOMBRAOd4wxxhhjAYTDHWOMMcZYAOFwxxhjjDEWQDjcMcYYY4wFEA53jDHGGGMBhMMdY4wxxlgA4XDHGGOMMRZAONwxxhhjjAUQDneMMcYYYwGEwx1jjDHGWADhcMcYY4wxFkA43DHGGGOMBRAOd4wxxhhjAYTDHWOMMcZYAOFwxxhjjDEWQDjcMcYYY4wFEA53jDHGGGMBhMMdY4wxxlgA4XDHGGOMMRZAONwxxhhjjAUQDneMMcYYYwGEwx1jjDHGWADhcMcYY4wxFkA43DHGGGOMBRAOd4wxxhhjAYTDHWOMMcZYAOFwxxhjjDEWQDjcMcYYY4wFEA53jDHGGGMBhMMdY4wxxlgA4XDHGGOMMRZAONwxxhhjjAUQDneMMcYYYwGEwx1jjDHGWADhcMcYY4wxFkA43DHGGGOMBRAOd4wxxhhjAYTDHWOMMcZYAOFwxxhjjDEWQDjcMcYYY4wFEA53jDHGGGMBhMMdY4wxxlgA4XDHGGOMMRZAONwxxhhjjAUQDneMMcYYYwGEwx1jjDHGWMAA/n/BWtJuYAP2CQAAAABJRU5ErkJggg==;fontStyle=1;fontSize=27;" vertex="1" parent="1">
          <mxGeometry x="784.5" y="110" width="631" height="499" as="geometry" />
        </mxCell>
        <mxCell id="st3X0hEhGhKhs0T9y3i2-33" style="edgeStyle=none;shape=link;rounded=0;orthogonalLoop=1;jettySize=auto;html=1;entryX=1;entryY=0;entryDx=0;entryDy=0;dashed=1;" edge="1" parent="1" source="st3X0hEhGhKhs0T9y3i2-1" target="st3X0hEhGhKhs0T9y3i2-2">
          <mxGeometry relative="1" as="geometry" />
        </mxCell>
        <mxCell id="st3X0hEhGhKhs0T9y3i2-34" value="" style="edgeStyle=none;shape=link;rounded=0;orthogonalLoop=1;jettySize=auto;html=1;strokeColor=default;strokeWidth=1;shadow=0;flowAnimation=0;dashed=1;" edge="1" parent="1" source="st3X0hEhGhKhs0T9y3i2-1" target="st3X0hEhGhKhs0T9y3i2-11">
          <mxGeometry relative="1" as="geometry" />
        </mxCell>
        <mxCell id="st3X0hEhGhKhs0T9y3i2-1" value="0" style="rounded=0;whiteSpace=wrap;html=1;fontStyle=1;fontSize=27;" vertex="1" parent="1">
          <mxGeometry x="360" y="480" width="40" height="40" as="geometry" />
        </mxCell>
        <mxCell id="st3X0hEhGhKhs0T9y3i2-16" style="edgeStyle=none;shape=link;rounded=0;orthogonalLoop=1;jettySize=auto;html=1;entryX=1;entryY=0;entryDx=0;entryDy=0;strokeColor=default;" edge="1" parent="1" source="st3X0hEhGhKhs0T9y3i2-2" target="st3X0hEhGhKhs0T9y3i2-3">
          <mxGeometry relative="1" as="geometry" />
        </mxCell>
        <mxCell id="st3X0hEhGhKhs0T9y3i2-31" style="edgeStyle=none;shape=link;rounded=0;orthogonalLoop=1;jettySize=auto;html=1;strokeColor=default;dashed=1;" edge="1" parent="1" source="st3X0hEhGhKhs0T9y3i2-2" target="st3X0hEhGhKhs0T9y3i2-6">
          <mxGeometry relative="1" as="geometry" />
        </mxCell>
        <mxCell id="st3X0hEhGhKhs0T9y3i2-2" value="1" style="rounded=0;whiteSpace=wrap;html=1;fontStyle=1;fontSize=27;" vertex="1" parent="1">
          <mxGeometry x="270" y="560" width="40" height="40" as="geometry" />
        </mxCell>
        <mxCell id="st3X0hEhGhKhs0T9y3i2-17" value="" style="edgeStyle=none;shape=link;rounded=0;orthogonalLoop=1;jettySize=auto;html=1;strokeColor=default;" edge="1" parent="1" source="st3X0hEhGhKhs0T9y3i2-3" target="st3X0hEhGhKhs0T9y3i2-4">
          <mxGeometry relative="1" as="geometry" />
        </mxCell>
        <mxCell id="st3X0hEhGhKhs0T9y3i2-3" value="2" style="rounded=0;whiteSpace=wrap;html=1;fontStyle=1;fontSize=27;" vertex="1" parent="1">
          <mxGeometry x="160" y="600" width="40" height="40" as="geometry" />
        </mxCell>
        <mxCell id="st3X0hEhGhKhs0T9y3i2-18" value="" style="edgeStyle=none;shape=link;rounded=0;orthogonalLoop=1;jettySize=auto;html=1;strokeColor=default;dashed=1;" edge="1" parent="1" source="st3X0hEhGhKhs0T9y3i2-4" target="st3X0hEhGhKhs0T9y3i2-6">
          <mxGeometry relative="1" as="geometry" />
        </mxCell>
        <mxCell id="st3X0hEhGhKhs0T9y3i2-19" style="edgeStyle=none;shape=link;rounded=0;orthogonalLoop=1;jettySize=auto;html=1;entryX=0;entryY=0.5;entryDx=0;entryDy=0;strokeColor=default;" edge="1" parent="1" source="st3X0hEhGhKhs0T9y3i2-4" target="st3X0hEhGhKhs0T9y3i2-7">
          <mxGeometry relative="1" as="geometry" />
        </mxCell>
        <mxCell id="st3X0hEhGhKhs0T9y3i2-4" value="3" style="rounded=0;whiteSpace=wrap;html=1;fontStyle=1;fontSize=27;" vertex="1" parent="1">
          <mxGeometry x="200" y="720" width="40" height="40" as="geometry" />
        </mxCell>
        <mxCell id="st3X0hEhGhKhs0T9y3i2-28" style="edgeStyle=none;shape=link;rounded=0;orthogonalLoop=1;jettySize=auto;html=1;entryX=0;entryY=0.5;entryDx=0;entryDy=0;strokeColor=default;dashed=1;" edge="1" parent="1" source="st3X0hEhGhKhs0T9y3i2-6" target="st3X0hEhGhKhs0T9y3i2-8">
          <mxGeometry relative="1" as="geometry" />
        </mxCell>
        <mxCell id="st3X0hEhGhKhs0T9y3i2-29" style="edgeStyle=none;shape=link;rounded=0;orthogonalLoop=1;jettySize=auto;html=1;entryX=0;entryY=0.25;entryDx=0;entryDy=0;strokeColor=default;dashed=1;" edge="1" parent="1" source="st3X0hEhGhKhs0T9y3i2-6" target="st3X0hEhGhKhs0T9y3i2-9">
          <mxGeometry relative="1" as="geometry" />
        </mxCell>
        <mxCell id="st3X0hEhGhKhs0T9y3i2-6" value="6" style="rounded=0;whiteSpace=wrap;html=1;fontStyle=1;fontSize=27;" vertex="1" parent="1">
          <mxGeometry x="320" y="680" width="40" height="40" as="geometry" />
        </mxCell>
        <mxCell id="st3X0hEhGhKhs0T9y3i2-20" value="" style="edgeStyle=none;shape=link;rounded=0;orthogonalLoop=1;jettySize=auto;html=1;strokeColor=default;" edge="1" parent="1" source="st3X0hEhGhKhs0T9y3i2-7" target="st3X0hEhGhKhs0T9y3i2-9">
          <mxGeometry relative="1" as="geometry" />
        </mxCell>
        <mxCell id="st3X0hEhGhKhs0T9y3i2-7" value="4" style="rounded=0;whiteSpace=wrap;html=1;fontStyle=1;fontSize=27;" vertex="1" parent="1">
          <mxGeometry x="320" y="800" width="40" height="40" as="geometry" />
        </mxCell>
        <mxCell id="st3X0hEhGhKhs0T9y3i2-25" value="" style="edgeStyle=none;shape=link;rounded=0;orthogonalLoop=1;jettySize=auto;html=1;strokeColor=default;" edge="1" parent="1" source="st3X0hEhGhKhs0T9y3i2-8" target="st3X0hEhGhKhs0T9y3i2-11">
          <mxGeometry relative="1" as="geometry" />
        </mxCell>
        <mxCell id="st3X0hEhGhKhs0T9y3i2-26" style="edgeStyle=none;shape=link;rounded=0;orthogonalLoop=1;jettySize=auto;html=1;entryX=0;entryY=0.25;entryDx=0;entryDy=0;strokeColor=default;" edge="1" parent="1" source="st3X0hEhGhKhs0T9y3i2-8" target="st3X0hEhGhKhs0T9y3i2-13">
          <mxGeometry relative="1" as="geometry" />
        </mxCell>
        <mxCell id="st3X0hEhGhKhs0T9y3i2-30" style="edgeStyle=none;shape=link;rounded=0;orthogonalLoop=1;jettySize=auto;html=1;entryX=0.5;entryY=0;entryDx=0;entryDy=0;strokeColor=default;dashed=1;" edge="1" parent="1" source="st3X0hEhGhKhs0T9y3i2-8" target="st3X0hEhGhKhs0T9y3i2-9">
          <mxGeometry relative="1" as="geometry" />
        </mxCell>
        <mxCell id="st3X0hEhGhKhs0T9y3i2-8" value="7" style="rounded=0;whiteSpace=wrap;html=1;fontStyle=1;fontSize=27;" vertex="1" parent="1">
          <mxGeometry x="440" y="640" width="40" height="40" as="geometry" />
        </mxCell>
        <mxCell id="st3X0hEhGhKhs0T9y3i2-21" value="" style="edgeStyle=none;shape=link;rounded=0;orthogonalLoop=1;jettySize=auto;html=1;strokeColor=default;dashed=1;" edge="1" parent="1" source="st3X0hEhGhKhs0T9y3i2-9" target="st3X0hEhGhKhs0T9y3i2-13">
          <mxGeometry relative="1" as="geometry" />
        </mxCell>
        <mxCell id="st3X0hEhGhKhs0T9y3i2-9" value="5" style="rounded=0;whiteSpace=wrap;html=1;fontStyle=1;fontSize=27;" vertex="1" parent="1">
          <mxGeometry x="440" y="760" width="40" height="40" as="geometry" />
        </mxCell>
        <mxCell id="st3X0hEhGhKhs0T9y3i2-27" style="edgeStyle=none;shape=link;rounded=0;orthogonalLoop=1;jettySize=auto;html=1;entryX=0.5;entryY=0;entryDx=0;entryDy=0;strokeColor=default;" edge="1" parent="1" source="st3X0hEhGhKhs0T9y3i2-11" target="st3X0hEhGhKhs0T9y3i2-13">
          <mxGeometry relative="1" as="geometry" />
        </mxCell>
        <mxCell id="st3X0hEhGhKhs0T9y3i2-11" value="10" style="rounded=0;whiteSpace=wrap;html=1;fontStyle=1;fontSize=27;" vertex="1" parent="1">
          <mxGeometry x="480" y="520" width="40" height="40" as="geometry" />
        </mxCell>
        <mxCell id="st3X0hEhGhKhs0T9y3i2-23" value="" style="edgeStyle=none;shape=link;rounded=0;orthogonalLoop=1;jettySize=auto;html=1;strokeColor=default;" edge="1" parent="1" source="st3X0hEhGhKhs0T9y3i2-12" target="st3X0hEhGhKhs0T9y3i2-11">
          <mxGeometry relative="1" as="geometry" />
        </mxCell>
        <mxCell id="st3X0hEhGhKhs0T9y3i2-12" value="9" style="rounded=0;whiteSpace=wrap;html=1;fontStyle=1;fontSize=27;" vertex="1" parent="1">
          <mxGeometry x="600" y="560" width="40" height="40" as="geometry" />
        </mxCell>
        <mxCell id="st3X0hEhGhKhs0T9y3i2-22" value="" style="edgeStyle=none;shape=link;rounded=0;orthogonalLoop=1;jettySize=auto;html=1;strokeColor=default;" edge="1" parent="1" source="st3X0hEhGhKhs0T9y3i2-13" target="st3X0hEhGhKhs0T9y3i2-12">
          <mxGeometry relative="1" as="geometry" />
        </mxCell>
        <mxCell id="st3X0hEhGhKhs0T9y3i2-13" value="8" style="rounded=0;whiteSpace=wrap;html=1;fontStyle=1;fontSize=27;" vertex="1" parent="1">
          <mxGeometry x="560" y="720" width="40" height="40" as="geometry" />
        </mxCell>
        <mxCell id="st3X0hEhGhKhs0T9y3i2-32" style="edgeStyle=none;shape=link;rounded=0;orthogonalLoop=1;jettySize=auto;html=1;strokeColor=default;dashed=1;" edge="1" parent="1" source="st3X0hEhGhKhs0T9y3i2-2">
          <mxGeometry relative="1" as="geometry">
            <mxPoint x="230" y="720" as="targetPoint" />
          </mxGeometry>
        </mxCell>
        <mxCell id="ivG3TNv90oPMQnSHwXwQ-1" style="edgeStyle=none;shape=link;rounded=0;orthogonalLoop=1;jettySize=auto;html=1;entryX=1;entryY=0;entryDx=0;entryDy=0;" edge="1" parent="1" source="ivG3TNv90oPMQnSHwXwQ-3" target="ivG3TNv90oPMQnSHwXwQ-6">
          <mxGeometry relative="1" as="geometry" />
        </mxCell>
        <mxCell id="ivG3TNv90oPMQnSHwXwQ-2" value="" style="edgeStyle=none;shape=link;rounded=0;orthogonalLoop=1;jettySize=auto;html=1;strokeColor=default;strokeWidth=1;shadow=0;flowAnimation=0;" edge="1" parent="1" source="ivG3TNv90oPMQnSHwXwQ-3" target="ivG3TNv90oPMQnSHwXwQ-24">
          <mxGeometry relative="1" as="geometry" />
        </mxCell>
        <mxCell id="ivG3TNv90oPMQnSHwXwQ-3" value="0" style="rounded=0;whiteSpace=wrap;html=1;fontStyle=1;fontSize=27;" vertex="1" parent="1">
          <mxGeometry x="1172" y="755" width="40" height="40" as="geometry" />
        </mxCell>
        <mxCell id="ivG3TNv90oPMQnSHwXwQ-4" style="edgeStyle=none;shape=link;rounded=0;orthogonalLoop=1;jettySize=auto;html=1;entryX=1;entryY=0;entryDx=0;entryDy=0;strokeColor=default;" edge="1" parent="1" source="ivG3TNv90oPMQnSHwXwQ-6" target="ivG3TNv90oPMQnSHwXwQ-8">
          <mxGeometry relative="1" as="geometry" />
        </mxCell>
        <mxCell id="ivG3TNv90oPMQnSHwXwQ-5" style="edgeStyle=none;shape=link;rounded=0;orthogonalLoop=1;jettySize=auto;html=1;strokeColor=default;" edge="1" parent="1" source="ivG3TNv90oPMQnSHwXwQ-6" target="ivG3TNv90oPMQnSHwXwQ-14">
          <mxGeometry relative="1" as="geometry" />
        </mxCell>
        <mxCell id="ivG3TNv90oPMQnSHwXwQ-6" value="1" style="rounded=0;whiteSpace=wrap;html=1;fontStyle=1;fontSize=27;" vertex="1" parent="1">
          <mxGeometry x="1082" y="835" width="40" height="40" as="geometry" />
        </mxCell>
        <mxCell id="ivG3TNv90oPMQnSHwXwQ-7" value="" style="edgeStyle=none;shape=link;rounded=0;orthogonalLoop=1;jettySize=auto;html=1;strokeColor=default;" edge="1" parent="1" source="ivG3TNv90oPMQnSHwXwQ-8" target="ivG3TNv90oPMQnSHwXwQ-11">
          <mxGeometry relative="1" as="geometry" />
        </mxCell>
        <mxCell id="ivG3TNv90oPMQnSHwXwQ-8" value="2" style="rounded=0;whiteSpace=wrap;html=1;fontStyle=1;fontSize=27;" vertex="1" parent="1">
          <mxGeometry x="972" y="875" width="40" height="40" as="geometry" />
        </mxCell>
        <mxCell id="ivG3TNv90oPMQnSHwXwQ-9" value="" style="edgeStyle=none;shape=link;rounded=0;orthogonalLoop=1;jettySize=auto;html=1;strokeColor=default;" edge="1" parent="1" source="ivG3TNv90oPMQnSHwXwQ-11" target="ivG3TNv90oPMQnSHwXwQ-14">
          <mxGeometry relative="1" as="geometry" />
        </mxCell>
        <mxCell id="ivG3TNv90oPMQnSHwXwQ-10" style="edgeStyle=none;shape=link;rounded=0;orthogonalLoop=1;jettySize=auto;html=1;entryX=0;entryY=0.5;entryDx=0;entryDy=0;strokeColor=default;" edge="1" parent="1" source="ivG3TNv90oPMQnSHwXwQ-11" target="ivG3TNv90oPMQnSHwXwQ-16">
          <mxGeometry relative="1" as="geometry" />
        </mxCell>
        <mxCell id="ivG3TNv90oPMQnSHwXwQ-11" value="3" style="rounded=0;whiteSpace=wrap;html=1;fontStyle=1;fontSize=27;" vertex="1" parent="1">
          <mxGeometry x="1012" y="995" width="40" height="40" as="geometry" />
        </mxCell>
        <mxCell id="ivG3TNv90oPMQnSHwXwQ-12" style="edgeStyle=none;shape=link;rounded=0;orthogonalLoop=1;jettySize=auto;html=1;entryX=0;entryY=0.5;entryDx=0;entryDy=0;strokeColor=default;" edge="1" parent="1" source="ivG3TNv90oPMQnSHwXwQ-14" target="ivG3TNv90oPMQnSHwXwQ-20">
          <mxGeometry relative="1" as="geometry" />
        </mxCell>
        <mxCell id="ivG3TNv90oPMQnSHwXwQ-13" style="edgeStyle=none;shape=link;rounded=0;orthogonalLoop=1;jettySize=auto;html=1;entryX=0;entryY=0.25;entryDx=0;entryDy=0;strokeColor=default;" edge="1" parent="1" source="ivG3TNv90oPMQnSHwXwQ-14" target="ivG3TNv90oPMQnSHwXwQ-22">
          <mxGeometry relative="1" as="geometry" />
        </mxCell>
        <mxCell id="ivG3TNv90oPMQnSHwXwQ-14" value="6" style="rounded=0;whiteSpace=wrap;html=1;fontStyle=1;fontSize=27;" vertex="1" parent="1">
          <mxGeometry x="1132" y="955" width="40" height="40" as="geometry" />
        </mxCell>
        <mxCell id="ivG3TNv90oPMQnSHwXwQ-15" value="" style="edgeStyle=none;shape=link;rounded=0;orthogonalLoop=1;jettySize=auto;html=1;strokeColor=default;" edge="1" parent="1" source="ivG3TNv90oPMQnSHwXwQ-16" target="ivG3TNv90oPMQnSHwXwQ-22">
          <mxGeometry relative="1" as="geometry" />
        </mxCell>
        <mxCell id="ivG3TNv90oPMQnSHwXwQ-16" value="4" style="rounded=0;whiteSpace=wrap;html=1;fontStyle=1;fontSize=27;" vertex="1" parent="1">
          <mxGeometry x="1132" y="1075" width="40" height="40" as="geometry" />
        </mxCell>
        <mxCell id="ivG3TNv90oPMQnSHwXwQ-17" value="" style="edgeStyle=none;shape=link;rounded=0;orthogonalLoop=1;jettySize=auto;html=1;strokeColor=default;" edge="1" parent="1" source="ivG3TNv90oPMQnSHwXwQ-20" target="ivG3TNv90oPMQnSHwXwQ-24">
          <mxGeometry relative="1" as="geometry" />
        </mxCell>
        <mxCell id="ivG3TNv90oPMQnSHwXwQ-18" style="edgeStyle=none;shape=link;rounded=0;orthogonalLoop=1;jettySize=auto;html=1;entryX=0;entryY=0.25;entryDx=0;entryDy=0;strokeColor=default;" edge="1" parent="1" source="ivG3TNv90oPMQnSHwXwQ-20" target="ivG3TNv90oPMQnSHwXwQ-28">
          <mxGeometry relative="1" as="geometry" />
        </mxCell>
        <mxCell id="ivG3TNv90oPMQnSHwXwQ-19" style="edgeStyle=none;shape=link;rounded=0;orthogonalLoop=1;jettySize=auto;html=1;entryX=0.5;entryY=0;entryDx=0;entryDy=0;strokeColor=default;" edge="1" parent="1" source="ivG3TNv90oPMQnSHwXwQ-20" target="ivG3TNv90oPMQnSHwXwQ-22">
          <mxGeometry relative="1" as="geometry" />
        </mxCell>
        <mxCell id="ivG3TNv90oPMQnSHwXwQ-20" value="7" style="rounded=0;whiteSpace=wrap;html=1;fontStyle=1;fontSize=27;" vertex="1" parent="1">
          <mxGeometry x="1252" y="915" width="40" height="40" as="geometry" />
        </mxCell>
        <mxCell id="ivG3TNv90oPMQnSHwXwQ-21" value="" style="edgeStyle=none;shape=link;rounded=0;orthogonalLoop=1;jettySize=auto;html=1;strokeColor=default;" edge="1" parent="1" source="ivG3TNv90oPMQnSHwXwQ-22" target="ivG3TNv90oPMQnSHwXwQ-28">
          <mxGeometry relative="1" as="geometry" />
        </mxCell>
        <mxCell id="ivG3TNv90oPMQnSHwXwQ-22" value="5" style="rounded=0;whiteSpace=wrap;html=1;fontStyle=1;fontSize=27;" vertex="1" parent="1">
          <mxGeometry x="1252" y="1035" width="40" height="40" as="geometry" />
        </mxCell>
        <mxCell id="ivG3TNv90oPMQnSHwXwQ-23" style="edgeStyle=none;shape=link;rounded=0;orthogonalLoop=1;jettySize=auto;html=1;entryX=0.5;entryY=0;entryDx=0;entryDy=0;strokeColor=default;" edge="1" parent="1" source="ivG3TNv90oPMQnSHwXwQ-24" target="ivG3TNv90oPMQnSHwXwQ-28">
          <mxGeometry relative="1" as="geometry" />
        </mxCell>
        <mxCell id="ivG3TNv90oPMQnSHwXwQ-24" value="10" style="rounded=0;whiteSpace=wrap;html=1;fontStyle=1;fontSize=27;" vertex="1" parent="1">
          <mxGeometry x="1292" y="795" width="40" height="40" as="geometry" />
        </mxCell>
        <mxCell id="ivG3TNv90oPMQnSHwXwQ-25" value="" style="edgeStyle=none;shape=link;rounded=0;orthogonalLoop=1;jettySize=auto;html=1;strokeColor=default;" edge="1" parent="1" source="ivG3TNv90oPMQnSHwXwQ-26" target="ivG3TNv90oPMQnSHwXwQ-24">
          <mxGeometry relative="1" as="geometry" />
        </mxCell>
        <mxCell id="ivG3TNv90oPMQnSHwXwQ-26" value="9" style="rounded=0;whiteSpace=wrap;html=1;fontStyle=1;fontSize=27;" vertex="1" parent="1">
          <mxGeometry x="1412" y="835" width="40" height="40" as="geometry" />
        </mxCell>
        <mxCell id="ivG3TNv90oPMQnSHwXwQ-27" value="" style="edgeStyle=none;shape=link;rounded=0;orthogonalLoop=1;jettySize=auto;html=1;strokeColor=default;" edge="1" parent="1" source="ivG3TNv90oPMQnSHwXwQ-28" target="ivG3TNv90oPMQnSHwXwQ-26">
          <mxGeometry relative="1" as="geometry" />
        </mxCell>
        <mxCell id="ivG3TNv90oPMQnSHwXwQ-28" value="8" style="rounded=0;whiteSpace=wrap;html=1;fontStyle=1;fontSize=27;" vertex="1" parent="1">
          <mxGeometry x="1372" y="995" width="40" height="40" as="geometry" />
        </mxCell>
        <mxCell id="ivG3TNv90oPMQnSHwXwQ-29" style="edgeStyle=none;shape=link;rounded=0;orthogonalLoop=1;jettySize=auto;html=1;strokeColor=default;" edge="1" parent="1" source="ivG3TNv90oPMQnSHwXwQ-6">
          <mxGeometry relative="1" as="geometry">
            <mxPoint x="1042" y="995" as="targetPoint" />
          </mxGeometry>
        </mxCell>
        <mxCell id="lu6KjBgIaQ4wTNZxXIFp-10" style="edgeStyle=none;shape=link;rounded=0;orthogonalLoop=1;jettySize=auto;html=1;entryX=0.445;entryY=0.028;entryDx=0;entryDy=0;entryPerimeter=0;" edge="1" parent="1" source="RIK8JHLe3Fis-H1FspuT-2" target="RIK8JHLe3Fis-H1FspuT-3">
          <mxGeometry relative="1" as="geometry" />
        </mxCell>
        <mxCell id="lu6KjBgIaQ4wTNZxXIFp-12" style="edgeStyle=none;shape=link;rounded=0;orthogonalLoop=1;jettySize=auto;html=1;entryX=0.35;entryY=0.078;entryDx=0;entryDy=0;entryPerimeter=0;" edge="1" parent="1" source="RIK8JHLe3Fis-H1FspuT-1" target="RIK8JHLe3Fis-H1FspuT-5">
          <mxGeometry relative="1" as="geometry" />
        </mxCell>
        <mxCell id="lu6KjBgIaQ4wTNZxXIFp-16" value="5" style="rounded=0;whiteSpace=wrap;html=1;fontStyle=1;fontSize=27;" vertex="1" parent="1">
          <mxGeometry x="360" y="276" width="40" height="40" as="geometry" />
        </mxCell>
        <mxCell id="lu6KjBgIaQ4wTNZxXIFp-20" style="edgeStyle=none;shape=link;rounded=0;orthogonalLoop=1;jettySize=auto;html=1;entryX=0.365;entryY=-0.064;entryDx=0;entryDy=0;entryPerimeter=0;" edge="1" parent="1" source="RIK8JHLe3Fis-H1FspuT-2" target="lu6KjBgIaQ4wTNZxXIFp-16">
          <mxGeometry relative="1" as="geometry" />
        </mxCell>
        <mxCell id="lu6KjBgIaQ4wTNZxXIFp-21" style="edgeStyle=none;shape=link;rounded=0;orthogonalLoop=1;jettySize=auto;html=1;entryX=0.569;entryY=-0.093;entryDx=0;entryDy=0;entryPerimeter=0;" edge="1" parent="1" source="RIK8JHLe3Fis-H1FspuT-3" target="RIK8JHLe3Fis-H1FspuT-5">
          <mxGeometry relative="1" as="geometry" />
        </mxCell>
      </root>
    </mxGraphModel>
  </diagram>
</mxfile>
